G04 #@! TF.GenerationSoftware,KiCad,Pcbnew,8.0.4*
G04 #@! TF.CreationDate,2024-09-18T18:28:33+10:00*
G04 #@! TF.ProjectId,ESC,4553432e-6b69-4636-9164-5f7063625858,rev?*
G04 #@! TF.SameCoordinates,Original*
G04 #@! TF.FileFunction,Copper,L6,Bot*
G04 #@! TF.FilePolarity,Positive*
%FSLAX46Y46*%
G04 Gerber Fmt 4.6, Leading zero omitted, Abs format (unit mm)*
G04 Created by KiCad (PCBNEW 8.0.4) date 2024-09-18 18:28:33*
%MOMM*%
%LPD*%
G01*
G04 APERTURE LIST*
G04 Aperture macros list*
%AMRoundRect*
0 Rectangle with rounded corners*
0 $1 Rounding radius*
0 $2 $3 $4 $5 $6 $7 $8 $9 X,Y pos of 4 corners*
0 Add a 4 corners polygon primitive as box body*
4,1,4,$2,$3,$4,$5,$6,$7,$8,$9,$2,$3,0*
0 Add four circle primitives for the rounded corners*
1,1,$1+$1,$2,$3*
1,1,$1+$1,$4,$5*
1,1,$1+$1,$6,$7*
1,1,$1+$1,$8,$9*
0 Add four rect primitives between the rounded corners*
20,1,$1+$1,$2,$3,$4,$5,0*
20,1,$1+$1,$4,$5,$6,$7,0*
20,1,$1+$1,$6,$7,$8,$9,0*
20,1,$1+$1,$8,$9,$2,$3,0*%
%AMRotRect*
0 Rectangle, with rotation*
0 The origin of the aperture is its center*
0 $1 length*
0 $2 width*
0 $3 Rotation angle, in degrees counterclockwise*
0 Add horizontal line*
21,1,$1,$2,0,0,$3*%
G04 Aperture macros list end*
G04 #@! TA.AperFunction,ComponentPad*
%ADD10R,1.700000X1.700000*%
G04 #@! TD*
G04 #@! TA.AperFunction,ComponentPad*
%ADD11O,1.700000X1.700000*%
G04 #@! TD*
G04 #@! TA.AperFunction,ComponentPad*
%ADD12R,1.350000X1.350000*%
G04 #@! TD*
G04 #@! TA.AperFunction,ComponentPad*
%ADD13O,1.350000X1.350000*%
G04 #@! TD*
G04 #@! TA.AperFunction,SMDPad,CuDef*
%ADD14RoundRect,0.225000X-0.017678X0.335876X-0.335876X0.017678X0.017678X-0.335876X0.335876X-0.017678X0*%
G04 #@! TD*
G04 #@! TA.AperFunction,SMDPad,CuDef*
%ADD15RoundRect,0.225000X-0.225000X-0.250000X0.225000X-0.250000X0.225000X0.250000X-0.225000X0.250000X0*%
G04 #@! TD*
G04 #@! TA.AperFunction,SMDPad,CuDef*
%ADD16RoundRect,0.135000X-0.185000X0.135000X-0.185000X-0.135000X0.185000X-0.135000X0.185000X0.135000X0*%
G04 #@! TD*
G04 #@! TA.AperFunction,SMDPad,CuDef*
%ADD17RoundRect,0.140000X0.140000X0.170000X-0.140000X0.170000X-0.140000X-0.170000X0.140000X-0.170000X0*%
G04 #@! TD*
G04 #@! TA.AperFunction,SMDPad,CuDef*
%ADD18RoundRect,0.140000X-0.140000X-0.170000X0.140000X-0.170000X0.140000X0.170000X-0.140000X0.170000X0*%
G04 #@! TD*
G04 #@! TA.AperFunction,SMDPad,CuDef*
%ADD19O,0.590000X2.050000*%
G04 #@! TD*
G04 #@! TA.AperFunction,SMDPad,CuDef*
%ADD20RoundRect,0.135000X-0.226274X-0.035355X-0.035355X-0.226274X0.226274X0.035355X0.035355X0.226274X0*%
G04 #@! TD*
G04 #@! TA.AperFunction,SMDPad,CuDef*
%ADD21RoundRect,0.200000X0.275000X-0.200000X0.275000X0.200000X-0.275000X0.200000X-0.275000X-0.200000X0*%
G04 #@! TD*
G04 #@! TA.AperFunction,SMDPad,CuDef*
%ADD22RoundRect,0.140000X0.170000X-0.140000X0.170000X0.140000X-0.170000X0.140000X-0.170000X-0.140000X0*%
G04 #@! TD*
G04 #@! TA.AperFunction,SMDPad,CuDef*
%ADD23RoundRect,0.135000X0.185000X-0.135000X0.185000X0.135000X-0.185000X0.135000X-0.185000X-0.135000X0*%
G04 #@! TD*
G04 #@! TA.AperFunction,SMDPad,CuDef*
%ADD24RoundRect,0.140000X0.021213X-0.219203X0.219203X-0.021213X-0.021213X0.219203X-0.219203X0.021213X0*%
G04 #@! TD*
G04 #@! TA.AperFunction,SMDPad,CuDef*
%ADD25R,0.400000X0.800000*%
G04 #@! TD*
G04 #@! TA.AperFunction,SMDPad,CuDef*
%ADD26RoundRect,0.225000X0.017678X-0.335876X0.335876X-0.017678X-0.017678X0.335876X-0.335876X0.017678X0*%
G04 #@! TD*
G04 #@! TA.AperFunction,SMDPad,CuDef*
%ADD27R,0.500000X0.780000*%
G04 #@! TD*
G04 #@! TA.AperFunction,SMDPad,CuDef*
%ADD28RoundRect,0.225000X0.225000X0.250000X-0.225000X0.250000X-0.225000X-0.250000X0.225000X-0.250000X0*%
G04 #@! TD*
G04 #@! TA.AperFunction,SMDPad,CuDef*
%ADD29RoundRect,0.250000X-1.425000X0.362500X-1.425000X-0.362500X1.425000X-0.362500X1.425000X0.362500X0*%
G04 #@! TD*
G04 #@! TA.AperFunction,SMDPad,CuDef*
%ADD30RoundRect,0.225000X-0.335876X-0.017678X-0.017678X-0.335876X0.335876X0.017678X0.017678X0.335876X0*%
G04 #@! TD*
G04 #@! TA.AperFunction,SMDPad,CuDef*
%ADD31O,0.280000X0.900000*%
G04 #@! TD*
G04 #@! TA.AperFunction,SMDPad,CuDef*
%ADD32O,0.900000X0.280000*%
G04 #@! TD*
G04 #@! TA.AperFunction,SMDPad,CuDef*
%ADD33R,5.500000X5.500000*%
G04 #@! TD*
G04 #@! TA.AperFunction,SMDPad,CuDef*
%ADD34RotRect,0.600000X0.250000X45.000000*%
G04 #@! TD*
G04 #@! TA.AperFunction,SMDPad,CuDef*
%ADD35RotRect,0.250000X0.600000X45.000000*%
G04 #@! TD*
G04 #@! TA.AperFunction,SMDPad,CuDef*
%ADD36RotRect,2.450000X2.450000X45.000000*%
G04 #@! TD*
G04 #@! TA.AperFunction,SMDPad,CuDef*
%ADD37RoundRect,0.140000X-0.219203X-0.021213X-0.021213X-0.219203X0.219203X0.021213X0.021213X0.219203X0*%
G04 #@! TD*
G04 #@! TA.AperFunction,SMDPad,CuDef*
%ADD38RoundRect,0.135000X0.226274X0.035355X0.035355X0.226274X-0.226274X-0.035355X-0.035355X-0.226274X0*%
G04 #@! TD*
G04 #@! TA.AperFunction,SMDPad,CuDef*
%ADD39RoundRect,0.225000X0.335876X0.017678X0.017678X0.335876X-0.335876X-0.017678X-0.017678X-0.335876X0*%
G04 #@! TD*
G04 #@! TA.AperFunction,SMDPad,CuDef*
%ADD40RoundRect,0.140000X-0.170000X0.140000X-0.170000X-0.140000X0.170000X-0.140000X0.170000X0.140000X0*%
G04 #@! TD*
G04 #@! TA.AperFunction,ViaPad*
%ADD41C,0.600000*%
G04 #@! TD*
G04 #@! TA.AperFunction,ViaPad*
%ADD42C,1.000000*%
G04 #@! TD*
G04 #@! TA.AperFunction,Conductor*
%ADD43C,0.200000*%
G04 #@! TD*
G04 #@! TA.AperFunction,Conductor*
%ADD44C,0.400000*%
G04 #@! TD*
G04 APERTURE END LIST*
D10*
X121750000Y-63170000D03*
D11*
X121750000Y-65710000D03*
X121750000Y-68250000D03*
X121750000Y-70790000D03*
D10*
X128125000Y-39900000D03*
D11*
X128125000Y-37360000D03*
X128125000Y-34820000D03*
X128125000Y-32280000D03*
X128125000Y-29740000D03*
D10*
X116390000Y-74500000D03*
D11*
X113850000Y-74500000D03*
X111310001Y-74500000D03*
X108770000Y-74500000D03*
D12*
X103475000Y-74750000D03*
D13*
X105475001Y-74750000D03*
D12*
X119775000Y-74350000D03*
D13*
X121775001Y-74350000D03*
D14*
X110496016Y-58603984D03*
X109400000Y-59700000D03*
D15*
X117250000Y-61700000D03*
X118800000Y-61700000D03*
D16*
X124400000Y-35580002D03*
X124400000Y-36600000D03*
D17*
X117880000Y-35800000D03*
X116920000Y-35800000D03*
X108225000Y-63800000D03*
X107265000Y-63800000D03*
D18*
X116340000Y-36800000D03*
X117300000Y-36800000D03*
D19*
X102500000Y-67335000D03*
X103780000Y-67335000D03*
X105040000Y-67335000D03*
X106310000Y-67335000D03*
X106310000Y-72875000D03*
X105040000Y-72875000D03*
X103780000Y-72875000D03*
X102500000Y-72875000D03*
D20*
X116439376Y-58039376D03*
X117160624Y-58760624D03*
D18*
X109920000Y-36800000D03*
X110880000Y-36800000D03*
D21*
X118350000Y-46925000D03*
X118350000Y-45275000D03*
D22*
X125700000Y-33180000D03*
X125700000Y-32220000D03*
D23*
X125400000Y-36619998D03*
X125400000Y-35600000D03*
D24*
X115821178Y-60878822D03*
X116500000Y-60200000D03*
D17*
X108610000Y-64750000D03*
X107650000Y-64750000D03*
D21*
X110400000Y-46725000D03*
X110400000Y-45075000D03*
X113000000Y-46850000D03*
X113000000Y-45200000D03*
D25*
X124282500Y-34300000D03*
X123632500Y-34300000D03*
X122982500Y-34300000D03*
X122982500Y-32000000D03*
X123632500Y-32000000D03*
X124282500Y-32000000D03*
D26*
X116700000Y-56600000D03*
X117796016Y-55503984D03*
D27*
X103000000Y-64780000D03*
X103000000Y-62700000D03*
D28*
X115200000Y-51500000D03*
X113650000Y-51500000D03*
D21*
X105500000Y-46400000D03*
X105500000Y-44750000D03*
D29*
X113890606Y-30437500D03*
X113890606Y-36362500D03*
D30*
X117121178Y-70321178D03*
X118217194Y-71417194D03*
D31*
X116150000Y-69425000D03*
X115650000Y-69425000D03*
X115150000Y-69425000D03*
X114650000Y-69425000D03*
X114150000Y-69425000D03*
X113650000Y-69425000D03*
X113150000Y-69425000D03*
X112650000Y-69425000D03*
X112150000Y-69425000D03*
X111650000Y-69425000D03*
X111150000Y-69425000D03*
X110650000Y-69425000D03*
D32*
X109950000Y-68725000D03*
X109950000Y-68225000D03*
X109950000Y-67725000D03*
X109950000Y-67225000D03*
X109950000Y-66725000D03*
X109950000Y-66225000D03*
X109950000Y-65725000D03*
X109950000Y-65225000D03*
X109950000Y-64725000D03*
X109950000Y-64225000D03*
X109950000Y-63725000D03*
X109950000Y-63225000D03*
D31*
X110650000Y-62525000D03*
X111150000Y-62525000D03*
X111650000Y-62525000D03*
X112150000Y-62525000D03*
X112650000Y-62525000D03*
X113150000Y-62525000D03*
X113650000Y-62525000D03*
X114150000Y-62525000D03*
X114650000Y-62525000D03*
X115150000Y-62525000D03*
X115650000Y-62525000D03*
X116150000Y-62525000D03*
D32*
X116850000Y-63225000D03*
X116850000Y-63725000D03*
X116850000Y-64225000D03*
X116850000Y-64725000D03*
X116850000Y-65225000D03*
X116850000Y-65725000D03*
X116850000Y-66225000D03*
X116850000Y-66725000D03*
X116850000Y-67225000D03*
X116850000Y-67725000D03*
X116850000Y-68225000D03*
X116850000Y-68725000D03*
D33*
X113400000Y-65975000D03*
D34*
X113380761Y-57054770D03*
X113027207Y-56701217D03*
X112673654Y-56347664D03*
X112320100Y-55994110D03*
X111966547Y-55640557D03*
X111612994Y-55287003D03*
D35*
X111612994Y-54367765D03*
X111966547Y-54014211D03*
X112320100Y-53660658D03*
X112673654Y-53307104D03*
X113027207Y-52953551D03*
X113380761Y-52599998D03*
D34*
X114299999Y-52599998D03*
X114653553Y-52953551D03*
X115007106Y-53307104D03*
X115360660Y-53660658D03*
X115714213Y-54014211D03*
X116067766Y-54367765D03*
D35*
X116067766Y-55287003D03*
X115714213Y-55640557D03*
X115360660Y-55994110D03*
X115007106Y-56347664D03*
X114653553Y-56701217D03*
X114299999Y-57054770D03*
D36*
X113840380Y-54827384D03*
D37*
X117921178Y-69321178D03*
X118600000Y-70000000D03*
D25*
X111300000Y-34300000D03*
X110650000Y-34300000D03*
X110000000Y-34300000D03*
X110000000Y-32000000D03*
X110650000Y-32000000D03*
X111300000Y-32000000D03*
D38*
X109521248Y-57121248D03*
X108800000Y-56400000D03*
D29*
X120400000Y-30437500D03*
X120400000Y-36362500D03*
X107400000Y-30450000D03*
X107400000Y-36375000D03*
D21*
X103950000Y-46425000D03*
X103950000Y-44775000D03*
X115400000Y-46850000D03*
X115400000Y-45200000D03*
D39*
X117896016Y-53496016D03*
X116800000Y-52400000D03*
D17*
X111300000Y-35700000D03*
X110340000Y-35700000D03*
D39*
X111000000Y-56900000D03*
X109903984Y-55803984D03*
D25*
X117800000Y-34300000D03*
X117150000Y-34300000D03*
X116500000Y-34300000D03*
X116500000Y-32000000D03*
X117150000Y-32000000D03*
X117800000Y-32000000D03*
D40*
X123300000Y-36020000D03*
X123300000Y-36980000D03*
D41*
X120005848Y-63671266D03*
X120742897Y-63025000D03*
X117711912Y-63314436D03*
X106597938Y-60376804D03*
D42*
X104700000Y-59900000D03*
D41*
X117200000Y-69100000D03*
X120265000Y-60800000D03*
X109208832Y-65125000D03*
X106500000Y-71500000D03*
D42*
X108100000Y-58100000D03*
X107760445Y-56760445D03*
D41*
X109000000Y-63700000D03*
X115833585Y-34873678D03*
X125600003Y-37200000D03*
X115761029Y-61536029D03*
X109900000Y-69500000D03*
X109217342Y-34860001D03*
X104500000Y-65000000D03*
X104800000Y-71000000D03*
D42*
X107100000Y-58100000D03*
D41*
X123230492Y-35157378D03*
X105300000Y-69030002D03*
X118625000Y-63125000D03*
X109000000Y-67499997D03*
X120183356Y-59201882D03*
X117229006Y-60700000D03*
X119383355Y-59200099D03*
X111057769Y-70368320D03*
X108461029Y-66161029D03*
X118355000Y-58921556D03*
X117925000Y-59873189D03*
X109100000Y-69200000D03*
X105535000Y-43380000D03*
D42*
X119200000Y-40400000D03*
X120000000Y-42000000D03*
X120000000Y-41200000D03*
X120800000Y-42000000D03*
X121600000Y-42000000D03*
X119200000Y-41200000D03*
X121600000Y-40400000D03*
X119200000Y-42000000D03*
X120800000Y-40400000D03*
D41*
X120700000Y-56075000D03*
D42*
X121600000Y-41200000D03*
D41*
X112750000Y-51800000D03*
X119425000Y-51950000D03*
D42*
X120800000Y-41200000D03*
X120000000Y-40400000D03*
X127650000Y-47150000D03*
X127650000Y-53150000D03*
X126650000Y-55150000D03*
X126650000Y-67150000D03*
X127650000Y-61150000D03*
D41*
X127000000Y-69500000D03*
X127000000Y-73500000D03*
D42*
X125650000Y-61150000D03*
D41*
X127000000Y-74500000D03*
D42*
X125650000Y-49150000D03*
X125650000Y-63150000D03*
X125650000Y-55150000D03*
X127650000Y-59150000D03*
D41*
X124600000Y-69500000D03*
D42*
X127650000Y-49150000D03*
X127650000Y-51150000D03*
D41*
X128600000Y-72500000D03*
D42*
X125650000Y-65150000D03*
D41*
X125400000Y-70500000D03*
D42*
X125650000Y-47150000D03*
X125650000Y-67150000D03*
D41*
X127000000Y-71500000D03*
X127800000Y-73500000D03*
X128600000Y-70500000D03*
X125400000Y-72500000D03*
D42*
X126650000Y-57150000D03*
X125650000Y-57150000D03*
D41*
X126200000Y-71500000D03*
D42*
X126650000Y-47150000D03*
X125650000Y-53150000D03*
X127650000Y-57150000D03*
X125650000Y-51150000D03*
X126650000Y-53150000D03*
D41*
X127800000Y-71500000D03*
X128600000Y-69500000D03*
X125400000Y-73500000D03*
X124600000Y-72500000D03*
X124600000Y-70500000D03*
D42*
X126650000Y-63150000D03*
D41*
X126200000Y-72500000D03*
X125400000Y-69500000D03*
D42*
X127650000Y-67150000D03*
X126650000Y-49150000D03*
D41*
X126200000Y-73500000D03*
X127800000Y-74500000D03*
D42*
X126650000Y-51150000D03*
X127650000Y-63150000D03*
D41*
X124600000Y-74500000D03*
X127800000Y-69500000D03*
X127800000Y-72500000D03*
D42*
X127650000Y-65150000D03*
D41*
X124600000Y-71500000D03*
X124600000Y-73500000D03*
D42*
X126650000Y-59150000D03*
D41*
X125400000Y-71500000D03*
X126200000Y-69500000D03*
D42*
X127650000Y-55150000D03*
D41*
X127800000Y-70500000D03*
X125400000Y-74500000D03*
X127000000Y-72500000D03*
X128600000Y-73500000D03*
X128600000Y-71500000D03*
D42*
X126650000Y-61150000D03*
X126650000Y-65150000D03*
D41*
X128600000Y-74500000D03*
X126200000Y-74500000D03*
X127000000Y-70500000D03*
D42*
X125650000Y-59150000D03*
D41*
X126200000Y-70500000D03*
X115547697Y-58220000D03*
X113755641Y-58751697D03*
X119155000Y-56772505D03*
D42*
X114300000Y-42000000D03*
D41*
X111393841Y-44274838D03*
D42*
X115100000Y-40400000D03*
X114300000Y-40400000D03*
X112700000Y-40400000D03*
X112700000Y-42000000D03*
X115100000Y-41200000D03*
D41*
X115807105Y-52507105D03*
D42*
X113500000Y-40400000D03*
X115100000Y-42000000D03*
X114300000Y-41200000D03*
X113500000Y-41200000D03*
X112700000Y-41200000D03*
X113500000Y-42000000D03*
X106950000Y-41200000D03*
X107750000Y-40400000D03*
D41*
X117096016Y-54803984D03*
D42*
X106950000Y-40400000D03*
X106150000Y-41200000D03*
X106950000Y-42000000D03*
D41*
X117483299Y-57331354D03*
D42*
X106150000Y-40400000D03*
X108550000Y-40400000D03*
X108550000Y-41200000D03*
X107750000Y-41200000D03*
X106150000Y-42000000D03*
X107750000Y-42000000D03*
X108550000Y-42000000D03*
D41*
X112520751Y-61446372D03*
X114725000Y-70600000D03*
X109000000Y-54700000D03*
X99100000Y-63000000D03*
X100500000Y-71000000D03*
X104900000Y-53700000D03*
X100000000Y-52000000D03*
X98000000Y-63000000D03*
D42*
X122075000Y-32200000D03*
D41*
X99000000Y-70000000D03*
X114600000Y-33100000D03*
X125700000Y-31400000D03*
X123600000Y-33400000D03*
X99000000Y-74000000D03*
X116585353Y-58985357D03*
X99750000Y-70000000D03*
X126200000Y-43500000D03*
X98250000Y-74000000D03*
D42*
X122000000Y-57500000D03*
X101500000Y-42500000D03*
D41*
X118900000Y-70875000D03*
X110650000Y-33200000D03*
X114000000Y-33100000D03*
X108628909Y-60150000D03*
X112575735Y-65150735D03*
X108400000Y-61300000D03*
X99750000Y-72000000D03*
X125300000Y-43500000D03*
D42*
X122000000Y-58500000D03*
D41*
X110881052Y-64570420D03*
X99750000Y-75000000D03*
D42*
X103000000Y-34000000D03*
D41*
X97500000Y-71000000D03*
X97500000Y-70000000D03*
X124300000Y-43500000D03*
X110598138Y-61577104D03*
D42*
X114250000Y-32250000D03*
X103000000Y-38500000D03*
D41*
X124400000Y-37200000D03*
X123300000Y-37600000D03*
X100500000Y-70000000D03*
X99100000Y-64500000D03*
X97500000Y-74000000D03*
X99000000Y-72000000D03*
X100200000Y-62200000D03*
D42*
X108000000Y-32250000D03*
D41*
X97500000Y-75000000D03*
X98250000Y-71000000D03*
D42*
X113000000Y-32250000D03*
D41*
X96750000Y-73000000D03*
D42*
X101500000Y-37000000D03*
D41*
X108280000Y-55120000D03*
X96750000Y-75000000D03*
X101700000Y-53700000D03*
X100500000Y-72000000D03*
X99750000Y-71000000D03*
X98250000Y-73000000D03*
X99000000Y-75000000D03*
X108200000Y-53700000D03*
D42*
X101500000Y-35500000D03*
D41*
X96900000Y-63000000D03*
X101800000Y-56100000D03*
X96900000Y-64500000D03*
X107500000Y-33100000D03*
X108100000Y-33100000D03*
X120329325Y-54819328D03*
X99000000Y-73000000D03*
X105600000Y-53700000D03*
X99000000Y-71000000D03*
X96750000Y-70000000D03*
X117100000Y-33200000D03*
D42*
X103000000Y-37000000D03*
X101500000Y-34000000D03*
D41*
X100500000Y-75000000D03*
X100000000Y-52800000D03*
X118900000Y-71800000D03*
X96750000Y-72000000D03*
X119063173Y-61963175D03*
X100500000Y-73000000D03*
D42*
X103000000Y-32500000D03*
D41*
X109500000Y-53700000D03*
X103800000Y-69030002D03*
D42*
X119925000Y-32200000D03*
D41*
X100500000Y-74000000D03*
X102400000Y-53700000D03*
D42*
X120975000Y-32200000D03*
D41*
X96750000Y-74000000D03*
X100000000Y-55500000D03*
X115200000Y-33100000D03*
X106900000Y-53700000D03*
D42*
X103000000Y-35500000D03*
D41*
X98250000Y-70000000D03*
X107764645Y-64864644D03*
D42*
X106750000Y-32250000D03*
D41*
X99750000Y-74000000D03*
X113840380Y-54827384D03*
X111100000Y-55100000D03*
X100000000Y-54300000D03*
D42*
X105500000Y-32250000D03*
D41*
X110300000Y-59700000D03*
X107100219Y-62210002D03*
X108700000Y-33100000D03*
D42*
X101500000Y-32500000D03*
X122000000Y-55500000D03*
D41*
X110400000Y-60800000D03*
D42*
X104100000Y-55300000D03*
D41*
X97500000Y-73000000D03*
X103100000Y-53700000D03*
X100000000Y-51300000D03*
X98250000Y-72000000D03*
X97500000Y-72000000D03*
X99750000Y-73000000D03*
D42*
X101500000Y-38500000D03*
D41*
X96000000Y-57900000D03*
X96750000Y-71000000D03*
X104686863Y-70208038D03*
X100000000Y-54900000D03*
D42*
X122000000Y-56500000D03*
D41*
X110200000Y-53700000D03*
X108900000Y-53700000D03*
X106200000Y-53700000D03*
D42*
X122000000Y-59500000D03*
D41*
X98250000Y-75000000D03*
D42*
X103000000Y-42500000D03*
X115500000Y-32250000D03*
D41*
X106511479Y-70288520D03*
X98000000Y-64500000D03*
X114905640Y-58653521D03*
X113755641Y-59600224D03*
X112780761Y-57850000D03*
X111580761Y-57700000D03*
X124700000Y-30875000D03*
X111600000Y-71250000D03*
X117858908Y-32946904D03*
X111400026Y-32921682D03*
X124400003Y-33400000D03*
X117838095Y-31491535D03*
X109000000Y-68300000D03*
X109600000Y-61600000D03*
X111400000Y-31300000D03*
X107680197Y-70688623D03*
X119194494Y-69448981D03*
X118065748Y-66309252D03*
X119075000Y-67650000D03*
X115660500Y-59996356D03*
X120325000Y-64825000D03*
X119500000Y-64225000D03*
X119063235Y-68511765D03*
X107725000Y-68200000D03*
X115059458Y-59395314D03*
X104250000Y-43800000D03*
X112100000Y-43600000D03*
X110750000Y-43800000D03*
X103000000Y-71700000D03*
X118290606Y-44000000D03*
X117490606Y-44000000D03*
X113000000Y-70400000D03*
D42*
X118300000Y-27200000D03*
X121600000Y-29400000D03*
X122700000Y-29400000D03*
X120500000Y-27200000D03*
X119400000Y-28300000D03*
X122700000Y-28300000D03*
X119400000Y-29400000D03*
X120500000Y-29400000D03*
X118300000Y-29400000D03*
X121600000Y-27200000D03*
X122700000Y-27200000D03*
X119400000Y-27200000D03*
X118300000Y-28300000D03*
X120500000Y-28300000D03*
X121600000Y-28300000D03*
X115100000Y-27200000D03*
X114000000Y-27200000D03*
X112900000Y-27200000D03*
X111800000Y-28300000D03*
X116200000Y-28300000D03*
X115100000Y-29400000D03*
X112900000Y-29400000D03*
X111800000Y-27200000D03*
X112900000Y-28300000D03*
X116200000Y-29400000D03*
X116200000Y-27200000D03*
X111800000Y-29400000D03*
X114000000Y-29400000D03*
X114000000Y-28300000D03*
X115100000Y-28300000D03*
X108400000Y-29400000D03*
X106200000Y-28300000D03*
X109500000Y-29400000D03*
X106200000Y-29400000D03*
X108400000Y-27200000D03*
X105100000Y-29400000D03*
X109500000Y-28300000D03*
X107300000Y-28300000D03*
X107300000Y-29400000D03*
X106200000Y-27200000D03*
X109500000Y-27200000D03*
X108400000Y-28300000D03*
X105100000Y-27200000D03*
X107300000Y-27200000D03*
X105100000Y-28300000D03*
D43*
X119525000Y-62525000D02*
X116150000Y-62525000D01*
X120025000Y-63025000D02*
X119525000Y-62525000D01*
X120742897Y-63025000D02*
X120025000Y-63025000D01*
X119272182Y-63675000D02*
X119082746Y-63864436D01*
X120002114Y-63675000D02*
X119272182Y-63675000D01*
X117344658Y-63725000D02*
X116850000Y-63725000D01*
X120005848Y-63671266D02*
X120002114Y-63675000D01*
X119082746Y-63864436D02*
X117484094Y-63864436D01*
X117484094Y-63864436D02*
X117344658Y-63725000D01*
X116950000Y-64825000D02*
X116850000Y-64725000D01*
X120325000Y-64825000D02*
X116950000Y-64825000D01*
X119500000Y-64225000D02*
X116850000Y-64225000D01*
X117622476Y-63225000D02*
X116850000Y-63225000D01*
X117711912Y-63314436D02*
X117622476Y-63225000D01*
D44*
X103000000Y-61600000D02*
X104700000Y-59900000D01*
D43*
X110466551Y-57333449D02*
X110980761Y-57333449D01*
X110496016Y-58603984D02*
X110496016Y-57403984D01*
X110496016Y-57403984D02*
X111000000Y-56900000D01*
D44*
X103000000Y-62700000D02*
X103000000Y-61600000D01*
D43*
X107423196Y-60376804D02*
X110466551Y-57333449D01*
X110980761Y-57333449D02*
X112320100Y-55994110D01*
X106597938Y-60376804D02*
X107423196Y-60376804D01*
X107042080Y-70950000D02*
X108770000Y-72677920D01*
X105672182Y-71550000D02*
X106272182Y-70950000D01*
X101955000Y-69685000D02*
X103820000Y-71550000D01*
X106272182Y-70950000D02*
X107042080Y-70950000D01*
X103820000Y-71550000D02*
X105672182Y-71550000D01*
X103000000Y-64780000D02*
X101955000Y-65825000D01*
X101955000Y-65825000D02*
X101955000Y-69685000D01*
X108770000Y-72677920D02*
X108770000Y-74500000D01*
X115926322Y-34873678D02*
X116500000Y-34300000D01*
X115700000Y-61500000D02*
X116950000Y-61500000D01*
X108225000Y-63800000D02*
X108225000Y-64365000D01*
X117325000Y-68725000D02*
X117921178Y-69321178D01*
X105040000Y-68770002D02*
X105040000Y-67460000D01*
X122982500Y-34909386D02*
X122982500Y-34300000D01*
X125400000Y-36619998D02*
X125400000Y-36999997D01*
D44*
X106310000Y-71690000D02*
X106500000Y-71500000D01*
D43*
X105300000Y-69030002D02*
X105040000Y-68770002D01*
X117200000Y-69100000D02*
X117200000Y-69075000D01*
X116850000Y-68725000D02*
X117325000Y-68725000D01*
X108225000Y-63800000D02*
X108900000Y-63800000D01*
X109760000Y-36640000D02*
X109760000Y-34540000D01*
X108225000Y-64365000D02*
X108610000Y-64750000D01*
X115821178Y-61475880D02*
X115821178Y-60878822D01*
X109950000Y-64725000D02*
X109950000Y-65225000D01*
X123230492Y-35157378D02*
X122982500Y-34909386D01*
X108635000Y-64725000D02*
X109950000Y-64725000D01*
X115650000Y-61647058D02*
X115650000Y-62525000D01*
X108900000Y-63800000D02*
X109000000Y-63700000D01*
D44*
X105040000Y-65540000D02*
X104500000Y-65000000D01*
D43*
X109217342Y-34860001D02*
X109439999Y-34860001D01*
X115761029Y-61536029D02*
X115650000Y-61647058D01*
D44*
X106310000Y-73040000D02*
X106310000Y-71690000D01*
D43*
X123300000Y-36020000D02*
X123300000Y-35226886D01*
D44*
X115797058Y-61500000D02*
X115809158Y-61500000D01*
D43*
X109760000Y-34540000D02*
X110000000Y-34300000D01*
X125400000Y-36999997D02*
X125600003Y-37200000D01*
X109000000Y-63700000D02*
X109025000Y-63725000D01*
X115761029Y-61536029D02*
X115821178Y-61475880D01*
X116340000Y-34460000D02*
X116340000Y-36800000D01*
X109025000Y-63725000D02*
X109950000Y-63725000D01*
X123300000Y-35226886D02*
X123230492Y-35157378D01*
X115833585Y-34873678D02*
X115926322Y-34873678D01*
X109950000Y-65225000D02*
X109308832Y-65225000D01*
X117200000Y-69075000D02*
X116850000Y-68725000D01*
X115761029Y-61536029D02*
X115725000Y-61500000D01*
X117200000Y-70242356D02*
X117200000Y-69100000D01*
D44*
X105040000Y-67500000D02*
X105040000Y-65540000D01*
D43*
X116500000Y-34300000D02*
X116340000Y-34460000D01*
X109308832Y-65225000D02*
X109208832Y-65125000D01*
D44*
X115761029Y-61536029D02*
X115797058Y-61500000D01*
D43*
X115725000Y-61500000D02*
X115699999Y-61500000D01*
X109439999Y-34860001D02*
X110000000Y-34300000D01*
X109000000Y-67242746D02*
X109517746Y-66725000D01*
X109000000Y-67499997D02*
X109000000Y-67242746D01*
X109517746Y-66725000D02*
X109950000Y-66725000D01*
X119383355Y-59392949D02*
X119383355Y-59200099D01*
X111057769Y-70368320D02*
X111138934Y-70368320D01*
X111138934Y-70368320D02*
X111650000Y-69857254D01*
X111650000Y-69857254D02*
X111650000Y-69425000D01*
X118076304Y-60700000D02*
X119383355Y-59392949D01*
X117229006Y-60700000D02*
X118076304Y-60700000D01*
X108525000Y-66225000D02*
X109950000Y-66225000D01*
X108461029Y-66161029D02*
X108525000Y-66225000D01*
X109600000Y-70100000D02*
X109100000Y-69600000D01*
X107900000Y-67400000D02*
X108400000Y-67900000D01*
X109950000Y-65725000D02*
X108960303Y-65725000D01*
X109100000Y-69600000D02*
X109100000Y-69200000D01*
X108273529Y-65500000D02*
X107861029Y-65912500D01*
X107861029Y-65912500D02*
X107861029Y-66409558D01*
X108400000Y-68548529D02*
X109051471Y-69200000D01*
X111150000Y-69425000D02*
X110650000Y-69425000D01*
X108960303Y-65725000D02*
X108735303Y-65500000D01*
X107900000Y-66448529D02*
X107900000Y-67400000D01*
X107861029Y-66409558D02*
X107900000Y-66448529D01*
X109051471Y-69200000D02*
X109100000Y-69200000D01*
X110345000Y-70100000D02*
X109600000Y-70100000D01*
X110650000Y-69425000D02*
X110650000Y-69795000D01*
X108400000Y-67900000D02*
X108400000Y-68548529D01*
X110650000Y-69795000D02*
X110345000Y-70100000D01*
X108735303Y-65500000D02*
X108273529Y-65500000D01*
X105535000Y-43380000D02*
X105535000Y-44665000D01*
X119150000Y-47281436D02*
X119150000Y-42050000D01*
X113380761Y-52599998D02*
X113380761Y-51769239D01*
X113050000Y-51500000D02*
X112750000Y-51800000D01*
X120800000Y-40400000D02*
X120600000Y-40450000D01*
X119600000Y-54975000D02*
X120700000Y-56075000D01*
X119240606Y-47372042D02*
X119150000Y-47281436D01*
X120400000Y-39790606D02*
X120390606Y-39800000D01*
X122982500Y-33266029D02*
X122098529Y-34150000D01*
X113650000Y-51500000D02*
X113050000Y-51500000D01*
X120400000Y-35100000D02*
X120400000Y-36362500D01*
X119425000Y-51950000D02*
X119240606Y-51765606D01*
X122098529Y-34150000D02*
X121350000Y-34150000D01*
X121350000Y-34150000D02*
X120400000Y-35100000D01*
X122982500Y-32000000D02*
X122982500Y-33266029D01*
X119600000Y-52125000D02*
X119600000Y-54975000D01*
X119240606Y-51765606D02*
X119240606Y-47372042D01*
X119150000Y-42050000D02*
X119200000Y-42000000D01*
X119425000Y-51950000D02*
X119600000Y-52125000D01*
X115547697Y-58047697D02*
X115300000Y-57800000D01*
X112600000Y-60677092D02*
X113120751Y-61197843D01*
X113755641Y-58751697D02*
X112600000Y-59907338D01*
X115300000Y-57800000D02*
X115300000Y-56640558D01*
X112600000Y-59907338D02*
X112600000Y-60677092D01*
X113120751Y-61197843D02*
X113120751Y-62495751D01*
X115300000Y-56640558D02*
X115007106Y-56347664D01*
X115547697Y-58220000D02*
X115547697Y-58047697D01*
X107859442Y-49200000D02*
X112320100Y-53660658D01*
X103950000Y-46425000D02*
X106725000Y-49200000D01*
X106725000Y-49200000D02*
X107859442Y-49200000D01*
X111719581Y-55887523D02*
X110912477Y-55887523D01*
X111966547Y-55640557D02*
X111719581Y-55887523D01*
X110912477Y-55887523D02*
X109678752Y-57121248D01*
X116857718Y-54000000D02*
X116825483Y-53967765D01*
X115961179Y-53767245D02*
X115714213Y-54014211D01*
X117896016Y-53496016D02*
X117392032Y-54000000D01*
X116315774Y-53767245D02*
X115961179Y-53767245D01*
X116825483Y-53967765D02*
X116516294Y-53967765D01*
X117392032Y-54000000D02*
X116857718Y-54000000D01*
X116516294Y-53967765D02*
X116315774Y-53767245D01*
X118761300Y-55634716D02*
X118026748Y-56369268D01*
X118650000Y-47075000D02*
X118650000Y-53153984D01*
X118026748Y-56369268D02*
X117582262Y-56369268D01*
X116499998Y-55287004D02*
X116067766Y-55287003D01*
X118761300Y-53265284D02*
X118761300Y-55634716D01*
X118650000Y-53153984D02*
X118761300Y-53265284D01*
X116499998Y-55287004D02*
X117582262Y-56369268D01*
X116500000Y-32000000D02*
X116500000Y-33248529D01*
X115598529Y-34150000D02*
X114850000Y-34150000D01*
X115007106Y-53307105D02*
X115807105Y-52507105D01*
X115807105Y-52507105D02*
X115914211Y-52400000D01*
X115914210Y-52400000D02*
X115807105Y-52507105D01*
X112700000Y-42000000D02*
X111393841Y-43306159D01*
X116500000Y-33248529D02*
X115598529Y-34150000D01*
X116800000Y-52400000D02*
X115914210Y-52400000D01*
X111393841Y-43306159D02*
X111393841Y-44274838D01*
X113890606Y-35109394D02*
X113890606Y-36362500D01*
X115914211Y-52400000D02*
X116812994Y-52400000D01*
X114850000Y-34150000D02*
X113890606Y-35109394D01*
X115360660Y-55994110D02*
X115805345Y-56438795D01*
X115805345Y-56438795D02*
X115805345Y-57405345D01*
X115805345Y-57405345D02*
X116439376Y-58039376D01*
X114450000Y-52449997D02*
X114450000Y-51076304D01*
X114299999Y-52599998D02*
X114450000Y-52449997D01*
X105825000Y-46075000D02*
X105500000Y-46400000D01*
X113341938Y-46075000D02*
X105825000Y-46075000D01*
X114098696Y-46831758D02*
X113341938Y-46075000D01*
X114450000Y-51076304D02*
X114098696Y-50725000D01*
X114098696Y-50725000D02*
X114098696Y-46831758D01*
X114150000Y-62092746D02*
X114050000Y-61992746D01*
X114355641Y-59848753D02*
X114355641Y-58503168D01*
X114050000Y-61992746D02*
X114050000Y-60995099D01*
X114355641Y-58503168D02*
X114200000Y-58347527D01*
X114050000Y-60995099D02*
X113800000Y-60745099D01*
X114200000Y-58347527D02*
X114200000Y-57100000D01*
X113800000Y-60404394D02*
X114355641Y-59848753D01*
X113800000Y-60745099D02*
X113800000Y-60404394D01*
X114200000Y-57100000D02*
X114325648Y-56974352D01*
X114150000Y-62525000D02*
X114150000Y-62092746D01*
X110000000Y-33248529D02*
X109048529Y-34200000D01*
X117096016Y-54803984D02*
X116659797Y-54367765D01*
X107750000Y-40400000D02*
X107550000Y-40450000D01*
X107400000Y-35050000D02*
X107400000Y-36375000D01*
X117796016Y-55503984D02*
X117096016Y-54803984D01*
X106100000Y-42050000D02*
X106150000Y-42000000D01*
X107350000Y-40400000D02*
X107150000Y-40450000D01*
X108250000Y-34200000D02*
X107400000Y-35050000D01*
X116659797Y-54367765D02*
X116067766Y-54367765D01*
X109048529Y-34200000D02*
X108250000Y-34200000D01*
X110000000Y-32000000D02*
X110000000Y-33248529D01*
X113380761Y-58098529D02*
X113380761Y-57054770D01*
X115650000Y-69857254D02*
X115650000Y-69425000D01*
X113180761Y-58579901D02*
X113180761Y-58298529D01*
X112520751Y-61446372D02*
X112100000Y-61025621D01*
X113180761Y-58298529D02*
X113380761Y-58098529D01*
X112100000Y-59660662D02*
X113180761Y-58579901D01*
X114907254Y-70600000D02*
X115650000Y-69857254D01*
X112100000Y-61025621D02*
X112100000Y-59660662D01*
X114725000Y-70600000D02*
X114907254Y-70600000D01*
X117150000Y-34300000D02*
X117150000Y-35570000D01*
X117300000Y-36180000D02*
X116920000Y-35800000D01*
X108800000Y-55640000D02*
X108280000Y-55120000D01*
X117150000Y-33250000D02*
X117100000Y-33200000D01*
X118600000Y-71800000D02*
X118900000Y-71800000D01*
X103780000Y-69010002D02*
X103800000Y-69030002D01*
X123300000Y-36980000D02*
X123300000Y-37600000D01*
X116500000Y-59070710D02*
X116500000Y-60200000D01*
X116935891Y-58985357D02*
X117160624Y-58760624D01*
X125700000Y-32220000D02*
X125700000Y-31400000D01*
X110340000Y-35700000D02*
X110650000Y-35390000D01*
X110650000Y-34300000D02*
X110650000Y-33200000D01*
X108800000Y-56400000D02*
X108800000Y-55640000D01*
X117300000Y-36800000D02*
X117300000Y-36180000D01*
X109048909Y-59730000D02*
X108628909Y-60150000D01*
X111287003Y-55287003D02*
X111100000Y-55100000D01*
X107265000Y-63800000D02*
X107265000Y-62374783D01*
X110880000Y-36240000D02*
X110340000Y-35700000D01*
X116585353Y-58985357D02*
X116500000Y-59070710D01*
X124400000Y-36600000D02*
X124400000Y-37200000D01*
X103780000Y-67460000D02*
X103780000Y-69010002D01*
X107265000Y-62374783D02*
X107100219Y-62210002D01*
X117150000Y-35570000D02*
X116920000Y-35800000D01*
X117150000Y-34300000D02*
X117150000Y-33250000D01*
X118600000Y-70000000D02*
X118600000Y-70575000D01*
X109903984Y-55603984D02*
X109000000Y-54700000D01*
X116585353Y-58985357D02*
X116935891Y-58985357D01*
X118217194Y-71417194D02*
X118600000Y-71800000D01*
X115084314Y-33150000D02*
X114250000Y-33150000D01*
X123632500Y-33432500D02*
X123600000Y-33400000D01*
X110880000Y-36800000D02*
X110880000Y-36240000D01*
X108584314Y-33100000D02*
X107750000Y-33100000D01*
X110650000Y-35390000D02*
X110650000Y-34300000D01*
X123632500Y-34300000D02*
X123632500Y-33432500D01*
X118600000Y-70575000D02*
X118900000Y-70875000D01*
X111612994Y-55287003D02*
X111287003Y-55287003D01*
X113027207Y-56701217D02*
X112180761Y-57547663D01*
X111300000Y-61742746D02*
X111650000Y-62092746D01*
X112180761Y-58448529D02*
X111300000Y-59329290D01*
X111650000Y-62092746D02*
X111650000Y-62525000D01*
X112180761Y-57547663D02*
X112180761Y-58448529D01*
X111300000Y-59329290D02*
X111300000Y-61742746D01*
X113100000Y-60255865D02*
X113100000Y-60610785D01*
X113755641Y-59600224D02*
X113100000Y-60255865D01*
X113650000Y-61160785D02*
X113650000Y-62525000D01*
X114905640Y-58653521D02*
X114900519Y-58648400D01*
X114900519Y-58648400D02*
X114900519Y-56948183D01*
X114900519Y-56948183D02*
X114653553Y-56701217D01*
X113100000Y-60610785D02*
X113650000Y-61160785D01*
X117665284Y-47765284D02*
X116750000Y-46850000D01*
X117665284Y-52666088D02*
X117665284Y-47765284D01*
X115360660Y-53660658D02*
X115654073Y-53367245D01*
X115654073Y-53367245D02*
X116964127Y-53367245D01*
X116964127Y-53367245D02*
X117665284Y-52666088D01*
X116750000Y-46850000D02*
X115550000Y-46850000D01*
X113000000Y-46850000D02*
X112200000Y-47650000D01*
X112200000Y-47650000D02*
X112200000Y-52100000D01*
X112200000Y-52100000D02*
X112186828Y-52113172D01*
X112186828Y-52113172D02*
X113027207Y-52953551D01*
X115753553Y-55640558D02*
X116440380Y-56327385D01*
X115714212Y-55640558D02*
X115753553Y-55640558D01*
X112150000Y-62027060D02*
X112150000Y-62525000D01*
X112780761Y-58414215D02*
X111700000Y-59494976D01*
X111700000Y-59494976D02*
X111700000Y-61577060D01*
X111700000Y-61577060D02*
X112150000Y-62027060D01*
X112780761Y-57850000D02*
X112780761Y-58414215D01*
X111580761Y-57440557D02*
X112673654Y-56347664D01*
X111580761Y-57700000D02*
X111580761Y-57440557D01*
X112673654Y-53307104D02*
X110400000Y-51033450D01*
X110400000Y-51033450D02*
X110400000Y-46725000D01*
X115200000Y-52407104D02*
X115200000Y-51500000D01*
X114653553Y-52953551D02*
X115200000Y-52407104D01*
X112150000Y-70700000D02*
X111600000Y-71250000D01*
X124282500Y-32000000D02*
X124282500Y-31292500D01*
X124282500Y-31292500D02*
X124700000Y-30875000D01*
X112150000Y-69425000D02*
X112150000Y-70700000D01*
X124400000Y-34417500D02*
X124282500Y-34300000D01*
X124282500Y-34300000D02*
X124282500Y-33517503D01*
X125480000Y-33400000D02*
X125700000Y-33180000D01*
X125400000Y-35600000D02*
X124419998Y-35600000D01*
X111300000Y-33900000D02*
X111300000Y-33021708D01*
X117800000Y-33005812D02*
X117858908Y-32946904D01*
X111300000Y-33021708D02*
X111400026Y-32921682D01*
X124400003Y-33400000D02*
X125480000Y-33400000D01*
X117880000Y-35800000D02*
X117880000Y-34380000D01*
X117800000Y-34300000D02*
X117800000Y-33005812D01*
X111300000Y-34300000D02*
X111300000Y-33900000D01*
X124400000Y-35580002D02*
X124400000Y-34417500D01*
X124282500Y-33517503D02*
X124400003Y-33400000D01*
X111300000Y-35700000D02*
X111300000Y-33900000D01*
X117800000Y-31529630D02*
X117838095Y-31491535D01*
X117800000Y-32000000D02*
X117800000Y-31529630D01*
X109075000Y-68225000D02*
X109950000Y-68225000D01*
X109000000Y-68300000D02*
X109075000Y-68225000D01*
X110650000Y-62525000D02*
X110525000Y-62525000D01*
X111300000Y-32000000D02*
X111300000Y-31400000D01*
X111300000Y-31400000D02*
X111400000Y-31300000D01*
X110525000Y-62525000D02*
X109600000Y-61600000D01*
X107139991Y-70039991D02*
X107111479Y-70039991D01*
X107680197Y-70688623D02*
X107680197Y-70580197D01*
X107111479Y-70039991D02*
X106735847Y-69664359D01*
X119151922Y-69448981D02*
X119194494Y-69448981D01*
X102581473Y-69630002D02*
X102500000Y-69548529D01*
X104991713Y-69664359D02*
X104919022Y-69591668D01*
X104048529Y-69630002D02*
X102581473Y-69630002D01*
X106735847Y-69664359D02*
X104991713Y-69664359D01*
X107680197Y-70580197D02*
X107139991Y-70039991D01*
X117927941Y-68225000D02*
X119151922Y-69448981D01*
X116850000Y-68225000D02*
X117927941Y-68225000D01*
X104086863Y-69591668D02*
X104048529Y-69630002D01*
X104919022Y-69591668D02*
X104086863Y-69591668D01*
X102500000Y-69548529D02*
X102500000Y-67460000D01*
X117981496Y-66225000D02*
X118065748Y-66309252D01*
X116850000Y-66225000D02*
X117981496Y-66225000D01*
X118628678Y-67650000D02*
X119075000Y-67650000D01*
X118203678Y-67225000D02*
X118628678Y-67650000D01*
X116850000Y-67225000D02*
X118203678Y-67225000D01*
X115150000Y-62525000D02*
X115150000Y-62075000D01*
X115125000Y-60249013D02*
X115377657Y-59996356D01*
X115125000Y-62050000D02*
X115125000Y-60249013D01*
X115150000Y-62075000D02*
X115125000Y-62050000D01*
X115377657Y-59996356D02*
X115660500Y-59996356D01*
X117996570Y-67725000D02*
X116850000Y-67725000D01*
X119063235Y-68511765D02*
X118783335Y-68511765D01*
X107725000Y-68200000D02*
X106985000Y-67460000D01*
X118783335Y-68511765D02*
X117996570Y-67725000D01*
X106985000Y-67460000D02*
X106310000Y-67460000D01*
X114650000Y-62525000D02*
X114650000Y-62075000D01*
X114675000Y-62050000D02*
X114675000Y-60062615D01*
X114675000Y-60062615D02*
X115059458Y-59678157D01*
X114650000Y-62075000D02*
X114675000Y-62050000D01*
X115059458Y-59678157D02*
X115059458Y-59395314D01*
X103780000Y-73000000D02*
X103780000Y-74519999D01*
X105040000Y-73000000D02*
X105040000Y-74690000D01*
X104250000Y-44475000D02*
X103950000Y-44775000D01*
X104250000Y-43800000D02*
X104250000Y-44475000D01*
X115400000Y-44500000D02*
X114600000Y-43700000D01*
X114600000Y-43700000D02*
X112200000Y-43700000D01*
X115400000Y-45200000D02*
X115400000Y-44500000D01*
X112200000Y-43700000D02*
X112100000Y-43600000D01*
X110750000Y-43800000D02*
X110750000Y-44675000D01*
X110750000Y-44675000D02*
X110400000Y-45025000D01*
X103000000Y-71700000D02*
X103000000Y-72500000D01*
X103000000Y-72500000D02*
X102500000Y-73000000D01*
X118290606Y-44000000D02*
X118290606Y-45065606D01*
X117490606Y-44709394D02*
X117490606Y-44000000D01*
X116350000Y-45850000D02*
X117490606Y-44709394D01*
X114383062Y-45300000D02*
X114933062Y-45850000D01*
X113100000Y-45300000D02*
X114383062Y-45300000D01*
X114933062Y-45850000D02*
X116350000Y-45850000D01*
X113150000Y-70250000D02*
X113000000Y-70400000D01*
X113150000Y-69425000D02*
X113150000Y-70250000D01*
X120400000Y-31300000D02*
X120400000Y-30437500D01*
X123532500Y-31300000D02*
X120400000Y-31300000D01*
X123632500Y-31400000D02*
X123532500Y-31300000D01*
X123632500Y-32000000D02*
X123632500Y-31400000D01*
X113890606Y-31290606D02*
X113890606Y-30437500D01*
X117150000Y-32000000D02*
X117150000Y-31400000D01*
X113900000Y-31300000D02*
X113890606Y-31290606D01*
X117050000Y-31300000D02*
X113900000Y-31300000D01*
X117150000Y-31400000D02*
X117050000Y-31300000D01*
X110500000Y-31300000D02*
X107400000Y-31300000D01*
X107400000Y-31300000D02*
X107400000Y-30450000D01*
X110650000Y-31450000D02*
X110500000Y-31300000D01*
X110650000Y-32000000D02*
X110650000Y-31450000D01*
G04 #@! TA.AperFunction,Conductor*
G36*
X129006061Y-45000597D02*
G01*
X129182941Y-45018018D01*
X129206769Y-45022757D01*
X129370997Y-45072575D01*
X129393452Y-45081876D01*
X129433953Y-45103524D01*
X129483797Y-45152485D01*
X129499500Y-45212882D01*
X129499500Y-73912286D01*
X129499499Y-73912304D01*
X129499499Y-73981364D01*
X129499183Y-73990209D01*
X129484871Y-74190346D01*
X129482353Y-74207859D01*
X129440647Y-74399582D01*
X129435663Y-74416557D01*
X129367093Y-74600402D01*
X129359743Y-74616495D01*
X129265711Y-74788704D01*
X129256149Y-74803583D01*
X129138567Y-74960655D01*
X129126982Y-74974026D01*
X128988237Y-75112772D01*
X128974866Y-75124358D01*
X128817791Y-75241944D01*
X128802907Y-75251509D01*
X128630703Y-75345540D01*
X128614610Y-75352890D01*
X128430765Y-75421461D01*
X128413789Y-75426445D01*
X128222068Y-75468151D01*
X128204557Y-75470669D01*
X128021668Y-75483750D01*
X128004613Y-75484970D01*
X127995768Y-75485286D01*
X123116280Y-75485286D01*
X123049241Y-75465601D01*
X123006793Y-75419497D01*
X122984220Y-75377040D01*
X122974952Y-75354513D01*
X122974464Y-75352890D01*
X122925466Y-75189824D01*
X122920782Y-75165921D01*
X122915709Y-75112772D01*
X122903860Y-74988620D01*
X122903301Y-74976466D01*
X122904214Y-74693546D01*
X122908944Y-74660031D01*
X122935436Y-74566923D01*
X122955537Y-74350000D01*
X122935436Y-74133077D01*
X122911140Y-74047686D01*
X122906408Y-74013356D01*
X122914466Y-71515437D01*
X122926081Y-71463442D01*
X123023903Y-71253663D01*
X123085063Y-71025408D01*
X123105659Y-70790000D01*
X123085063Y-70554592D01*
X123023903Y-70326337D01*
X122930732Y-70126532D01*
X122919116Y-70073736D01*
X122922716Y-68957746D01*
X122934333Y-68905746D01*
X122936163Y-68901819D01*
X123023903Y-68713663D01*
X123085063Y-68485408D01*
X123105659Y-68250000D01*
X123085063Y-68014592D01*
X123023903Y-67786337D01*
X122938868Y-67603982D01*
X122927254Y-67551187D01*
X122930967Y-66400047D01*
X122942580Y-66348058D01*
X123023903Y-66173663D01*
X123085063Y-65945408D01*
X123105659Y-65710000D01*
X123085063Y-65474592D01*
X123023903Y-65246337D01*
X122947007Y-65081435D01*
X122935391Y-65028634D01*
X122937272Y-64445497D01*
X122957172Y-64378524D01*
X122961989Y-64371610D01*
X123043796Y-64262331D01*
X123094091Y-64127483D01*
X123100500Y-64067873D01*
X123100499Y-62272128D01*
X123094091Y-62212517D01*
X123043796Y-62077669D01*
X122970199Y-61979357D01*
X122945783Y-61913894D01*
X122945468Y-61904674D01*
X122952175Y-59825703D01*
X122957511Y-59790125D01*
X122986024Y-59696132D01*
X123005341Y-59500000D01*
X122986024Y-59303868D01*
X122959594Y-59216743D01*
X122954257Y-59180355D01*
X122955435Y-58814956D01*
X122960772Y-58779375D01*
X122986024Y-58696132D01*
X123005341Y-58500000D01*
X122986024Y-58303868D01*
X122962787Y-58227266D01*
X122957448Y-58190876D01*
X122958696Y-57804207D01*
X122964032Y-57768627D01*
X122986024Y-57696132D01*
X123005341Y-57500000D01*
X122986024Y-57303868D01*
X122986024Y-57303866D01*
X122976306Y-57271834D01*
X122965978Y-57237786D01*
X122960640Y-57201399D01*
X122961956Y-56793460D01*
X122967293Y-56757877D01*
X122986024Y-56696132D01*
X123005341Y-56500000D01*
X122986024Y-56303868D01*
X122969169Y-56248308D01*
X122963832Y-56211927D01*
X122965217Y-55782710D01*
X122970553Y-55747132D01*
X122986024Y-55696132D01*
X123005341Y-55500000D01*
X122986024Y-55303868D01*
X122986024Y-55303866D01*
X122972363Y-55258835D01*
X122967024Y-55222442D01*
X122996765Y-46002852D01*
X122997398Y-45990733D01*
X123015318Y-45814255D01*
X123020114Y-45790497D01*
X123070262Y-45626725D01*
X123079592Y-45604355D01*
X123160665Y-45453485D01*
X123174176Y-45433352D01*
X123283066Y-45301159D01*
X123300245Y-45284036D01*
X123432792Y-45175569D01*
X123452960Y-45162129D01*
X123604093Y-45081542D01*
X123626499Y-45072283D01*
X123790431Y-45022663D01*
X123814203Y-45017944D01*
X123990725Y-45000594D01*
X124002854Y-45000000D01*
X128993907Y-45000000D01*
X129006061Y-45000597D01*
G37*
G04 #@! TD.AperFunction*
G04 #@! TA.AperFunction,Conductor*
G36*
X123366666Y-26512589D02*
G01*
X123433693Y-26532303D01*
X123479424Y-26585128D01*
X123490606Y-26636588D01*
X123490606Y-30976000D01*
X123470921Y-31043039D01*
X123418117Y-31088794D01*
X123366606Y-31100000D01*
X123241667Y-31100000D01*
X123233688Y-31099572D01*
X123233683Y-31099678D01*
X123230379Y-31099500D01*
X123230373Y-31099500D01*
X123230366Y-31099500D01*
X122734629Y-31099500D01*
X122731305Y-31099679D01*
X122731299Y-31099573D01*
X122723337Y-31100000D01*
X118606018Y-31100000D01*
X118538979Y-31080315D01*
X118501024Y-31041972D01*
X118467910Y-30989272D01*
X118340357Y-30861719D01*
X118187618Y-30765746D01*
X118017349Y-30706166D01*
X118017344Y-30706165D01*
X117838099Y-30685970D01*
X117838091Y-30685970D01*
X117658845Y-30706165D01*
X117652048Y-30707717D01*
X117651627Y-30705873D01*
X117591261Y-30708945D01*
X117530640Y-30674206D01*
X117498423Y-30612207D01*
X117496106Y-30588347D01*
X117496106Y-26633953D01*
X117515791Y-26566914D01*
X117568595Y-26521159D01*
X117620159Y-26509953D01*
X123366666Y-26512589D01*
G37*
G04 #@! TD.AperFunction*
G04 #@! TA.AperFunction,Conductor*
G36*
X116866663Y-26509609D02*
G01*
X116933693Y-26529324D01*
X116979424Y-26582149D01*
X116990606Y-26633609D01*
X116990606Y-30976000D01*
X116970921Y-31043039D01*
X116918117Y-31088794D01*
X116866606Y-31100000D01*
X116759167Y-31100000D01*
X116751188Y-31099572D01*
X116751183Y-31099678D01*
X116747879Y-31099500D01*
X116747873Y-31099500D01*
X116747866Y-31099500D01*
X116252129Y-31099500D01*
X116248805Y-31099679D01*
X116248799Y-31099573D01*
X116240837Y-31100000D01*
X112266092Y-31100000D01*
X112199053Y-31080315D01*
X112153298Y-31027511D01*
X112149050Y-31016954D01*
X112125789Y-30950478D01*
X112029815Y-30797737D01*
X111902262Y-30670184D01*
X111749523Y-30574211D01*
X111579254Y-30514631D01*
X111579249Y-30514630D01*
X111400004Y-30494435D01*
X111399996Y-30494435D01*
X111220750Y-30514630D01*
X111220745Y-30514631D01*
X111120455Y-30549725D01*
X111050676Y-30553286D01*
X110990048Y-30518557D01*
X110957821Y-30456564D01*
X110955500Y-30432683D01*
X110955500Y-26630955D01*
X110975185Y-26563916D01*
X111027989Y-26518161D01*
X111079553Y-26506955D01*
X116866663Y-26509609D01*
G37*
G04 #@! TD.AperFunction*
G04 #@! TA.AperFunction,Conductor*
G36*
X110326058Y-26506610D02*
G01*
X110393087Y-26526325D01*
X110438818Y-26579150D01*
X110450000Y-26630610D01*
X110450000Y-30976000D01*
X110430315Y-31043039D01*
X110377511Y-31088794D01*
X110326000Y-31100000D01*
X110259167Y-31100000D01*
X110251188Y-31099572D01*
X110251183Y-31099678D01*
X110247879Y-31099500D01*
X110247873Y-31099500D01*
X110247866Y-31099500D01*
X109752129Y-31099500D01*
X109748805Y-31099679D01*
X109748799Y-31099573D01*
X109740837Y-31100000D01*
X104374000Y-31100000D01*
X104306961Y-31080315D01*
X104261206Y-31027511D01*
X104250000Y-30976000D01*
X104250000Y-26627880D01*
X104269685Y-26560841D01*
X104322489Y-26515086D01*
X104374050Y-26503881D01*
X110326058Y-26506610D01*
G37*
G04 #@! TD.AperFunction*
G04 #@! TA.AperFunction,Conductor*
G36*
X122233645Y-35619685D02*
G01*
X122279400Y-35672489D01*
X122290606Y-35724000D01*
X122290606Y-42476000D01*
X122270921Y-42543039D01*
X122218117Y-42588794D01*
X122166606Y-42600000D01*
X118614606Y-42600000D01*
X118547567Y-42580315D01*
X118501812Y-42527511D01*
X118490606Y-42476000D01*
X118490606Y-36456560D01*
X118510291Y-36389521D01*
X118526930Y-36368874D01*
X118530114Y-36365690D01*
X118530117Y-36365687D01*
X118612494Y-36226395D01*
X118657643Y-36070993D01*
X118660500Y-36034690D01*
X118660500Y-35724000D01*
X118680185Y-35656961D01*
X118732989Y-35611206D01*
X118784500Y-35600000D01*
X122166606Y-35600000D01*
X122233645Y-35619685D01*
G37*
G04 #@! TD.AperFunction*
G04 #@! TA.AperFunction,Conductor*
G36*
X115682539Y-35719685D02*
G01*
X115728294Y-35772489D01*
X115739500Y-35824000D01*
X115739500Y-36133333D01*
X115719815Y-36200372D01*
X115703181Y-36221014D01*
X115689887Y-36234307D01*
X115689881Y-36234315D01*
X115607505Y-36373606D01*
X115607504Y-36373609D01*
X115562357Y-36529002D01*
X115562356Y-36529008D01*
X115559500Y-36565302D01*
X115559500Y-37034697D01*
X115562356Y-37070991D01*
X115562357Y-37070997D01*
X115607504Y-37226390D01*
X115607505Y-37226393D01*
X115607506Y-37226395D01*
X115689883Y-37365687D01*
X115754288Y-37430092D01*
X115787772Y-37491413D01*
X115790606Y-37517772D01*
X115790606Y-42476000D01*
X115770921Y-42543039D01*
X115718117Y-42588794D01*
X115666606Y-42600000D01*
X112114606Y-42600000D01*
X112047567Y-42580315D01*
X112001812Y-42527511D01*
X111990606Y-42476000D01*
X111990606Y-36231146D01*
X112007873Y-36168026D01*
X112032494Y-36126395D01*
X112077643Y-35970993D01*
X112080500Y-35934690D01*
X112080500Y-35824000D01*
X112100185Y-35756961D01*
X112152989Y-35711206D01*
X112204500Y-35700000D01*
X115615500Y-35700000D01*
X115682539Y-35719685D01*
G37*
G04 #@! TD.AperFunction*
G04 #@! TA.AperFunction,Conductor*
G36*
X109102539Y-35719685D02*
G01*
X109148294Y-35772489D01*
X109159500Y-35824000D01*
X109159500Y-36452353D01*
X109154576Y-36486948D01*
X109142357Y-36529002D01*
X109142356Y-36529008D01*
X109139500Y-36565302D01*
X109139500Y-37034697D01*
X109142356Y-37070991D01*
X109142357Y-37070997D01*
X109187504Y-37226390D01*
X109187505Y-37226393D01*
X109269881Y-37365684D01*
X109269887Y-37365692D01*
X109278734Y-37374539D01*
X109312219Y-37435862D01*
X109315040Y-37464017D01*
X109242377Y-42477797D01*
X109221723Y-42544544D01*
X109168262Y-42589529D01*
X109118390Y-42600000D01*
X105750665Y-42600000D01*
X105721310Y-42595012D01*
X105721044Y-42596181D01*
X105714253Y-42594631D01*
X105552862Y-42576447D01*
X105488448Y-42549381D01*
X105448892Y-42491786D01*
X105442759Y-42451437D01*
X105538835Y-35822203D01*
X105559489Y-35755456D01*
X105612950Y-35710471D01*
X105662822Y-35700000D01*
X109035500Y-35700000D01*
X109102539Y-35719685D01*
G37*
G04 #@! TD.AperFunction*
M02*
