G04 #@! TF.GenerationSoftware,KiCad,Pcbnew,8.0.4*
G04 #@! TF.CreationDate,2024-09-18T18:28:33+10:00*
G04 #@! TF.ProjectId,ESC,4553432e-6b69-4636-9164-5f7063625858,rev?*
G04 #@! TF.SameCoordinates,Original*
G04 #@! TF.FileFunction,Copper,L4,Inr*
G04 #@! TF.FilePolarity,Positive*
%FSLAX46Y46*%
G04 Gerber Fmt 4.6, Leading zero omitted, Abs format (unit mm)*
G04 Created by KiCad (PCBNEW 8.0.4) date 2024-09-18 18:28:33*
%MOMM*%
%LPD*%
G01*
G04 APERTURE LIST*
G04 #@! TA.AperFunction,ComponentPad*
%ADD10R,1.700000X1.700000*%
G04 #@! TD*
G04 #@! TA.AperFunction,ComponentPad*
%ADD11O,1.700000X1.700000*%
G04 #@! TD*
G04 #@! TA.AperFunction,ComponentPad*
%ADD12R,1.350000X1.350000*%
G04 #@! TD*
G04 #@! TA.AperFunction,ComponentPad*
%ADD13O,1.350000X1.350000*%
G04 #@! TD*
G04 #@! TA.AperFunction,ViaPad*
%ADD14C,0.600000*%
G04 #@! TD*
G04 #@! TA.AperFunction,ViaPad*
%ADD15C,1.000000*%
G04 #@! TD*
G04 #@! TA.AperFunction,Conductor*
%ADD16C,0.200000*%
G04 #@! TD*
G04 APERTURE END LIST*
D10*
X121750000Y-63170000D03*
D11*
X121750000Y-65710000D03*
X121750000Y-68250000D03*
X121750000Y-70790000D03*
D10*
X128125000Y-39900000D03*
D11*
X128125000Y-37360000D03*
X128125000Y-34820000D03*
X128125000Y-32280000D03*
X128125000Y-29740000D03*
D10*
X116390000Y-74500000D03*
D11*
X113850000Y-74500000D03*
X111310001Y-74500000D03*
X108770000Y-74500000D03*
D12*
X103475000Y-74750000D03*
D13*
X105475001Y-74750000D03*
D12*
X119775000Y-74350000D03*
D13*
X121775001Y-74350000D03*
D14*
X120005848Y-63671266D03*
X120742897Y-63025000D03*
X117711912Y-63314436D03*
X106597938Y-60376804D03*
D15*
X104700000Y-59900000D03*
D14*
X117200000Y-69100000D03*
X120265000Y-60800000D03*
X109208832Y-65125000D03*
X106500000Y-71500000D03*
D15*
X108100000Y-58100000D03*
X107760445Y-56760445D03*
D14*
X109000000Y-63700000D03*
X115833585Y-34873678D03*
X125600003Y-37200000D03*
X115761029Y-61536029D03*
X109900000Y-69500000D03*
X109217342Y-34860001D03*
X104500000Y-65000000D03*
X104800000Y-71000000D03*
D15*
X107100000Y-58100000D03*
D14*
X123230492Y-35157378D03*
X105300000Y-69030002D03*
X118625000Y-63125000D03*
X109000000Y-67499997D03*
X120183356Y-59201882D03*
X117229006Y-60700000D03*
X119383355Y-59200099D03*
X111057769Y-70368320D03*
X108461029Y-66161029D03*
X118355000Y-58921556D03*
X117925000Y-59873189D03*
X109100000Y-69200000D03*
X105535000Y-43380000D03*
D15*
X119200000Y-40400000D03*
X120000000Y-42000000D03*
X120000000Y-41200000D03*
X120800000Y-42000000D03*
X121600000Y-42000000D03*
X119200000Y-41200000D03*
X121600000Y-40400000D03*
X119200000Y-42000000D03*
X120800000Y-40400000D03*
D14*
X120700000Y-56075000D03*
D15*
X121600000Y-41200000D03*
D14*
X112750000Y-51800000D03*
X119425000Y-51950000D03*
D15*
X120800000Y-41200000D03*
X120000000Y-40400000D03*
X127650000Y-47150000D03*
X127650000Y-53150000D03*
X126650000Y-55150000D03*
X126650000Y-67150000D03*
X127650000Y-61150000D03*
D14*
X127000000Y-69500000D03*
X127000000Y-73500000D03*
D15*
X125650000Y-61150000D03*
D14*
X127000000Y-74500000D03*
D15*
X125650000Y-49150000D03*
X125650000Y-63150000D03*
X125650000Y-55150000D03*
X127650000Y-59150000D03*
D14*
X124600000Y-69500000D03*
D15*
X127650000Y-49150000D03*
X127650000Y-51150000D03*
D14*
X128600000Y-72500000D03*
D15*
X125650000Y-65150000D03*
D14*
X125400000Y-70500000D03*
D15*
X125650000Y-47150000D03*
X125650000Y-67150000D03*
D14*
X127000000Y-71500000D03*
X127800000Y-73500000D03*
X128600000Y-70500000D03*
X125400000Y-72500000D03*
D15*
X126650000Y-57150000D03*
X125650000Y-57150000D03*
D14*
X126200000Y-71500000D03*
D15*
X126650000Y-47150000D03*
X125650000Y-53150000D03*
X127650000Y-57150000D03*
X125650000Y-51150000D03*
X126650000Y-53150000D03*
D14*
X127800000Y-71500000D03*
X128600000Y-69500000D03*
X125400000Y-73500000D03*
X124600000Y-72500000D03*
X124600000Y-70500000D03*
D15*
X126650000Y-63150000D03*
D14*
X126200000Y-72500000D03*
X125400000Y-69500000D03*
D15*
X127650000Y-67150000D03*
X126650000Y-49150000D03*
D14*
X126200000Y-73500000D03*
X127800000Y-74500000D03*
D15*
X126650000Y-51150000D03*
X127650000Y-63150000D03*
D14*
X124600000Y-74500000D03*
X127800000Y-69500000D03*
X127800000Y-72500000D03*
D15*
X127650000Y-65150000D03*
D14*
X124600000Y-71500000D03*
X124600000Y-73500000D03*
D15*
X126650000Y-59150000D03*
D14*
X125400000Y-71500000D03*
X126200000Y-69500000D03*
D15*
X127650000Y-55150000D03*
D14*
X127800000Y-70500000D03*
X125400000Y-74500000D03*
X127000000Y-72500000D03*
X128600000Y-73500000D03*
X128600000Y-71500000D03*
D15*
X126650000Y-61150000D03*
X126650000Y-65150000D03*
D14*
X128600000Y-74500000D03*
X126200000Y-74500000D03*
X127000000Y-70500000D03*
D15*
X125650000Y-59150000D03*
D14*
X126200000Y-70500000D03*
X115547697Y-58220000D03*
X113755641Y-58751697D03*
X119155000Y-56772505D03*
D15*
X114300000Y-42000000D03*
D14*
X111393841Y-44274838D03*
D15*
X115100000Y-40400000D03*
X114300000Y-40400000D03*
X112700000Y-40400000D03*
X112700000Y-42000000D03*
X115100000Y-41200000D03*
D14*
X115807105Y-52507105D03*
D15*
X113500000Y-40400000D03*
X115100000Y-42000000D03*
X114300000Y-41200000D03*
X113500000Y-41200000D03*
X112700000Y-41200000D03*
X113500000Y-42000000D03*
X106950000Y-41200000D03*
X107750000Y-40400000D03*
D14*
X117096016Y-54803984D03*
D15*
X106950000Y-40400000D03*
X106150000Y-41200000D03*
X106950000Y-42000000D03*
D14*
X117483299Y-57331354D03*
D15*
X106150000Y-40400000D03*
X108550000Y-40400000D03*
X108550000Y-41200000D03*
X107750000Y-41200000D03*
X106150000Y-42000000D03*
X107750000Y-42000000D03*
X108550000Y-42000000D03*
D14*
X112520751Y-61446372D03*
X114725000Y-70600000D03*
X109000000Y-54700000D03*
X99100000Y-63000000D03*
X100500000Y-71000000D03*
X104900000Y-53700000D03*
X100000000Y-52000000D03*
X98000000Y-63000000D03*
D15*
X122075000Y-32200000D03*
D14*
X99000000Y-70000000D03*
X114600000Y-33100000D03*
X125700000Y-31400000D03*
X123600000Y-33400000D03*
X99000000Y-74000000D03*
X116585353Y-58985357D03*
X99750000Y-70000000D03*
X126200000Y-43500000D03*
X98250000Y-74000000D03*
D15*
X122000000Y-57500000D03*
X101500000Y-42500000D03*
D14*
X118900000Y-70875000D03*
X110650000Y-33200000D03*
X114000000Y-33100000D03*
X108628909Y-60150000D03*
X112575735Y-65150735D03*
X108400000Y-61300000D03*
X99750000Y-72000000D03*
X125300000Y-43500000D03*
D15*
X122000000Y-58500000D03*
D14*
X110881052Y-64570420D03*
X99750000Y-75000000D03*
D15*
X103000000Y-34000000D03*
D14*
X97500000Y-71000000D03*
X97500000Y-70000000D03*
X124300000Y-43500000D03*
X110598138Y-61577104D03*
D15*
X114250000Y-32250000D03*
X103000000Y-38500000D03*
D14*
X124400000Y-37200000D03*
X123300000Y-37600000D03*
X100500000Y-70000000D03*
X99100000Y-64500000D03*
X97500000Y-74000000D03*
X99000000Y-72000000D03*
X100200000Y-62200000D03*
D15*
X108000000Y-32250000D03*
D14*
X97500000Y-75000000D03*
X98250000Y-71000000D03*
D15*
X113000000Y-32250000D03*
D14*
X96750000Y-73000000D03*
D15*
X101500000Y-37000000D03*
D14*
X108280000Y-55120000D03*
X96750000Y-75000000D03*
X101700000Y-53700000D03*
X100500000Y-72000000D03*
X99750000Y-71000000D03*
X98250000Y-73000000D03*
X99000000Y-75000000D03*
X108200000Y-53700000D03*
D15*
X101500000Y-35500000D03*
D14*
X96900000Y-63000000D03*
X101800000Y-56100000D03*
X96900000Y-64500000D03*
X107500000Y-33100000D03*
X108100000Y-33100000D03*
X120329325Y-54819328D03*
X99000000Y-73000000D03*
X105600000Y-53700000D03*
X99000000Y-71000000D03*
X96750000Y-70000000D03*
X117100000Y-33200000D03*
D15*
X103000000Y-37000000D03*
X101500000Y-34000000D03*
D14*
X100500000Y-75000000D03*
X100000000Y-52800000D03*
X118900000Y-71800000D03*
X96750000Y-72000000D03*
X119063173Y-61963175D03*
X100500000Y-73000000D03*
D15*
X103000000Y-32500000D03*
D14*
X109500000Y-53700000D03*
X103800000Y-69030002D03*
D15*
X119925000Y-32200000D03*
D14*
X100500000Y-74000000D03*
X102400000Y-53700000D03*
D15*
X120975000Y-32200000D03*
D14*
X96750000Y-74000000D03*
X100000000Y-55500000D03*
X115200000Y-33100000D03*
X106900000Y-53700000D03*
D15*
X103000000Y-35500000D03*
D14*
X98250000Y-70000000D03*
X107764645Y-64864644D03*
D15*
X106750000Y-32250000D03*
D14*
X99750000Y-74000000D03*
X113840380Y-54827384D03*
X111100000Y-55100000D03*
X100000000Y-54300000D03*
D15*
X105500000Y-32250000D03*
D14*
X110300000Y-59700000D03*
X107100219Y-62210002D03*
X108700000Y-33100000D03*
D15*
X101500000Y-32500000D03*
X122000000Y-55500000D03*
D14*
X110400000Y-60800000D03*
D15*
X104100000Y-55300000D03*
D14*
X97500000Y-73000000D03*
X103100000Y-53700000D03*
X100000000Y-51300000D03*
X98250000Y-72000000D03*
X97500000Y-72000000D03*
X99750000Y-73000000D03*
D15*
X101500000Y-38500000D03*
D14*
X96000000Y-57900000D03*
X96750000Y-71000000D03*
X104686863Y-70208038D03*
X100000000Y-54900000D03*
D15*
X122000000Y-56500000D03*
D14*
X110200000Y-53700000D03*
X108900000Y-53700000D03*
X106200000Y-53700000D03*
D15*
X122000000Y-59500000D03*
D14*
X98250000Y-75000000D03*
D15*
X103000000Y-42500000D03*
X115500000Y-32250000D03*
D14*
X106511479Y-70288520D03*
X98000000Y-64500000D03*
X114905640Y-58653521D03*
X113755641Y-59600224D03*
X112780761Y-57850000D03*
X111580761Y-57700000D03*
X124700000Y-30875000D03*
X111600000Y-71250000D03*
X117858908Y-32946904D03*
X111400026Y-32921682D03*
X124400003Y-33400000D03*
X117838095Y-31491535D03*
X109000000Y-68300000D03*
X109600000Y-61600000D03*
X111400000Y-31300000D03*
X107680197Y-70688623D03*
X119194494Y-69448981D03*
X118065748Y-66309252D03*
X119075000Y-67650000D03*
X115660500Y-59996356D03*
X120325000Y-64825000D03*
X119500000Y-64225000D03*
X119063235Y-68511765D03*
X107725000Y-68200000D03*
X115059458Y-59395314D03*
X104250000Y-43800000D03*
X112100000Y-43600000D03*
X110750000Y-43800000D03*
X103000000Y-71700000D03*
X118290606Y-44000000D03*
X117490606Y-44000000D03*
X113000000Y-70400000D03*
D15*
X118300000Y-27200000D03*
X121600000Y-29400000D03*
X122700000Y-29400000D03*
X120500000Y-27200000D03*
X119400000Y-28300000D03*
X122700000Y-28300000D03*
X119400000Y-29400000D03*
X120500000Y-29400000D03*
X118300000Y-29400000D03*
X121600000Y-27200000D03*
X122700000Y-27200000D03*
X119400000Y-27200000D03*
X118300000Y-28300000D03*
X120500000Y-28300000D03*
X121600000Y-28300000D03*
X115100000Y-27200000D03*
X114000000Y-27200000D03*
X112900000Y-27200000D03*
X111800000Y-28300000D03*
X116200000Y-28300000D03*
X115100000Y-29400000D03*
X112900000Y-29400000D03*
X111800000Y-27200000D03*
X112900000Y-28300000D03*
X116200000Y-29400000D03*
X116200000Y-27200000D03*
X111800000Y-29400000D03*
X114000000Y-29400000D03*
X114000000Y-28300000D03*
X115100000Y-28300000D03*
X108400000Y-29400000D03*
X106200000Y-28300000D03*
X109500000Y-29400000D03*
X106200000Y-29400000D03*
X108400000Y-27200000D03*
X105100000Y-29400000D03*
X109500000Y-28300000D03*
X107300000Y-28300000D03*
X107300000Y-29400000D03*
X106200000Y-27200000D03*
X109500000Y-27200000D03*
X108400000Y-28300000D03*
X105100000Y-27200000D03*
X107300000Y-27200000D03*
X105100000Y-28300000D03*
D16*
X120575000Y-73149999D02*
X121775001Y-74350000D01*
X120575000Y-65075000D02*
X120575000Y-73149999D01*
X120325000Y-64825000D02*
X120575000Y-65075000D01*
X119500000Y-64225000D02*
X119775000Y-64500000D01*
X119775000Y-64500000D02*
X119775000Y-74350000D01*
X123151471Y-33800000D02*
X123351471Y-34000000D01*
X112278344Y-33800000D02*
X117858908Y-33800000D01*
X123351471Y-34000000D02*
X123848529Y-34000000D01*
X111400026Y-32921682D02*
X112278344Y-33800000D01*
X124400003Y-33448526D02*
X124400003Y-33400000D01*
X117858908Y-33800000D02*
X123151471Y-33800000D01*
X117858908Y-33800000D02*
X117858908Y-32946904D01*
X123848529Y-34000000D02*
X124400003Y-33448526D01*
G04 #@! TA.AperFunction,Conductor*
G36*
X104130863Y-26503769D02*
G01*
X104197893Y-26523484D01*
X104243624Y-26576309D01*
X104253536Y-26645472D01*
X104240164Y-26686222D01*
X104171188Y-26815266D01*
X104113975Y-27003870D01*
X104094659Y-27200000D01*
X104113975Y-27396129D01*
X104113976Y-27396132D01*
X104169006Y-27577542D01*
X104171188Y-27584732D01*
X104228282Y-27691547D01*
X104242524Y-27759949D01*
X104228282Y-27808453D01*
X104171188Y-27915267D01*
X104171187Y-27915271D01*
X104171186Y-27915273D01*
X104161176Y-27948271D01*
X104113975Y-28103870D01*
X104094659Y-28300000D01*
X104113975Y-28496129D01*
X104113976Y-28496132D01*
X104150933Y-28617963D01*
X104171188Y-28684732D01*
X104228282Y-28791547D01*
X104242524Y-28859949D01*
X104228282Y-28908453D01*
X104171188Y-29015267D01*
X104113975Y-29203870D01*
X104094659Y-29400000D01*
X104113975Y-29596129D01*
X104171188Y-29784733D01*
X104264086Y-29958532D01*
X104264090Y-29958539D01*
X104389116Y-30110883D01*
X104541460Y-30235909D01*
X104541467Y-30235913D01*
X104715266Y-30328811D01*
X104715269Y-30328811D01*
X104715273Y-30328814D01*
X104903868Y-30386024D01*
X105100000Y-30405341D01*
X105296132Y-30386024D01*
X105484727Y-30328814D01*
X105591547Y-30271716D01*
X105659949Y-30257475D01*
X105708451Y-30271716D01*
X105815273Y-30328814D01*
X106003868Y-30386024D01*
X106200000Y-30405341D01*
X106396132Y-30386024D01*
X106584727Y-30328814D01*
X106691547Y-30271716D01*
X106759949Y-30257475D01*
X106808451Y-30271716D01*
X106915273Y-30328814D01*
X107103868Y-30386024D01*
X107300000Y-30405341D01*
X107496132Y-30386024D01*
X107684727Y-30328814D01*
X107791547Y-30271716D01*
X107859949Y-30257475D01*
X107908451Y-30271716D01*
X108015273Y-30328814D01*
X108203868Y-30386024D01*
X108400000Y-30405341D01*
X108596132Y-30386024D01*
X108784727Y-30328814D01*
X108891547Y-30271716D01*
X108959949Y-30257475D01*
X109008451Y-30271716D01*
X109115273Y-30328814D01*
X109303868Y-30386024D01*
X109500000Y-30405341D01*
X109696132Y-30386024D01*
X109884727Y-30328814D01*
X109891489Y-30325200D01*
X110018193Y-30257475D01*
X110058538Y-30235910D01*
X110210883Y-30110883D01*
X110335910Y-29958538D01*
X110428814Y-29784727D01*
X110486024Y-29596132D01*
X110505341Y-29400000D01*
X110486024Y-29203868D01*
X110428814Y-29015273D01*
X110371716Y-28908452D01*
X110357475Y-28840051D01*
X110371717Y-28791547D01*
X110428814Y-28684727D01*
X110486024Y-28496132D01*
X110505341Y-28300000D01*
X110486024Y-28103868D01*
X110428814Y-27915273D01*
X110371716Y-27808452D01*
X110357475Y-27740051D01*
X110371717Y-27691547D01*
X110428814Y-27584727D01*
X110486024Y-27396132D01*
X110505341Y-27200000D01*
X110486024Y-27003868D01*
X110428814Y-26815273D01*
X110393124Y-26748502D01*
X110361389Y-26689129D01*
X110347147Y-26620727D01*
X110372147Y-26555483D01*
X110428452Y-26514112D01*
X110470801Y-26506676D01*
X110829223Y-26506840D01*
X110896251Y-26526555D01*
X110941982Y-26579380D01*
X110951894Y-26648543D01*
X110938523Y-26689292D01*
X110871188Y-26815268D01*
X110871187Y-26815270D01*
X110871186Y-26815273D01*
X110851258Y-26880967D01*
X110813975Y-27003870D01*
X110794659Y-27200000D01*
X110813975Y-27396129D01*
X110813976Y-27396132D01*
X110869006Y-27577542D01*
X110871188Y-27584732D01*
X110928282Y-27691547D01*
X110942524Y-27759949D01*
X110928282Y-27808453D01*
X110871188Y-27915267D01*
X110871187Y-27915271D01*
X110871186Y-27915273D01*
X110861176Y-27948271D01*
X110813975Y-28103870D01*
X110794659Y-28300000D01*
X110813975Y-28496129D01*
X110813976Y-28496132D01*
X110850933Y-28617963D01*
X110871188Y-28684732D01*
X110928282Y-28791547D01*
X110942524Y-28859949D01*
X110928282Y-28908453D01*
X110871188Y-29015267D01*
X110813975Y-29203870D01*
X110794659Y-29400000D01*
X110813975Y-29596129D01*
X110871188Y-29784733D01*
X110964086Y-29958532D01*
X110964090Y-29958539D01*
X111089116Y-30110883D01*
X111241460Y-30235909D01*
X111241463Y-30235911D01*
X111258812Y-30245184D01*
X111316911Y-30276238D01*
X111366756Y-30325200D01*
X111382217Y-30393338D01*
X111358386Y-30459018D01*
X111302829Y-30501387D01*
X111272344Y-30508817D01*
X111220749Y-30514630D01*
X111220745Y-30514631D01*
X111050476Y-30574211D01*
X110897737Y-30670184D01*
X110770184Y-30797737D01*
X110674211Y-30950476D01*
X110614631Y-31120745D01*
X110614630Y-31120750D01*
X110594435Y-31299996D01*
X110594435Y-31300003D01*
X110614630Y-31479249D01*
X110614631Y-31479254D01*
X110674211Y-31649523D01*
X110720965Y-31723931D01*
X110770184Y-31802262D01*
X110897738Y-31929816D01*
X110982514Y-31983084D01*
X111018753Y-32005855D01*
X111065044Y-32058190D01*
X111075692Y-32127244D01*
X111047317Y-32191092D01*
X111018753Y-32215842D01*
X110897766Y-32291863D01*
X110822716Y-32366913D01*
X110761392Y-32400397D01*
X110721152Y-32402451D01*
X110650003Y-32394435D01*
X110649996Y-32394435D01*
X110470750Y-32414630D01*
X110470745Y-32414631D01*
X110300476Y-32474211D01*
X110147737Y-32570184D01*
X110020184Y-32697737D01*
X109924211Y-32850476D01*
X109864631Y-33020745D01*
X109864630Y-33020750D01*
X109844435Y-33199996D01*
X109844435Y-33200003D01*
X109864630Y-33379249D01*
X109864631Y-33379254D01*
X109924211Y-33549523D01*
X109984810Y-33645965D01*
X110020184Y-33702262D01*
X110147738Y-33829816D01*
X110300478Y-33925789D01*
X110470745Y-33985368D01*
X110470750Y-33985369D01*
X110649996Y-34005565D01*
X110650000Y-34005565D01*
X110650004Y-34005565D01*
X110829249Y-33985369D01*
X110829252Y-33985368D01*
X110829255Y-33985368D01*
X110999522Y-33925789D01*
X111152262Y-33829816D01*
X111217914Y-33764163D01*
X111279234Y-33730680D01*
X111348926Y-33735664D01*
X111393274Y-33764165D01*
X111793483Y-34164374D01*
X111793493Y-34164385D01*
X111797823Y-34168715D01*
X111797824Y-34168716D01*
X111909628Y-34280520D01*
X111991330Y-34327690D01*
X112046559Y-34359577D01*
X112199286Y-34400500D01*
X112199287Y-34400500D01*
X117779851Y-34400500D01*
X117937965Y-34400500D01*
X122851373Y-34400500D01*
X122918412Y-34420185D01*
X122939054Y-34436819D01*
X122982755Y-34480520D01*
X122982757Y-34480521D01*
X122982761Y-34480524D01*
X123119680Y-34559573D01*
X123119683Y-34559575D01*
X123119687Y-34559577D01*
X123272414Y-34600501D01*
X123272416Y-34600501D01*
X123438125Y-34600501D01*
X123438141Y-34600500D01*
X123761860Y-34600500D01*
X123761876Y-34600501D01*
X123769472Y-34600501D01*
X123927583Y-34600501D01*
X123927586Y-34600501D01*
X124080314Y-34559577D01*
X124134721Y-34528165D01*
X124134722Y-34528165D01*
X124217238Y-34480524D01*
X124217237Y-34480524D01*
X124217245Y-34480520D01*
X124329049Y-34368716D01*
X124329049Y-34368714D01*
X124339253Y-34358511D01*
X124339257Y-34358506D01*
X124473225Y-34224537D01*
X124534546Y-34191054D01*
X124547005Y-34189001D01*
X124579258Y-34185368D01*
X124749525Y-34125789D01*
X124902265Y-34029816D01*
X125029819Y-33902262D01*
X125125792Y-33749522D01*
X125185371Y-33579255D01*
X125189107Y-33546097D01*
X125205568Y-33400003D01*
X125205568Y-33399996D01*
X125185372Y-33220750D01*
X125185371Y-33220745D01*
X125145653Y-33107237D01*
X125125792Y-33050478D01*
X125119505Y-33040473D01*
X125069496Y-32960883D01*
X125029819Y-32897738D01*
X124902265Y-32770184D01*
X124870900Y-32750476D01*
X124749526Y-32674211D01*
X124579257Y-32614631D01*
X124579252Y-32614630D01*
X124400007Y-32594435D01*
X124399999Y-32594435D01*
X124220753Y-32614630D01*
X124220740Y-32614633D01*
X124043909Y-32676510D01*
X124043160Y-32674369D01*
X123984824Y-32683958D01*
X123956408Y-32675611D01*
X123956094Y-32676510D01*
X123779262Y-32614633D01*
X123779249Y-32614630D01*
X123600004Y-32594435D01*
X123599996Y-32594435D01*
X123420750Y-32614630D01*
X123420745Y-32614631D01*
X123250474Y-32674212D01*
X123193140Y-32710237D01*
X123125903Y-32729237D01*
X123059068Y-32708869D01*
X123013855Y-32655600D01*
X123004618Y-32586344D01*
X123008506Y-32569258D01*
X123061024Y-32396132D01*
X123080341Y-32200000D01*
X123061024Y-32003868D01*
X123003814Y-31815273D01*
X123003811Y-31815269D01*
X123003811Y-31815266D01*
X122910913Y-31641467D01*
X122910909Y-31641460D01*
X122785883Y-31489116D01*
X122633539Y-31364090D01*
X122633532Y-31364086D01*
X122459733Y-31271188D01*
X122459727Y-31271186D01*
X122271132Y-31213976D01*
X122271129Y-31213975D01*
X122075000Y-31194659D01*
X121878870Y-31213975D01*
X121777720Y-31244659D01*
X121690273Y-31271186D01*
X121690272Y-31271186D01*
X121690267Y-31271188D01*
X121583453Y-31328282D01*
X121515051Y-31342524D01*
X121466547Y-31328282D01*
X121359732Y-31271188D01*
X121359729Y-31271187D01*
X121359727Y-31271186D01*
X121171132Y-31213976D01*
X121171129Y-31213975D01*
X120975000Y-31194659D01*
X120778870Y-31213975D01*
X120677720Y-31244659D01*
X120590273Y-31271186D01*
X120590272Y-31271186D01*
X120590267Y-31271188D01*
X120508453Y-31314919D01*
X120440050Y-31329161D01*
X120391547Y-31314919D01*
X120309732Y-31271188D01*
X120309729Y-31271187D01*
X120309727Y-31271186D01*
X120121132Y-31213976D01*
X120121129Y-31213975D01*
X119925000Y-31194659D01*
X119728870Y-31213975D01*
X119540266Y-31271188D01*
X119366467Y-31364086D01*
X119366460Y-31364090D01*
X119214116Y-31489116D01*
X119089090Y-31641460D01*
X119089086Y-31641467D01*
X118996188Y-31815266D01*
X118938975Y-32003870D01*
X118919659Y-32200000D01*
X118938975Y-32396129D01*
X118954143Y-32446132D01*
X118991774Y-32570184D01*
X118996188Y-32584733D01*
X119089086Y-32758532D01*
X119089090Y-32758539D01*
X119214116Y-32910883D01*
X119297905Y-32979647D01*
X119337239Y-33037393D01*
X119339110Y-33107237D01*
X119302922Y-33167006D01*
X119240166Y-33197721D01*
X119219240Y-33199500D01*
X118774769Y-33199500D01*
X118707730Y-33179815D01*
X118661975Y-33127011D01*
X118651549Y-33061617D01*
X118664473Y-32946908D01*
X118664473Y-32946900D01*
X118644277Y-32767654D01*
X118644276Y-32767649D01*
X118612385Y-32676510D01*
X118584697Y-32597382D01*
X118582845Y-32594435D01*
X118504773Y-32470184D01*
X118488724Y-32444642D01*
X118361170Y-32317088D01*
X118359838Y-32316251D01*
X118359162Y-32315487D01*
X118355724Y-32312745D01*
X118356204Y-32312142D01*
X118313548Y-32263918D01*
X118302899Y-32194864D01*
X118331274Y-32131016D01*
X118338130Y-32123576D01*
X118340351Y-32121354D01*
X118340357Y-32121351D01*
X118467911Y-31993797D01*
X118563884Y-31841057D01*
X118623463Y-31670790D01*
X118624218Y-31664090D01*
X118643660Y-31491538D01*
X118643660Y-31491531D01*
X118623464Y-31312285D01*
X118623463Y-31312280D01*
X118591435Y-31220750D01*
X118563884Y-31142013D01*
X118550520Y-31120745D01*
X118467910Y-30989272D01*
X118353634Y-30874996D01*
X123894435Y-30874996D01*
X123894435Y-30875003D01*
X123914630Y-31054249D01*
X123914631Y-31054254D01*
X123974211Y-31224523D01*
X124021637Y-31300000D01*
X124070184Y-31377262D01*
X124197738Y-31504816D01*
X124350478Y-31600789D01*
X124463940Y-31640491D01*
X124520745Y-31660368D01*
X124520750Y-31660369D01*
X124699996Y-31680565D01*
X124700000Y-31680565D01*
X124700003Y-31680565D01*
X124786765Y-31670789D01*
X124842332Y-31664528D01*
X124911153Y-31676582D01*
X124962532Y-31723931D01*
X124973256Y-31746792D01*
X124974211Y-31749523D01*
X124974212Y-31749524D01*
X124999090Y-31789117D01*
X125070184Y-31902262D01*
X125197738Y-32029816D01*
X125236020Y-32053870D01*
X125350326Y-32125694D01*
X125350478Y-32125789D01*
X125380557Y-32136314D01*
X125520745Y-32185368D01*
X125520750Y-32185369D01*
X125699996Y-32205565D01*
X125700000Y-32205565D01*
X125700004Y-32205565D01*
X125879249Y-32185369D01*
X125879252Y-32185368D01*
X125879255Y-32185368D01*
X126049522Y-32125789D01*
X126202262Y-32029816D01*
X126329816Y-31902262D01*
X126425789Y-31749522D01*
X126485368Y-31579255D01*
X126486277Y-31571186D01*
X126505565Y-31400003D01*
X126505565Y-31399996D01*
X126485369Y-31220750D01*
X126485368Y-31220745D01*
X126450376Y-31120745D01*
X126425789Y-31050478D01*
X126329816Y-30897738D01*
X126202262Y-30770184D01*
X126100380Y-30706167D01*
X126049523Y-30674211D01*
X125879254Y-30614631D01*
X125879249Y-30614630D01*
X125700004Y-30594435D01*
X125699996Y-30594435D01*
X125557668Y-30610471D01*
X125488846Y-30598416D01*
X125437467Y-30551067D01*
X125426743Y-30528203D01*
X125425790Y-30525480D01*
X125425789Y-30525477D01*
X125348063Y-30401778D01*
X125329816Y-30372738D01*
X125202262Y-30245184D01*
X125049523Y-30149211D01*
X124879254Y-30089631D01*
X124879249Y-30089630D01*
X124700004Y-30069435D01*
X124699996Y-30069435D01*
X124520750Y-30089630D01*
X124520745Y-30089631D01*
X124350476Y-30149211D01*
X124197737Y-30245184D01*
X124070184Y-30372737D01*
X123974211Y-30525476D01*
X123914631Y-30695745D01*
X123914630Y-30695750D01*
X123894435Y-30874996D01*
X118353634Y-30874996D01*
X118340357Y-30861719D01*
X118187618Y-30765746D01*
X118017349Y-30706166D01*
X118017344Y-30706165D01*
X117838099Y-30685970D01*
X117838091Y-30685970D01*
X117658845Y-30706165D01*
X117658840Y-30706166D01*
X117488571Y-30765746D01*
X117335832Y-30861719D01*
X117208279Y-30989272D01*
X117112306Y-31142011D01*
X117052726Y-31312280D01*
X117052725Y-31312285D01*
X117032530Y-31491531D01*
X117032530Y-31491538D01*
X117052725Y-31670784D01*
X117052726Y-31670789D01*
X117112306Y-31841058D01*
X117208279Y-31993797D01*
X117335833Y-32121351D01*
X117337159Y-32122184D01*
X117337832Y-32122945D01*
X117341279Y-32125694D01*
X117340797Y-32126297D01*
X117383452Y-32174516D01*
X117394103Y-32243569D01*
X117365730Y-32307419D01*
X117358871Y-32314862D01*
X117303365Y-32370367D01*
X117242042Y-32403851D01*
X117201801Y-32405905D01*
X117100003Y-32394435D01*
X117099996Y-32394435D01*
X116920750Y-32414630D01*
X116920745Y-32414631D01*
X116750474Y-32474212D01*
X116679796Y-32518622D01*
X116612560Y-32537622D01*
X116545725Y-32517254D01*
X116500511Y-32463986D01*
X116490422Y-32401474D01*
X116490528Y-32400397D01*
X116505341Y-32250000D01*
X116486024Y-32053868D01*
X116428814Y-31865273D01*
X116428811Y-31865269D01*
X116428811Y-31865266D01*
X116335913Y-31691467D01*
X116335909Y-31691460D01*
X116210883Y-31539116D01*
X116058539Y-31414090D01*
X116058532Y-31414086D01*
X115884733Y-31321188D01*
X115884727Y-31321186D01*
X115696132Y-31263976D01*
X115696129Y-31263975D01*
X115500000Y-31244659D01*
X115303870Y-31263975D01*
X115115266Y-31321188D01*
X114936089Y-31416961D01*
X114935150Y-31415205D01*
X114877203Y-31433344D01*
X114814370Y-31416101D01*
X114813911Y-31416961D01*
X114810122Y-31414935D01*
X114809824Y-31414854D01*
X114809107Y-31414393D01*
X114634733Y-31321188D01*
X114634727Y-31321186D01*
X114446132Y-31263976D01*
X114446129Y-31263975D01*
X114250000Y-31244659D01*
X114053870Y-31263975D01*
X113865266Y-31321188D01*
X113686089Y-31416961D01*
X113685150Y-31415205D01*
X113627203Y-31433344D01*
X113564370Y-31416101D01*
X113563911Y-31416961D01*
X113560122Y-31414935D01*
X113559824Y-31414854D01*
X113559107Y-31414393D01*
X113384733Y-31321188D01*
X113384727Y-31321186D01*
X113196132Y-31263976D01*
X113196129Y-31263975D01*
X113000000Y-31244659D01*
X112803870Y-31263975D01*
X112615266Y-31321188D01*
X112441467Y-31414086D01*
X112441461Y-31414089D01*
X112403442Y-31445291D01*
X112339132Y-31472603D01*
X112270265Y-31460810D01*
X112218705Y-31413657D01*
X112200823Y-31346114D01*
X112201559Y-31335551D01*
X112203178Y-31321188D01*
X112205565Y-31300000D01*
X112202318Y-31271186D01*
X112185369Y-31120750D01*
X112185368Y-31120745D01*
X112162100Y-31054249D01*
X112125789Y-30950478D01*
X112102888Y-30914032D01*
X112029815Y-30797737D01*
X111902262Y-30670184D01*
X111830968Y-30625387D01*
X111784677Y-30573052D01*
X111774029Y-30503998D01*
X111802404Y-30440150D01*
X111860794Y-30401778D01*
X111884783Y-30396990D01*
X111996132Y-30386024D01*
X112184727Y-30328814D01*
X112291547Y-30271716D01*
X112359949Y-30257475D01*
X112408451Y-30271716D01*
X112515273Y-30328814D01*
X112703868Y-30386024D01*
X112900000Y-30405341D01*
X113096132Y-30386024D01*
X113284727Y-30328814D01*
X113391547Y-30271716D01*
X113459949Y-30257475D01*
X113508451Y-30271716D01*
X113615273Y-30328814D01*
X113803868Y-30386024D01*
X114000000Y-30405341D01*
X114196132Y-30386024D01*
X114384727Y-30328814D01*
X114491547Y-30271716D01*
X114559949Y-30257475D01*
X114608451Y-30271716D01*
X114715273Y-30328814D01*
X114903868Y-30386024D01*
X115100000Y-30405341D01*
X115296132Y-30386024D01*
X115484727Y-30328814D01*
X115591547Y-30271716D01*
X115659949Y-30257475D01*
X115708451Y-30271716D01*
X115815273Y-30328814D01*
X116003868Y-30386024D01*
X116200000Y-30405341D01*
X116396132Y-30386024D01*
X116584727Y-30328814D01*
X116591489Y-30325200D01*
X116718193Y-30257475D01*
X116758538Y-30235910D01*
X116910883Y-30110883D01*
X117035910Y-29958538D01*
X117128814Y-29784727D01*
X117131339Y-29776400D01*
X117169636Y-29717963D01*
X117233448Y-29689506D01*
X117302515Y-29700065D01*
X117354909Y-29746289D01*
X117368661Y-29776402D01*
X117371187Y-29784730D01*
X117464086Y-29958532D01*
X117464090Y-29958539D01*
X117589116Y-30110883D01*
X117741460Y-30235909D01*
X117741467Y-30235913D01*
X117915266Y-30328811D01*
X117915269Y-30328811D01*
X117915273Y-30328814D01*
X118103868Y-30386024D01*
X118300000Y-30405341D01*
X118496132Y-30386024D01*
X118684727Y-30328814D01*
X118791547Y-30271716D01*
X118859949Y-30257475D01*
X118908451Y-30271716D01*
X119015273Y-30328814D01*
X119203868Y-30386024D01*
X119400000Y-30405341D01*
X119596132Y-30386024D01*
X119784727Y-30328814D01*
X119891547Y-30271716D01*
X119959949Y-30257475D01*
X120008451Y-30271716D01*
X120115273Y-30328814D01*
X120303868Y-30386024D01*
X120500000Y-30405341D01*
X120696132Y-30386024D01*
X120884727Y-30328814D01*
X120991547Y-30271716D01*
X121059949Y-30257475D01*
X121108451Y-30271716D01*
X121215273Y-30328814D01*
X121403868Y-30386024D01*
X121600000Y-30405341D01*
X121796132Y-30386024D01*
X121984727Y-30328814D01*
X122091547Y-30271716D01*
X122159949Y-30257475D01*
X122208451Y-30271716D01*
X122315273Y-30328814D01*
X122503868Y-30386024D01*
X122700000Y-30405341D01*
X122896132Y-30386024D01*
X123084727Y-30328814D01*
X123091489Y-30325200D01*
X123218193Y-30257475D01*
X123258538Y-30235910D01*
X123410883Y-30110883D01*
X123535910Y-29958538D01*
X123628814Y-29784727D01*
X123686024Y-29596132D01*
X123705341Y-29400000D01*
X123686024Y-29203868D01*
X123628814Y-29015273D01*
X123571716Y-28908452D01*
X123557475Y-28840051D01*
X123571717Y-28791547D01*
X123628814Y-28684727D01*
X123686024Y-28496132D01*
X123705341Y-28300000D01*
X123686024Y-28103868D01*
X123628814Y-27915273D01*
X123571716Y-27808452D01*
X123557475Y-27740051D01*
X123571717Y-27691547D01*
X123628814Y-27584727D01*
X123686024Y-27396132D01*
X123705341Y-27200000D01*
X123686024Y-27003868D01*
X123628814Y-26815273D01*
X123628811Y-26815269D01*
X123628811Y-26815266D01*
X123564625Y-26695182D01*
X123550383Y-26626779D01*
X123575383Y-26561535D01*
X123631688Y-26520165D01*
X123674035Y-26512729D01*
X127925663Y-26514679D01*
X127926184Y-26514714D01*
X127934108Y-26514714D01*
X127995572Y-26514714D01*
X128004418Y-26515030D01*
X128204560Y-26529344D01*
X128222061Y-26531861D01*
X128413794Y-26573569D01*
X128430752Y-26578548D01*
X128614612Y-26647125D01*
X128630692Y-26654469D01*
X128747498Y-26718250D01*
X128802900Y-26748502D01*
X128817784Y-26758067D01*
X128971351Y-26873027D01*
X128974857Y-26875651D01*
X128988228Y-26887237D01*
X129126972Y-27025982D01*
X129138557Y-27039353D01*
X129256134Y-27196418D01*
X129265700Y-27211302D01*
X129359734Y-27383516D01*
X129367083Y-27399609D01*
X129435650Y-27583447D01*
X129440634Y-27600422D01*
X129482339Y-27792141D01*
X129484857Y-27809654D01*
X129499183Y-28009987D01*
X129499499Y-28018832D01*
X129499499Y-28090090D01*
X129499500Y-28090103D01*
X129499500Y-28955186D01*
X129479815Y-29022225D01*
X129427011Y-29067980D01*
X129357853Y-29077924D01*
X129294297Y-29048899D01*
X129273925Y-29026309D01*
X129163494Y-28868597D01*
X128996402Y-28701506D01*
X128996395Y-28701501D01*
X128972439Y-28684727D01*
X128957521Y-28674281D01*
X128802834Y-28565967D01*
X128802830Y-28565965D01*
X128802828Y-28565964D01*
X128588663Y-28466097D01*
X128588659Y-28466096D01*
X128588655Y-28466094D01*
X128360413Y-28404938D01*
X128360403Y-28404936D01*
X128125001Y-28384341D01*
X128124999Y-28384341D01*
X127889596Y-28404936D01*
X127889586Y-28404938D01*
X127661344Y-28466094D01*
X127661335Y-28466098D01*
X127447171Y-28565964D01*
X127447169Y-28565965D01*
X127253597Y-28701505D01*
X127086505Y-28868597D01*
X126950965Y-29062169D01*
X126950964Y-29062171D01*
X126851098Y-29276335D01*
X126851094Y-29276344D01*
X126789938Y-29504586D01*
X126789936Y-29504596D01*
X126769341Y-29739999D01*
X126769341Y-29740000D01*
X126789936Y-29975403D01*
X126789938Y-29975413D01*
X126851094Y-30203655D01*
X126851096Y-30203659D01*
X126851097Y-30203663D01*
X126907771Y-30325200D01*
X126950965Y-30417830D01*
X126950967Y-30417834D01*
X127026340Y-30525477D01*
X127086505Y-30611401D01*
X127253599Y-30778495D01*
X127281081Y-30797738D01*
X127447165Y-30914032D01*
X127447167Y-30914033D01*
X127447170Y-30914035D01*
X127661337Y-31013903D01*
X127889592Y-31075063D01*
X128077918Y-31091539D01*
X128124999Y-31095659D01*
X128125000Y-31095659D01*
X128125001Y-31095659D01*
X128164234Y-31092226D01*
X128360408Y-31075063D01*
X128588663Y-31013903D01*
X128802830Y-30914035D01*
X128996401Y-30778495D01*
X129163495Y-30611401D01*
X129273925Y-30453691D01*
X129328502Y-30410066D01*
X129398000Y-30402872D01*
X129460355Y-30434395D01*
X129495769Y-30494625D01*
X129499500Y-30524814D01*
X129499500Y-34035186D01*
X129479815Y-34102225D01*
X129427011Y-34147980D01*
X129357853Y-34157924D01*
X129294297Y-34128899D01*
X129273925Y-34106309D01*
X129163494Y-33948597D01*
X128996402Y-33781506D01*
X128996395Y-33781501D01*
X128802834Y-33645967D01*
X128802830Y-33645965D01*
X128736996Y-33615266D01*
X128588663Y-33546097D01*
X128588659Y-33546096D01*
X128588655Y-33546094D01*
X128360413Y-33484938D01*
X128360403Y-33484936D01*
X128125001Y-33464341D01*
X128124999Y-33464341D01*
X127889596Y-33484936D01*
X127889586Y-33484938D01*
X127661344Y-33546094D01*
X127661335Y-33546098D01*
X127447171Y-33645964D01*
X127447169Y-33645965D01*
X127253597Y-33781505D01*
X127086505Y-33948597D01*
X126950965Y-34142169D01*
X126950964Y-34142171D01*
X126851098Y-34356335D01*
X126851094Y-34356344D01*
X126789938Y-34584586D01*
X126789936Y-34584596D01*
X126769341Y-34819999D01*
X126769341Y-34820000D01*
X126789936Y-35055403D01*
X126789938Y-35055413D01*
X126851094Y-35283655D01*
X126851096Y-35283659D01*
X126851097Y-35283663D01*
X126860519Y-35303868D01*
X126950965Y-35497830D01*
X126950967Y-35497834D01*
X126976075Y-35533691D01*
X127086501Y-35691396D01*
X127086506Y-35691402D01*
X127253597Y-35858493D01*
X127253603Y-35858498D01*
X127439158Y-35988425D01*
X127482783Y-36043002D01*
X127489977Y-36112500D01*
X127458454Y-36174855D01*
X127439158Y-36191575D01*
X127253597Y-36321505D01*
X127086505Y-36488597D01*
X126950965Y-36682169D01*
X126950964Y-36682171D01*
X126851098Y-36896335D01*
X126851094Y-36896344D01*
X126789938Y-37124586D01*
X126789936Y-37124596D01*
X126769341Y-37359999D01*
X126769341Y-37360000D01*
X126789936Y-37595403D01*
X126789938Y-37595413D01*
X126851094Y-37823655D01*
X126851096Y-37823659D01*
X126851097Y-37823663D01*
X126926502Y-37985369D01*
X126950965Y-38037830D01*
X126950967Y-38037834D01*
X127004737Y-38114625D01*
X127086501Y-38231396D01*
X127086506Y-38231402D01*
X127208430Y-38353326D01*
X127241915Y-38414649D01*
X127236931Y-38484341D01*
X127195059Y-38540274D01*
X127164083Y-38557189D01*
X127032669Y-38606203D01*
X127032664Y-38606206D01*
X126917455Y-38692452D01*
X126917452Y-38692455D01*
X126831206Y-38807664D01*
X126831202Y-38807671D01*
X126780908Y-38942517D01*
X126774501Y-39002116D01*
X126774500Y-39002135D01*
X126774500Y-40797870D01*
X126774501Y-40797876D01*
X126780908Y-40857483D01*
X126831202Y-40992328D01*
X126831206Y-40992335D01*
X126917452Y-41107544D01*
X126917455Y-41107547D01*
X127032664Y-41193793D01*
X127032671Y-41193797D01*
X127167517Y-41244091D01*
X127167516Y-41244091D01*
X127174444Y-41244835D01*
X127227127Y-41250500D01*
X129022872Y-41250499D01*
X129082483Y-41244091D01*
X129217331Y-41193796D01*
X129301189Y-41131019D01*
X129366652Y-41106602D01*
X129434926Y-41121453D01*
X129484331Y-41170858D01*
X129499500Y-41230286D01*
X129499500Y-68996523D01*
X129479815Y-69063562D01*
X129427011Y-69109317D01*
X129357853Y-69119261D01*
X129294297Y-69090236D01*
X129270507Y-69062496D01*
X129229817Y-68997739D01*
X129102262Y-68870184D01*
X128949523Y-68774211D01*
X128779254Y-68714631D01*
X128779249Y-68714630D01*
X128600004Y-68694435D01*
X128599996Y-68694435D01*
X128420750Y-68714630D01*
X128420737Y-68714633D01*
X128243906Y-68776510D01*
X128243155Y-68774364D01*
X128184856Y-68783962D01*
X128156409Y-68775609D01*
X128156094Y-68776510D01*
X127979262Y-68714633D01*
X127979249Y-68714630D01*
X127800004Y-68694435D01*
X127799996Y-68694435D01*
X127620750Y-68714630D01*
X127620737Y-68714633D01*
X127443906Y-68776510D01*
X127443155Y-68774364D01*
X127384856Y-68783962D01*
X127356409Y-68775609D01*
X127356094Y-68776510D01*
X127179262Y-68714633D01*
X127179249Y-68714630D01*
X127000004Y-68694435D01*
X126999996Y-68694435D01*
X126820750Y-68714630D01*
X126820737Y-68714633D01*
X126643906Y-68776510D01*
X126643155Y-68774364D01*
X126584856Y-68783962D01*
X126556409Y-68775609D01*
X126556094Y-68776510D01*
X126379262Y-68714633D01*
X126379249Y-68714630D01*
X126200004Y-68694435D01*
X126199996Y-68694435D01*
X126020750Y-68714630D01*
X126020737Y-68714633D01*
X125843906Y-68776510D01*
X125843155Y-68774364D01*
X125784856Y-68783962D01*
X125756409Y-68775609D01*
X125756094Y-68776510D01*
X125579262Y-68714633D01*
X125579249Y-68714630D01*
X125400004Y-68694435D01*
X125399996Y-68694435D01*
X125220750Y-68714630D01*
X125220737Y-68714633D01*
X125043906Y-68776510D01*
X125043155Y-68774364D01*
X124984856Y-68783962D01*
X124956409Y-68775609D01*
X124956094Y-68776510D01*
X124779262Y-68714633D01*
X124779249Y-68714630D01*
X124600004Y-68694435D01*
X124599996Y-68694435D01*
X124420750Y-68714630D01*
X124420745Y-68714631D01*
X124250476Y-68774211D01*
X124097737Y-68870184D01*
X123970184Y-68997737D01*
X123874211Y-69150476D01*
X123814631Y-69320745D01*
X123814630Y-69320750D01*
X123794435Y-69499996D01*
X123794435Y-69500003D01*
X123814630Y-69679249D01*
X123814633Y-69679262D01*
X123874209Y-69849520D01*
X123927309Y-69934029D01*
X123946309Y-70001266D01*
X123927309Y-70065971D01*
X123874209Y-70150479D01*
X123814633Y-70320737D01*
X123814630Y-70320750D01*
X123794435Y-70499996D01*
X123794435Y-70500003D01*
X123814630Y-70679249D01*
X123814633Y-70679262D01*
X123874209Y-70849520D01*
X123927309Y-70934029D01*
X123946309Y-71001266D01*
X123927309Y-71065971D01*
X123874209Y-71150479D01*
X123814633Y-71320737D01*
X123814630Y-71320750D01*
X123794435Y-71499996D01*
X123794435Y-71500003D01*
X123814630Y-71679249D01*
X123814633Y-71679262D01*
X123874209Y-71849520D01*
X123927309Y-71934029D01*
X123946309Y-72001266D01*
X123927309Y-72065971D01*
X123874209Y-72150479D01*
X123814633Y-72320737D01*
X123814630Y-72320750D01*
X123794435Y-72499996D01*
X123794435Y-72500003D01*
X123814630Y-72679249D01*
X123814633Y-72679262D01*
X123874209Y-72849520D01*
X123927309Y-72934029D01*
X123946309Y-73001266D01*
X123927309Y-73065971D01*
X123874209Y-73150479D01*
X123814633Y-73320737D01*
X123814630Y-73320750D01*
X123794435Y-73499996D01*
X123794435Y-73500003D01*
X123814630Y-73679249D01*
X123814633Y-73679262D01*
X123874209Y-73849520D01*
X123927309Y-73934029D01*
X123946309Y-74001266D01*
X123927309Y-74065971D01*
X123874209Y-74150479D01*
X123814633Y-74320737D01*
X123814630Y-74320750D01*
X123794435Y-74499996D01*
X123794435Y-74500003D01*
X123814630Y-74679249D01*
X123814631Y-74679254D01*
X123874211Y-74849523D01*
X123951190Y-74972034D01*
X123970184Y-75002262D01*
X124097738Y-75129816D01*
X124250478Y-75225789D01*
X124250480Y-75225790D01*
X124303219Y-75244245D01*
X124359995Y-75284966D01*
X124385742Y-75349919D01*
X124372286Y-75418481D01*
X124323898Y-75468883D01*
X124262264Y-75485286D01*
X122594585Y-75485286D01*
X122527546Y-75465601D01*
X122481791Y-75412797D01*
X122471847Y-75343639D01*
X122500872Y-75280083D01*
X122511034Y-75269660D01*
X122647428Y-75145322D01*
X122778713Y-74971472D01*
X122875818Y-74776459D01*
X122935436Y-74566923D01*
X122955537Y-74350000D01*
X122935436Y-74133077D01*
X122875818Y-73923541D01*
X122778713Y-73728528D01*
X122647428Y-73554678D01*
X122486433Y-73407912D01*
X122486429Y-73407909D01*
X122486424Y-73407906D01*
X122301214Y-73293229D01*
X122301208Y-73293226D01*
X122216114Y-73260260D01*
X122098070Y-73214530D01*
X121883927Y-73174500D01*
X121666075Y-73174500D01*
X121666074Y-73174500D01*
X121547211Y-73196718D01*
X121477696Y-73189686D01*
X121436747Y-73162510D01*
X121211819Y-72937582D01*
X121178334Y-72876259D01*
X121175500Y-72849901D01*
X121175500Y-72195804D01*
X121195185Y-72128765D01*
X121247989Y-72083010D01*
X121317147Y-72073066D01*
X121331590Y-72076028D01*
X121514592Y-72125063D01*
X121702918Y-72141539D01*
X121749999Y-72145659D01*
X121750000Y-72145659D01*
X121750001Y-72145659D01*
X121789234Y-72142226D01*
X121985408Y-72125063D01*
X122213663Y-72063903D01*
X122427830Y-71964035D01*
X122621401Y-71828495D01*
X122788495Y-71661401D01*
X122924035Y-71467830D01*
X123023903Y-71253663D01*
X123085063Y-71025408D01*
X123105659Y-70790000D01*
X123085063Y-70554592D01*
X123023903Y-70326337D01*
X122924035Y-70112171D01*
X122922001Y-70109265D01*
X122788494Y-69918597D01*
X122621402Y-69751506D01*
X122621396Y-69751501D01*
X122435842Y-69621575D01*
X122392217Y-69566998D01*
X122385023Y-69497500D01*
X122416546Y-69435145D01*
X122435842Y-69418425D01*
X122504737Y-69370184D01*
X122621401Y-69288495D01*
X122788495Y-69121401D01*
X122924035Y-68927830D01*
X123023903Y-68713663D01*
X123085063Y-68485408D01*
X123105659Y-68250000D01*
X123105189Y-68244633D01*
X123090682Y-68078814D01*
X123085063Y-68014592D01*
X123023903Y-67786337D01*
X122924035Y-67572171D01*
X122873499Y-67499997D01*
X122788494Y-67378597D01*
X122621402Y-67211506D01*
X122621396Y-67211501D01*
X122435842Y-67081575D01*
X122392217Y-67026998D01*
X122385023Y-66957500D01*
X122416546Y-66895145D01*
X122435842Y-66878425D01*
X122468375Y-66855645D01*
X122621401Y-66748495D01*
X122788495Y-66581401D01*
X122924035Y-66387830D01*
X123023903Y-66173663D01*
X123085063Y-65945408D01*
X123105659Y-65710000D01*
X123085063Y-65474592D01*
X123034540Y-65286037D01*
X123023905Y-65246344D01*
X123023904Y-65246343D01*
X123023903Y-65246337D01*
X122924035Y-65032171D01*
X122910464Y-65012790D01*
X122788496Y-64838600D01*
X122751107Y-64801211D01*
X122666567Y-64716671D01*
X122633084Y-64655351D01*
X122638068Y-64585659D01*
X122679939Y-64529725D01*
X122710915Y-64512810D01*
X122842331Y-64463796D01*
X122957546Y-64377546D01*
X123043796Y-64262331D01*
X123094091Y-64127483D01*
X123100500Y-64067873D01*
X123100499Y-62272128D01*
X123094091Y-62212517D01*
X123093152Y-62210000D01*
X123043797Y-62077671D01*
X123043793Y-62077664D01*
X122957547Y-61962455D01*
X122957544Y-61962452D01*
X122842335Y-61876206D01*
X122842328Y-61876202D01*
X122707482Y-61825908D01*
X122707483Y-61825908D01*
X122647883Y-61819501D01*
X122647881Y-61819500D01*
X122647873Y-61819500D01*
X122647864Y-61819500D01*
X120852129Y-61819500D01*
X120852123Y-61819501D01*
X120792516Y-61825908D01*
X120657671Y-61876202D01*
X120657664Y-61876206D01*
X120542455Y-61962452D01*
X120542452Y-61962455D01*
X120456206Y-62077664D01*
X120456202Y-62077671D01*
X120405909Y-62212516D01*
X120403245Y-62237288D01*
X120376505Y-62301838D01*
X120345929Y-62329022D01*
X120240637Y-62395182D01*
X120240634Y-62395184D01*
X120113081Y-62522737D01*
X120017108Y-62675476D01*
X119974010Y-62798645D01*
X119933288Y-62855421D01*
X119870853Y-62880910D01*
X119826598Y-62885896D01*
X119656326Y-62945476D01*
X119503585Y-63041450D01*
X119376032Y-63169003D01*
X119280057Y-63321746D01*
X119247097Y-63415940D01*
X119206376Y-63472716D01*
X119171011Y-63492026D01*
X119150479Y-63499210D01*
X119150475Y-63499212D01*
X118997737Y-63595184D01*
X118870184Y-63722737D01*
X118774211Y-63875476D01*
X118714631Y-64045745D01*
X118714630Y-64045750D01*
X118694435Y-64224996D01*
X118694435Y-64225003D01*
X118714630Y-64404249D01*
X118714631Y-64404254D01*
X118774211Y-64574523D01*
X118858310Y-64708365D01*
X118870184Y-64727262D01*
X118997738Y-64854816D01*
X119116473Y-64929422D01*
X119162763Y-64981756D01*
X119174500Y-65034415D01*
X119174500Y-66722410D01*
X119154815Y-66789449D01*
X119102011Y-66835204D01*
X119064384Y-66845630D01*
X118900263Y-66864122D01*
X118831441Y-66852068D01*
X118780061Y-66804719D01*
X118762437Y-66737108D01*
X118781387Y-66674927D01*
X118791537Y-66658774D01*
X118851116Y-66488507D01*
X118862459Y-66387834D01*
X118871313Y-66309255D01*
X118871313Y-66309248D01*
X118851117Y-66130002D01*
X118851116Y-66129997D01*
X118799252Y-65981779D01*
X118791537Y-65959730D01*
X118695564Y-65806990D01*
X118568010Y-65679436D01*
X118521182Y-65650012D01*
X118415271Y-65583463D01*
X118245002Y-65523883D01*
X118244997Y-65523882D01*
X118065752Y-65503687D01*
X118065744Y-65503687D01*
X117886498Y-65523882D01*
X117886493Y-65523883D01*
X117716224Y-65583463D01*
X117563485Y-65679436D01*
X117435932Y-65806989D01*
X117339959Y-65959728D01*
X117280379Y-66129997D01*
X117280378Y-66130002D01*
X117260183Y-66309248D01*
X117260183Y-66309255D01*
X117280378Y-66488501D01*
X117280379Y-66488506D01*
X117339959Y-66658775D01*
X117396333Y-66748493D01*
X117435932Y-66811514D01*
X117563486Y-66939068D01*
X117628629Y-66980000D01*
X117704671Y-67027781D01*
X117716226Y-67035041D01*
X117833180Y-67075965D01*
X117886493Y-67094620D01*
X117886498Y-67094621D01*
X118065744Y-67114817D01*
X118065748Y-67114817D01*
X118065751Y-67114817D01*
X118183336Y-67101568D01*
X118240484Y-67095129D01*
X118309306Y-67107183D01*
X118360686Y-67154532D01*
X118378310Y-67222143D01*
X118359364Y-67284318D01*
X118349211Y-67300476D01*
X118289631Y-67470745D01*
X118289630Y-67470750D01*
X118269435Y-67649996D01*
X118269435Y-67650003D01*
X118289630Y-67829249D01*
X118289633Y-67829262D01*
X118349209Y-67999520D01*
X118353000Y-68005553D01*
X118371996Y-68072790D01*
X118352999Y-68137489D01*
X118337444Y-68162245D01*
X118277868Y-68332502D01*
X118277865Y-68332515D01*
X118257670Y-68511761D01*
X118257670Y-68511768D01*
X118277865Y-68691014D01*
X118277866Y-68691019D01*
X118337446Y-68861288D01*
X118433418Y-69014026D01*
X118435992Y-69017253D01*
X118437004Y-69019732D01*
X118437124Y-69019923D01*
X118437090Y-69019943D01*
X118462400Y-69081940D01*
X118456086Y-69135519D01*
X118409126Y-69269723D01*
X118409124Y-69269731D01*
X118388929Y-69448977D01*
X118388929Y-69448984D01*
X118409124Y-69628230D01*
X118409125Y-69628235D01*
X118468705Y-69798504D01*
X118564678Y-69951243D01*
X118570825Y-69957390D01*
X118604310Y-70018713D01*
X118599326Y-70088405D01*
X118557454Y-70144338D01*
X118549117Y-70150064D01*
X118397740Y-70245182D01*
X118397737Y-70245184D01*
X118270184Y-70372737D01*
X118174211Y-70525476D01*
X118114631Y-70695745D01*
X118114630Y-70695750D01*
X118094435Y-70874996D01*
X118094435Y-70875003D01*
X118114630Y-71054249D01*
X118114633Y-71054262D01*
X118174209Y-71224519D01*
X118203747Y-71271530D01*
X118222746Y-71338767D01*
X118203747Y-71403470D01*
X118174209Y-71450480D01*
X118114633Y-71620737D01*
X118114630Y-71620750D01*
X118094435Y-71799996D01*
X118094435Y-71800003D01*
X118114630Y-71979249D01*
X118114631Y-71979254D01*
X118174211Y-72149523D01*
X118270184Y-72302262D01*
X118397738Y-72429816D01*
X118550478Y-72525789D01*
X118720745Y-72585368D01*
X118720750Y-72585369D01*
X118899996Y-72605565D01*
X118900000Y-72605565D01*
X118900003Y-72605565D01*
X118983232Y-72596187D01*
X119036616Y-72590172D01*
X119105438Y-72602226D01*
X119156818Y-72649575D01*
X119174500Y-72713392D01*
X119174500Y-73050500D01*
X119154815Y-73117539D01*
X119102011Y-73163294D01*
X119055389Y-73173450D01*
X119055423Y-73174099D01*
X119055429Y-73174146D01*
X119055426Y-73174146D01*
X119055436Y-73174324D01*
X119052123Y-73174501D01*
X118992516Y-73180908D01*
X118857671Y-73231202D01*
X118857664Y-73231206D01*
X118742455Y-73317452D01*
X118742452Y-73317455D01*
X118656206Y-73432664D01*
X118656202Y-73432671D01*
X118605908Y-73567517D01*
X118599501Y-73627116D01*
X118599500Y-73627135D01*
X118599500Y-75072870D01*
X118599501Y-75072876D01*
X118605908Y-75132483D01*
X118656202Y-75267328D01*
X118656204Y-75267331D01*
X118670909Y-75286974D01*
X118695327Y-75352438D01*
X118680476Y-75420711D01*
X118631072Y-75470117D01*
X118571643Y-75485286D01*
X117864500Y-75485286D01*
X117797461Y-75465601D01*
X117751706Y-75412797D01*
X117740500Y-75361286D01*
X117740499Y-73602129D01*
X117740498Y-73602123D01*
X117734091Y-73542516D01*
X117683797Y-73407671D01*
X117683793Y-73407664D01*
X117597547Y-73292455D01*
X117597544Y-73292452D01*
X117482335Y-73206206D01*
X117482328Y-73206202D01*
X117347482Y-73155908D01*
X117347483Y-73155908D01*
X117287883Y-73149501D01*
X117287881Y-73149500D01*
X117287873Y-73149500D01*
X117287864Y-73149500D01*
X115492129Y-73149500D01*
X115492123Y-73149501D01*
X115432516Y-73155908D01*
X115297671Y-73206202D01*
X115297664Y-73206206D01*
X115182455Y-73292452D01*
X115182452Y-73292455D01*
X115096206Y-73407664D01*
X115096203Y-73407669D01*
X115047189Y-73539083D01*
X115005317Y-73595016D01*
X114939853Y-73619433D01*
X114871580Y-73604581D01*
X114843326Y-73583430D01*
X114721402Y-73461506D01*
X114721395Y-73461501D01*
X114527834Y-73325967D01*
X114527830Y-73325965D01*
X114516636Y-73320745D01*
X114313663Y-73226097D01*
X114313659Y-73226096D01*
X114313655Y-73226094D01*
X114085413Y-73164938D01*
X114085403Y-73164936D01*
X113850001Y-73144341D01*
X113849999Y-73144341D01*
X113614596Y-73164936D01*
X113614586Y-73164938D01*
X113386344Y-73226094D01*
X113386335Y-73226098D01*
X113172171Y-73325964D01*
X113172169Y-73325965D01*
X112978597Y-73461505D01*
X112811508Y-73628594D01*
X112681575Y-73814158D01*
X112626998Y-73857782D01*
X112557499Y-73864975D01*
X112495145Y-73833453D01*
X112478425Y-73814157D01*
X112348495Y-73628597D01*
X112181403Y-73461506D01*
X112181396Y-73461501D01*
X111987835Y-73325967D01*
X111987831Y-73325965D01*
X111976637Y-73320745D01*
X111773664Y-73226097D01*
X111773660Y-73226096D01*
X111773656Y-73226094D01*
X111545414Y-73164938D01*
X111545404Y-73164936D01*
X111310002Y-73144341D01*
X111310000Y-73144341D01*
X111074597Y-73164936D01*
X111074587Y-73164938D01*
X110846345Y-73226094D01*
X110846336Y-73226098D01*
X110632172Y-73325964D01*
X110632170Y-73325965D01*
X110438598Y-73461505D01*
X110271509Y-73628594D01*
X110141575Y-73814160D01*
X110086998Y-73857784D01*
X110017499Y-73864977D01*
X109955145Y-73833455D01*
X109938425Y-73814159D01*
X109808494Y-73628597D01*
X109641402Y-73461506D01*
X109641395Y-73461501D01*
X109447834Y-73325967D01*
X109447830Y-73325965D01*
X109436636Y-73320745D01*
X109233663Y-73226097D01*
X109233659Y-73226096D01*
X109233655Y-73226094D01*
X109005413Y-73164938D01*
X109005403Y-73164936D01*
X108770001Y-73144341D01*
X108769999Y-73144341D01*
X108534596Y-73164936D01*
X108534586Y-73164938D01*
X108306344Y-73226094D01*
X108306335Y-73226098D01*
X108092171Y-73325964D01*
X108092169Y-73325965D01*
X107898597Y-73461505D01*
X107731505Y-73628597D01*
X107595965Y-73822169D01*
X107595964Y-73822171D01*
X107496098Y-74036335D01*
X107496094Y-74036344D01*
X107434938Y-74264586D01*
X107434936Y-74264596D01*
X107414341Y-74499999D01*
X107414341Y-74500000D01*
X107434936Y-74735403D01*
X107434938Y-74735413D01*
X107496094Y-74963655D01*
X107496096Y-74963659D01*
X107496097Y-74963663D01*
X107547021Y-75072870D01*
X107595965Y-75177830D01*
X107595967Y-75177834D01*
X107674621Y-75290163D01*
X107696948Y-75356369D01*
X107679938Y-75424136D01*
X107628990Y-75471949D01*
X107573046Y-75485286D01*
X106622307Y-75485286D01*
X106555268Y-75465601D01*
X106509513Y-75412797D01*
X106499569Y-75343639D01*
X106511307Y-75306014D01*
X106511531Y-75305565D01*
X106575818Y-75176459D01*
X106635436Y-74966923D01*
X106655537Y-74750000D01*
X106635436Y-74533077D01*
X106575818Y-74323541D01*
X106478713Y-74128528D01*
X106347428Y-73954678D01*
X106186433Y-73807912D01*
X106186429Y-73807909D01*
X106186424Y-73807906D01*
X106001214Y-73693229D01*
X106001208Y-73693226D01*
X105890864Y-73650479D01*
X105798070Y-73614530D01*
X105583927Y-73574500D01*
X105366075Y-73574500D01*
X105151932Y-73614530D01*
X105119444Y-73627116D01*
X104948793Y-73693226D01*
X104948787Y-73693229D01*
X104763566Y-73807913D01*
X104752586Y-73817923D01*
X104689780Y-73848538D01*
X104620393Y-73840338D01*
X104569785Y-73800595D01*
X104507546Y-73717454D01*
X104475182Y-73693226D01*
X104392335Y-73631206D01*
X104392328Y-73631202D01*
X104257482Y-73580908D01*
X104257483Y-73580908D01*
X104197883Y-73574501D01*
X104197881Y-73574500D01*
X104197873Y-73574500D01*
X104197864Y-73574500D01*
X102752129Y-73574500D01*
X102752123Y-73574501D01*
X102692516Y-73580908D01*
X102557671Y-73631202D01*
X102557664Y-73631206D01*
X102442455Y-73717452D01*
X102442452Y-73717455D01*
X102356206Y-73832664D01*
X102356202Y-73832671D01*
X102305908Y-73967517D01*
X102302416Y-74000003D01*
X102299500Y-74027127D01*
X102299500Y-74749999D01*
X102299501Y-75361286D01*
X102279816Y-75428325D01*
X102227013Y-75474080D01*
X102175501Y-75485286D01*
X101353045Y-75485286D01*
X101286006Y-75465601D01*
X101240251Y-75412797D01*
X101230307Y-75343639D01*
X101236004Y-75320331D01*
X101285366Y-75179262D01*
X101285369Y-75179249D01*
X101305565Y-75000003D01*
X101305565Y-74999996D01*
X101285369Y-74820750D01*
X101285368Y-74820745D01*
X101225788Y-74650475D01*
X101172691Y-74565973D01*
X101153690Y-74498736D01*
X101172691Y-74434027D01*
X101225788Y-74349524D01*
X101225789Y-74349522D01*
X101285368Y-74179255D01*
X101285369Y-74179249D01*
X101305565Y-74000003D01*
X101305565Y-73999996D01*
X101285369Y-73820750D01*
X101285368Y-73820745D01*
X101225788Y-73650475D01*
X101172691Y-73565973D01*
X101153690Y-73498736D01*
X101172691Y-73434027D01*
X101225788Y-73349524D01*
X101225789Y-73349522D01*
X101285368Y-73179255D01*
X101286981Y-73164938D01*
X101305565Y-73000003D01*
X101305565Y-72999996D01*
X101285369Y-72820750D01*
X101285368Y-72820745D01*
X101225788Y-72650475D01*
X101172691Y-72565973D01*
X101153690Y-72498736D01*
X101172691Y-72434027D01*
X101225788Y-72349524D01*
X101225789Y-72349522D01*
X101285368Y-72179255D01*
X101285369Y-72179249D01*
X101305565Y-72000003D01*
X101305565Y-71999996D01*
X101285369Y-71820750D01*
X101285368Y-71820745D01*
X101243116Y-71699996D01*
X102194435Y-71699996D01*
X102194435Y-71700003D01*
X102214630Y-71879249D01*
X102214631Y-71879254D01*
X102274211Y-72049523D01*
X102355724Y-72179249D01*
X102370184Y-72202262D01*
X102497738Y-72329816D01*
X102650478Y-72425789D01*
X102674027Y-72434029D01*
X102820745Y-72485368D01*
X102820750Y-72485369D01*
X102999996Y-72505565D01*
X103000000Y-72505565D01*
X103000004Y-72505565D01*
X103179249Y-72485369D01*
X103179252Y-72485368D01*
X103179255Y-72485368D01*
X103349522Y-72425789D01*
X103502262Y-72329816D01*
X103629816Y-72202262D01*
X103725789Y-72049522D01*
X103785368Y-71879255D01*
X103788718Y-71849522D01*
X103805565Y-71700003D01*
X103805565Y-71699996D01*
X103785369Y-71520750D01*
X103785368Y-71520745D01*
X103760781Y-71450480D01*
X103725789Y-71350478D01*
X103725188Y-71349522D01*
X103662654Y-71250000D01*
X103629816Y-71197738D01*
X103502262Y-71070184D01*
X103451274Y-71038146D01*
X103349523Y-70974211D01*
X103179254Y-70914631D01*
X103179249Y-70914630D01*
X103000004Y-70894435D01*
X102999996Y-70894435D01*
X102820750Y-70914630D01*
X102820745Y-70914631D01*
X102650476Y-70974211D01*
X102497737Y-71070184D01*
X102370184Y-71197737D01*
X102274211Y-71350476D01*
X102214631Y-71520745D01*
X102214630Y-71520750D01*
X102194435Y-71699996D01*
X101243116Y-71699996D01*
X101225788Y-71650475D01*
X101172691Y-71565973D01*
X101153690Y-71498736D01*
X101172691Y-71434027D01*
X101225788Y-71349524D01*
X101225789Y-71349522D01*
X101285368Y-71179255D01*
X101285369Y-71179249D01*
X101305565Y-71000003D01*
X101305565Y-70999996D01*
X101285369Y-70820750D01*
X101285368Y-70820745D01*
X101225788Y-70650475D01*
X101172691Y-70565973D01*
X101153690Y-70498736D01*
X101172691Y-70434027D01*
X101225788Y-70349524D01*
X101225789Y-70349522D01*
X101285368Y-70179255D01*
X101285641Y-70176831D01*
X101305565Y-70000003D01*
X101305565Y-69999996D01*
X101285369Y-69820750D01*
X101285368Y-69820745D01*
X101282085Y-69811364D01*
X101225789Y-69650478D01*
X101211813Y-69628236D01*
X101183358Y-69582950D01*
X101129816Y-69497738D01*
X101002262Y-69370184D01*
X100849523Y-69274211D01*
X100679254Y-69214631D01*
X100679249Y-69214630D01*
X100500004Y-69194435D01*
X100499996Y-69194435D01*
X100320750Y-69214630D01*
X100320742Y-69214632D01*
X100165954Y-69268795D01*
X100096176Y-69272356D01*
X100084046Y-69268795D01*
X99929257Y-69214632D01*
X99929249Y-69214630D01*
X99750004Y-69194435D01*
X99749996Y-69194435D01*
X99570750Y-69214630D01*
X99570742Y-69214632D01*
X99415954Y-69268795D01*
X99346176Y-69272356D01*
X99334046Y-69268795D01*
X99179257Y-69214632D01*
X99179249Y-69214630D01*
X99000004Y-69194435D01*
X98999996Y-69194435D01*
X98820750Y-69214630D01*
X98820742Y-69214632D01*
X98665954Y-69268795D01*
X98596176Y-69272356D01*
X98584046Y-69268795D01*
X98429257Y-69214632D01*
X98429249Y-69214630D01*
X98250004Y-69194435D01*
X98249996Y-69194435D01*
X98070750Y-69214630D01*
X98070742Y-69214632D01*
X97915954Y-69268795D01*
X97846176Y-69272356D01*
X97834046Y-69268795D01*
X97679257Y-69214632D01*
X97679249Y-69214630D01*
X97500004Y-69194435D01*
X97499996Y-69194435D01*
X97320750Y-69214630D01*
X97320742Y-69214632D01*
X97165954Y-69268795D01*
X97096176Y-69272356D01*
X97084046Y-69268795D01*
X96929257Y-69214632D01*
X96929249Y-69214630D01*
X96750004Y-69194435D01*
X96749996Y-69194435D01*
X96570750Y-69214630D01*
X96570745Y-69214631D01*
X96400476Y-69274211D01*
X96247737Y-69370184D01*
X96120184Y-69497737D01*
X96024211Y-69650476D01*
X95964631Y-69820745D01*
X95964630Y-69820750D01*
X95944435Y-69999996D01*
X95944435Y-70000003D01*
X95964630Y-70179249D01*
X95964633Y-70179262D01*
X96024209Y-70349520D01*
X96077309Y-70434029D01*
X96096309Y-70501266D01*
X96077309Y-70565971D01*
X96024209Y-70650479D01*
X95964633Y-70820737D01*
X95964630Y-70820750D01*
X95944435Y-70999996D01*
X95944435Y-71000003D01*
X95964630Y-71179249D01*
X95964633Y-71179262D01*
X96024209Y-71349520D01*
X96077309Y-71434029D01*
X96096309Y-71501266D01*
X96077309Y-71565971D01*
X96024209Y-71650479D01*
X95964633Y-71820737D01*
X95964630Y-71820750D01*
X95944435Y-71999996D01*
X95944435Y-72000003D01*
X95964630Y-72179249D01*
X95964633Y-72179262D01*
X96024209Y-72349520D01*
X96077309Y-72434029D01*
X96096309Y-72501266D01*
X96077309Y-72565971D01*
X96024209Y-72650479D01*
X95964633Y-72820737D01*
X95964630Y-72820750D01*
X95944435Y-72999996D01*
X95944435Y-73000003D01*
X95964630Y-73179249D01*
X95964633Y-73179262D01*
X96024209Y-73349520D01*
X96077309Y-73434029D01*
X96096309Y-73501266D01*
X96077309Y-73565971D01*
X96024209Y-73650479D01*
X95964633Y-73820737D01*
X95964630Y-73820750D01*
X95944435Y-73999996D01*
X95944435Y-74000003D01*
X95964630Y-74179249D01*
X95964633Y-74179262D01*
X96024209Y-74349520D01*
X96077309Y-74434029D01*
X96096309Y-74501266D01*
X96077309Y-74565971D01*
X96024210Y-74650477D01*
X95979780Y-74777450D01*
X95939058Y-74834225D01*
X95874105Y-74859972D01*
X95805544Y-74846515D01*
X95763473Y-74810805D01*
X95758056Y-74803568D01*
X95748505Y-74788706D01*
X95654463Y-74616479D01*
X95647123Y-74600407D01*
X95578548Y-74416550D01*
X95573566Y-74399580D01*
X95562780Y-74349999D01*
X95531859Y-74207853D01*
X95529342Y-74190345D01*
X95528549Y-74179262D01*
X95515029Y-73990208D01*
X95514714Y-73981362D01*
X95514714Y-73954676D01*
X95514715Y-73919897D01*
X95514714Y-73919893D01*
X95514714Y-73911986D01*
X95514690Y-73911612D01*
X95514673Y-73857784D01*
X95513181Y-69029998D01*
X102994435Y-69029998D01*
X102994435Y-69030005D01*
X103014630Y-69209251D01*
X103014631Y-69209256D01*
X103074211Y-69379525D01*
X103138757Y-69482249D01*
X103170184Y-69532264D01*
X103297738Y-69659818D01*
X103328672Y-69679255D01*
X103443650Y-69751501D01*
X103450478Y-69755791D01*
X103572542Y-69798503D01*
X103620745Y-69815370D01*
X103620750Y-69815371D01*
X103806919Y-69836347D01*
X103806601Y-69839166D01*
X103861381Y-69855252D01*
X103907136Y-69908056D01*
X103917080Y-69977214D01*
X103911383Y-70000522D01*
X103901496Y-70028775D01*
X103901493Y-70028788D01*
X103881298Y-70208034D01*
X103881298Y-70208041D01*
X103901493Y-70387287D01*
X103901494Y-70387292D01*
X103961074Y-70557561D01*
X104043424Y-70688619D01*
X104057047Y-70710300D01*
X104184601Y-70837854D01*
X104243723Y-70875003D01*
X104312685Y-70918335D01*
X104337341Y-70933827D01*
X104382195Y-70949522D01*
X104507608Y-70993406D01*
X104507613Y-70993407D01*
X104686859Y-71013603D01*
X104686863Y-71013603D01*
X104686867Y-71013603D01*
X104866112Y-70993407D01*
X104866115Y-70993406D01*
X104866118Y-70993406D01*
X105036385Y-70933827D01*
X105189125Y-70837854D01*
X105316679Y-70710300D01*
X105412652Y-70557560D01*
X105472231Y-70387293D01*
X105472231Y-70387291D01*
X105472232Y-70387289D01*
X105473733Y-70380713D01*
X105507839Y-70319733D01*
X105569500Y-70286873D01*
X105639137Y-70292566D01*
X105694642Y-70335003D01*
X105717845Y-70394417D01*
X105726109Y-70467770D01*
X105726110Y-70467774D01*
X105785690Y-70638043D01*
X105862060Y-70759584D01*
X105881663Y-70790782D01*
X106009217Y-70918336D01*
X106161957Y-71014309D01*
X106309599Y-71065971D01*
X106332224Y-71073888D01*
X106332229Y-71073889D01*
X106511475Y-71094085D01*
X106511479Y-71094085D01*
X106511483Y-71094085D01*
X106690728Y-71073889D01*
X106690731Y-71073888D01*
X106690734Y-71073888D01*
X106690735Y-71073887D01*
X106690738Y-71073887D01*
X106746859Y-71054249D01*
X106831957Y-71024471D01*
X106901734Y-71020909D01*
X106962362Y-71055638D01*
X106977904Y-71075540D01*
X107050379Y-71190883D01*
X107050381Y-71190885D01*
X107177935Y-71318439D01*
X107330675Y-71414412D01*
X107483335Y-71467830D01*
X107500942Y-71473991D01*
X107500947Y-71473992D01*
X107680193Y-71494188D01*
X107680197Y-71494188D01*
X107680201Y-71494188D01*
X107859446Y-71473992D01*
X107859449Y-71473991D01*
X107859452Y-71473991D01*
X108029719Y-71414412D01*
X108182459Y-71318439D01*
X108310013Y-71190885D01*
X108405986Y-71038145D01*
X108465565Y-70867878D01*
X108465566Y-70867872D01*
X108485762Y-70688626D01*
X108485762Y-70688619D01*
X108465566Y-70509373D01*
X108465565Y-70509368D01*
X108422849Y-70387292D01*
X108416209Y-70368316D01*
X110252204Y-70368316D01*
X110252204Y-70368323D01*
X110272399Y-70547569D01*
X110272400Y-70547574D01*
X110331980Y-70717843D01*
X110414719Y-70849520D01*
X110427953Y-70870582D01*
X110555507Y-70998136D01*
X110644810Y-71054249D01*
X110708208Y-71094085D01*
X110708247Y-71094109D01*
X110714726Y-71096376D01*
X110771502Y-71137098D01*
X110797250Y-71202050D01*
X110796992Y-71227301D01*
X110794435Y-71249996D01*
X110794435Y-71250003D01*
X110814630Y-71429249D01*
X110814631Y-71429254D01*
X110874211Y-71599523D01*
X110937347Y-71700003D01*
X110970184Y-71752262D01*
X111097738Y-71879816D01*
X111184017Y-71934029D01*
X111231771Y-71964035D01*
X111250478Y-71975789D01*
X111354586Y-72012218D01*
X111420745Y-72035368D01*
X111420750Y-72035369D01*
X111599996Y-72055565D01*
X111600000Y-72055565D01*
X111600004Y-72055565D01*
X111779249Y-72035369D01*
X111779252Y-72035368D01*
X111779255Y-72035368D01*
X111949522Y-71975789D01*
X112102262Y-71879816D01*
X112229816Y-71752262D01*
X112325789Y-71599522D01*
X112385368Y-71429255D01*
X112385369Y-71429249D01*
X112405565Y-71250003D01*
X112405565Y-71249997D01*
X112400673Y-71206581D01*
X112412727Y-71137759D01*
X112460076Y-71086380D01*
X112527686Y-71068755D01*
X112589866Y-71087704D01*
X112650475Y-71125788D01*
X112820745Y-71185368D01*
X112820750Y-71185369D01*
X112999996Y-71205565D01*
X113000000Y-71205565D01*
X113000004Y-71205565D01*
X113179249Y-71185369D01*
X113179252Y-71185368D01*
X113179255Y-71185368D01*
X113349522Y-71125789D01*
X113502262Y-71029816D01*
X113629816Y-70902262D01*
X113719467Y-70759582D01*
X113771801Y-70713293D01*
X113840854Y-70702645D01*
X113904703Y-70731020D01*
X113941501Y-70784601D01*
X113999209Y-70949519D01*
X114049662Y-71029815D01*
X114095184Y-71102262D01*
X114222738Y-71229816D01*
X114313080Y-71286582D01*
X114367450Y-71320745D01*
X114375478Y-71325789D01*
X114545745Y-71385368D01*
X114545750Y-71385369D01*
X114724996Y-71405565D01*
X114725000Y-71405565D01*
X114725004Y-71405565D01*
X114904249Y-71385369D01*
X114904252Y-71385368D01*
X114904255Y-71385368D01*
X115074522Y-71325789D01*
X115227262Y-71229816D01*
X115354816Y-71102262D01*
X115450789Y-70949522D01*
X115510368Y-70779255D01*
X115510369Y-70779249D01*
X115530565Y-70600003D01*
X115530565Y-70599996D01*
X115510369Y-70420750D01*
X115510368Y-70420745D01*
X115498661Y-70387289D01*
X115450789Y-70250478D01*
X115447461Y-70245182D01*
X115387955Y-70150478D01*
X115354816Y-70097738D01*
X115227262Y-69970184D01*
X115215565Y-69962834D01*
X115074523Y-69874211D01*
X114904254Y-69814631D01*
X114904249Y-69814630D01*
X114725004Y-69794435D01*
X114724996Y-69794435D01*
X114545750Y-69814630D01*
X114545745Y-69814631D01*
X114375476Y-69874211D01*
X114222737Y-69970184D01*
X114095182Y-70097739D01*
X114005532Y-70240416D01*
X113953198Y-70286706D01*
X113884144Y-70297354D01*
X113820296Y-70268979D01*
X113783497Y-70215398D01*
X113774283Y-70189065D01*
X113725789Y-70050478D01*
X113629816Y-69897738D01*
X113502262Y-69770184D01*
X113451844Y-69738504D01*
X113349523Y-69674211D01*
X113179254Y-69614631D01*
X113179249Y-69614630D01*
X113000004Y-69594435D01*
X112999996Y-69594435D01*
X112820750Y-69614630D01*
X112820745Y-69614631D01*
X112650476Y-69674211D01*
X112497737Y-69770184D01*
X112370184Y-69897737D01*
X112274211Y-70050476D01*
X112214631Y-70220745D01*
X112214630Y-70220750D01*
X112195064Y-70394417D01*
X112194435Y-70400000D01*
X112196773Y-70420750D01*
X112199327Y-70443420D01*
X112187271Y-70512242D01*
X112139921Y-70563621D01*
X112072310Y-70581244D01*
X112010134Y-70562296D01*
X111949520Y-70524209D01*
X111943040Y-70521942D01*
X111886264Y-70481219D01*
X111860518Y-70416266D01*
X111860775Y-70391022D01*
X111863334Y-70368320D01*
X111846707Y-70220750D01*
X111843138Y-70189070D01*
X111843137Y-70189065D01*
X111817520Y-70115855D01*
X111783558Y-70018798D01*
X111772074Y-70000522D01*
X111730294Y-69934029D01*
X111687585Y-69866058D01*
X111560031Y-69738504D01*
X111507943Y-69705775D01*
X111407292Y-69642531D01*
X111237023Y-69582951D01*
X111237018Y-69582950D01*
X111057773Y-69562755D01*
X111057765Y-69562755D01*
X110878519Y-69582950D01*
X110878514Y-69582951D01*
X110708245Y-69642531D01*
X110555506Y-69738504D01*
X110427953Y-69866057D01*
X110331980Y-70018796D01*
X110272400Y-70189065D01*
X110272399Y-70189070D01*
X110252204Y-70368316D01*
X108416209Y-70368316D01*
X108405986Y-70339101D01*
X108310013Y-70186361D01*
X108182459Y-70058807D01*
X108029720Y-69962834D01*
X107859451Y-69903254D01*
X107859446Y-69903253D01*
X107680201Y-69883058D01*
X107680193Y-69883058D01*
X107500947Y-69903253D01*
X107500942Y-69903254D01*
X107359719Y-69952671D01*
X107289940Y-69956232D01*
X107229312Y-69921503D01*
X107213770Y-69901601D01*
X107162968Y-69820750D01*
X107141295Y-69786258D01*
X107013741Y-69658704D01*
X106954651Y-69621575D01*
X106861002Y-69562731D01*
X106690733Y-69503151D01*
X106690728Y-69503150D01*
X106511483Y-69482955D01*
X106511475Y-69482955D01*
X106332229Y-69503150D01*
X106332224Y-69503151D01*
X106161955Y-69562731D01*
X106009216Y-69658704D01*
X105881663Y-69786257D01*
X105785690Y-69938996D01*
X105726109Y-70109269D01*
X105724606Y-70115855D01*
X105690494Y-70176831D01*
X105628831Y-70209686D01*
X105559194Y-70203988D01*
X105503692Y-70161545D01*
X105480496Y-70102138D01*
X105472232Y-70028788D01*
X105472231Y-70028783D01*
X105449154Y-69962834D01*
X105412652Y-69858516D01*
X105406999Y-69849520D01*
X105357149Y-69770184D01*
X105316679Y-69705776D01*
X105189125Y-69578222D01*
X105171262Y-69566998D01*
X105036386Y-69482249D01*
X104866117Y-69422669D01*
X104866112Y-69422668D01*
X104679944Y-69401693D01*
X104680261Y-69398873D01*
X104625482Y-69382788D01*
X104579727Y-69329984D01*
X104569783Y-69260826D01*
X104575480Y-69237518D01*
X104585366Y-69209264D01*
X104585369Y-69209251D01*
X104605565Y-69030005D01*
X104605565Y-69029998D01*
X104585369Y-68850752D01*
X104585368Y-68850747D01*
X104542045Y-68726938D01*
X104525789Y-68680480D01*
X104429816Y-68527740D01*
X104302262Y-68400186D01*
X104268941Y-68379249D01*
X104149523Y-68304213D01*
X103979254Y-68244633D01*
X103979249Y-68244632D01*
X103800004Y-68224437D01*
X103799996Y-68224437D01*
X103620750Y-68244632D01*
X103620745Y-68244633D01*
X103450476Y-68304213D01*
X103297737Y-68400186D01*
X103170184Y-68527739D01*
X103074211Y-68680478D01*
X103014631Y-68850747D01*
X103014630Y-68850752D01*
X102994435Y-69029998D01*
X95513181Y-69029998D01*
X95512924Y-68199996D01*
X106919435Y-68199996D01*
X106919435Y-68200003D01*
X106939630Y-68379249D01*
X106939631Y-68379254D01*
X106999211Y-68549523D01*
X107081496Y-68680478D01*
X107095184Y-68702262D01*
X107222738Y-68829816D01*
X107375478Y-68925789D01*
X107545745Y-68985368D01*
X107545750Y-68985369D01*
X107724996Y-69005565D01*
X107725000Y-69005565D01*
X107725004Y-69005565D01*
X107904249Y-68985369D01*
X107904252Y-68985368D01*
X107904255Y-68985368D01*
X108074522Y-68925789D01*
X108126657Y-68893029D01*
X108193891Y-68874030D01*
X108260726Y-68894397D01*
X108305941Y-68947664D01*
X108314757Y-69013751D01*
X108315411Y-69013825D01*
X108315116Y-69016441D01*
X108315180Y-69016920D01*
X108314892Y-69018427D01*
X108294435Y-69199996D01*
X108294435Y-69200003D01*
X108314630Y-69379249D01*
X108314631Y-69379254D01*
X108374211Y-69549523D01*
X108452558Y-69674211D01*
X108470184Y-69702262D01*
X108597738Y-69829816D01*
X108629097Y-69849520D01*
X108705833Y-69897737D01*
X108750478Y-69925789D01*
X108856347Y-69962834D01*
X108920745Y-69985368D01*
X108920750Y-69985369D01*
X109099996Y-70005565D01*
X109100000Y-70005565D01*
X109100004Y-70005565D01*
X109279249Y-69985369D01*
X109279252Y-69985368D01*
X109279255Y-69985368D01*
X109449522Y-69925789D01*
X109602262Y-69829816D01*
X109729816Y-69702262D01*
X109825789Y-69549522D01*
X109885368Y-69379255D01*
X109886390Y-69370184D01*
X109905565Y-69200003D01*
X109905565Y-69199996D01*
X109885369Y-69020750D01*
X109885368Y-69020745D01*
X109825788Y-68850475D01*
X109777867Y-68774211D01*
X109748162Y-68726936D01*
X109729162Y-68659701D01*
X109736113Y-68620014D01*
X109773994Y-68511761D01*
X109785367Y-68479259D01*
X109785369Y-68479249D01*
X109805565Y-68300003D01*
X109805565Y-68299996D01*
X109785369Y-68120750D01*
X109785368Y-68120745D01*
X109723489Y-67943905D01*
X109725635Y-67943153D01*
X109716037Y-67884854D01*
X109724391Y-67856407D01*
X109723489Y-67856092D01*
X109785366Y-67679259D01*
X109785369Y-67679246D01*
X109805565Y-67500000D01*
X109805565Y-67499993D01*
X109785369Y-67320747D01*
X109785368Y-67320742D01*
X109750867Y-67222143D01*
X109725789Y-67150475D01*
X109725786Y-67150471D01*
X109648203Y-67026998D01*
X109629816Y-66997735D01*
X109502262Y-66870181D01*
X109349522Y-66774208D01*
X109276047Y-66748498D01*
X109227101Y-66731371D01*
X109170325Y-66690649D01*
X109144578Y-66625696D01*
X109158034Y-66557134D01*
X109163064Y-66548355D01*
X109186816Y-66510554D01*
X109186817Y-66510552D01*
X109186818Y-66510551D01*
X109246397Y-66340284D01*
X109246398Y-66340278D01*
X109266594Y-66161032D01*
X109266594Y-66161025D01*
X109246398Y-65981779D01*
X109246397Y-65981774D01*
X109186817Y-65811505D01*
X109147611Y-65749109D01*
X109090845Y-65658767D01*
X108963291Y-65531213D01*
X108919484Y-65503687D01*
X108810552Y-65435240D01*
X108640283Y-65375660D01*
X108640279Y-65375659D01*
X108596264Y-65370700D01*
X108531850Y-65343632D01*
X108492296Y-65286037D01*
X108490159Y-65216200D01*
X108493108Y-65206525D01*
X108550011Y-65043906D01*
X108550014Y-65043893D01*
X108570210Y-64864647D01*
X108570210Y-64864640D01*
X108550014Y-64685394D01*
X108550013Y-64685389D01*
X108537096Y-64648475D01*
X108509782Y-64570416D01*
X110075487Y-64570416D01*
X110075487Y-64570423D01*
X110095682Y-64749669D01*
X110095683Y-64749674D01*
X110155263Y-64919943D01*
X110206988Y-65002262D01*
X110251236Y-65072682D01*
X110378790Y-65200236D01*
X110452156Y-65246335D01*
X110514276Y-65285368D01*
X110531530Y-65296209D01*
X110628068Y-65329989D01*
X110701797Y-65355788D01*
X110701802Y-65355789D01*
X110881048Y-65375985D01*
X110881052Y-65375985D01*
X110881056Y-65375985D01*
X111060301Y-65355789D01*
X111060304Y-65355788D01*
X111060307Y-65355788D01*
X111230574Y-65296209D01*
X111383314Y-65200236D01*
X111510868Y-65072682D01*
X111548501Y-65012788D01*
X111600834Y-64966499D01*
X111669888Y-64955850D01*
X111733736Y-64984225D01*
X111772108Y-65042615D01*
X111776714Y-65092644D01*
X111770170Y-65150729D01*
X111770170Y-65150738D01*
X111790365Y-65329984D01*
X111790366Y-65329989D01*
X111849946Y-65500258D01*
X111902228Y-65583463D01*
X111945919Y-65652997D01*
X112073473Y-65780551D01*
X112122736Y-65811505D01*
X112201320Y-65860883D01*
X112226213Y-65876524D01*
X112396480Y-65936103D01*
X112396485Y-65936104D01*
X112575731Y-65956300D01*
X112575735Y-65956300D01*
X112575739Y-65956300D01*
X112754984Y-65936104D01*
X112754987Y-65936103D01*
X112754990Y-65936103D01*
X112925257Y-65876524D01*
X113077997Y-65780551D01*
X113205551Y-65652997D01*
X113301524Y-65500257D01*
X113361103Y-65329990D01*
X113364909Y-65296209D01*
X113381300Y-65150738D01*
X113381300Y-65150731D01*
X113361104Y-64971485D01*
X113361103Y-64971480D01*
X113343069Y-64919942D01*
X113301524Y-64801213D01*
X113269140Y-64749675D01*
X113255057Y-64727262D01*
X113205551Y-64648473D01*
X113077997Y-64520919D01*
X113065092Y-64512810D01*
X112925258Y-64424946D01*
X112754989Y-64365366D01*
X112754984Y-64365365D01*
X112575739Y-64345170D01*
X112575731Y-64345170D01*
X112396485Y-64365365D01*
X112396480Y-64365366D01*
X112226211Y-64424946D01*
X112073472Y-64520919D01*
X111945919Y-64648472D01*
X111945917Y-64648475D01*
X111908285Y-64708365D01*
X111855950Y-64754656D01*
X111786896Y-64765303D01*
X111723048Y-64736927D01*
X111684677Y-64678537D01*
X111680072Y-64628508D01*
X111686617Y-64570422D01*
X111686617Y-64570416D01*
X111666421Y-64391170D01*
X111666420Y-64391165D01*
X111661655Y-64377547D01*
X111606841Y-64220898D01*
X111510868Y-64068158D01*
X111383314Y-63940604D01*
X111279667Y-63875478D01*
X111230575Y-63844631D01*
X111060306Y-63785051D01*
X111060301Y-63785050D01*
X110881056Y-63764855D01*
X110881048Y-63764855D01*
X110701802Y-63785050D01*
X110701797Y-63785051D01*
X110531528Y-63844631D01*
X110378789Y-63940604D01*
X110251236Y-64068157D01*
X110155263Y-64220896D01*
X110095683Y-64391165D01*
X110095682Y-64391170D01*
X110075487Y-64570416D01*
X108509782Y-64570416D01*
X108490434Y-64515122D01*
X108488981Y-64512810D01*
X108442676Y-64439116D01*
X108394461Y-64362382D01*
X108266907Y-64234828D01*
X108251266Y-64225000D01*
X108114168Y-64138855D01*
X107943899Y-64079275D01*
X107943894Y-64079274D01*
X107764649Y-64059079D01*
X107764641Y-64059079D01*
X107585395Y-64079274D01*
X107585390Y-64079275D01*
X107415121Y-64138855D01*
X107262382Y-64234828D01*
X107134829Y-64362381D01*
X107038856Y-64515120D01*
X106979276Y-64685389D01*
X106979275Y-64685394D01*
X106959080Y-64864640D01*
X106959080Y-64864647D01*
X106979275Y-65043893D01*
X106979276Y-65043898D01*
X107038856Y-65214167D01*
X107127843Y-65355788D01*
X107134829Y-65366906D01*
X107262383Y-65494460D01*
X107415123Y-65590433D01*
X107585390Y-65650012D01*
X107585395Y-65650013D01*
X107629407Y-65654972D01*
X107693821Y-65682038D01*
X107733376Y-65739633D01*
X107735514Y-65809470D01*
X107732566Y-65819146D01*
X107675661Y-65981771D01*
X107675659Y-65981779D01*
X107655464Y-66161025D01*
X107655464Y-66161032D01*
X107675659Y-66340278D01*
X107675660Y-66340283D01*
X107735240Y-66510552D01*
X107786080Y-66591462D01*
X107831213Y-66663291D01*
X107958767Y-66790845D01*
X108111507Y-66886818D01*
X108233926Y-66929654D01*
X108290702Y-66970376D01*
X108316450Y-67035328D01*
X108302994Y-67103890D01*
X108297966Y-67112667D01*
X108274212Y-67150471D01*
X108214631Y-67320742D01*
X108214630Y-67320746D01*
X108210090Y-67361044D01*
X108183023Y-67425458D01*
X108125427Y-67465012D01*
X108055590Y-67467149D01*
X108045915Y-67464201D01*
X107904254Y-67414631D01*
X107904249Y-67414630D01*
X107725004Y-67394435D01*
X107724996Y-67394435D01*
X107545750Y-67414630D01*
X107545745Y-67414631D01*
X107375476Y-67474211D01*
X107222737Y-67570184D01*
X107095184Y-67697737D01*
X106999211Y-67850476D01*
X106939631Y-68020745D01*
X106939630Y-68020750D01*
X106919435Y-68199996D01*
X95512924Y-68199996D01*
X95511317Y-62999996D01*
X96094435Y-62999996D01*
X96094435Y-63000003D01*
X96114630Y-63179249D01*
X96114631Y-63179254D01*
X96174211Y-63349523D01*
X96215944Y-63415940D01*
X96270184Y-63502262D01*
X96397738Y-63629816D01*
X96421911Y-63645005D01*
X96421913Y-63645006D01*
X96468204Y-63697341D01*
X96478852Y-63766395D01*
X96450477Y-63830243D01*
X96421913Y-63854994D01*
X96397737Y-63870184D01*
X96270184Y-63997737D01*
X96174211Y-64150476D01*
X96114631Y-64320745D01*
X96114630Y-64320750D01*
X96094435Y-64499996D01*
X96094435Y-64500003D01*
X96114630Y-64679249D01*
X96114631Y-64679254D01*
X96174211Y-64849523D01*
X96257299Y-64981756D01*
X96270184Y-65002262D01*
X96397738Y-65129816D01*
X96488080Y-65186582D01*
X96531981Y-65214167D01*
X96550478Y-65225789D01*
X96609201Y-65246337D01*
X96720745Y-65285368D01*
X96720750Y-65285369D01*
X96899996Y-65305565D01*
X96900000Y-65305565D01*
X96900004Y-65305565D01*
X97079249Y-65285369D01*
X97079252Y-65285368D01*
X97079255Y-65285368D01*
X97249522Y-65225789D01*
X97384029Y-65141272D01*
X97451264Y-65122272D01*
X97515970Y-65141272D01*
X97580720Y-65181957D01*
X97650475Y-65225788D01*
X97820745Y-65285368D01*
X97820750Y-65285369D01*
X97999996Y-65305565D01*
X98000000Y-65305565D01*
X98000004Y-65305565D01*
X98179249Y-65285369D01*
X98179252Y-65285368D01*
X98179255Y-65285368D01*
X98349522Y-65225789D01*
X98484029Y-65141272D01*
X98551264Y-65122272D01*
X98615970Y-65141272D01*
X98680720Y-65181957D01*
X98750475Y-65225788D01*
X98920745Y-65285368D01*
X98920750Y-65285369D01*
X99099996Y-65305565D01*
X99100000Y-65305565D01*
X99100004Y-65305565D01*
X99279249Y-65285369D01*
X99279252Y-65285368D01*
X99279255Y-65285368D01*
X99449522Y-65225789D01*
X99602262Y-65129816D01*
X99729816Y-65002262D01*
X99825789Y-64849522D01*
X99885368Y-64679255D01*
X99885449Y-64678537D01*
X99905565Y-64500003D01*
X99905565Y-64499996D01*
X99885369Y-64320750D01*
X99885368Y-64320745D01*
X99830512Y-64163976D01*
X99825789Y-64150478D01*
X99729816Y-63997738D01*
X99602262Y-63870184D01*
X99578084Y-63854992D01*
X99531796Y-63802661D01*
X99521146Y-63733607D01*
X99549521Y-63669758D01*
X99578082Y-63645009D01*
X99602262Y-63629816D01*
X99729816Y-63502262D01*
X99825789Y-63349522D01*
X99838068Y-63314432D01*
X116906347Y-63314432D01*
X116906347Y-63314439D01*
X116926542Y-63493685D01*
X116926543Y-63493690D01*
X116986123Y-63663959D01*
X117062210Y-63785050D01*
X117082096Y-63816698D01*
X117209650Y-63944252D01*
X117362390Y-64040225D01*
X117503507Y-64089604D01*
X117532657Y-64099804D01*
X117532662Y-64099805D01*
X117711908Y-64120001D01*
X117711912Y-64120001D01*
X117711916Y-64120001D01*
X117891161Y-64099805D01*
X117891164Y-64099804D01*
X117891167Y-64099804D01*
X118061434Y-64040225D01*
X118214174Y-63944252D01*
X118341728Y-63816698D01*
X118437701Y-63663958D01*
X118497280Y-63493691D01*
X118497468Y-63492026D01*
X118517477Y-63314439D01*
X118517477Y-63314432D01*
X118497281Y-63135186D01*
X118497280Y-63135181D01*
X118449978Y-63000000D01*
X118437701Y-62964914D01*
X118430760Y-62953868D01*
X118352813Y-62829816D01*
X118341728Y-62812174D01*
X118214174Y-62684620D01*
X118199625Y-62675478D01*
X118061435Y-62588647D01*
X117891166Y-62529067D01*
X117891161Y-62529066D01*
X117711916Y-62508871D01*
X117711908Y-62508871D01*
X117532662Y-62529066D01*
X117532657Y-62529067D01*
X117362388Y-62588647D01*
X117209649Y-62684620D01*
X117082096Y-62812173D01*
X116986123Y-62964912D01*
X116926543Y-63135181D01*
X116926542Y-63135186D01*
X116906347Y-63314432D01*
X99838068Y-63314432D01*
X99885368Y-63179255D01*
X99894753Y-63095957D01*
X99921819Y-63031544D01*
X99979413Y-62991988D01*
X100031857Y-62986620D01*
X100199997Y-63005565D01*
X100200000Y-63005565D01*
X100200004Y-63005565D01*
X100379249Y-62985369D01*
X100379252Y-62985368D01*
X100379255Y-62985368D01*
X100549522Y-62925789D01*
X100702262Y-62829816D01*
X100829816Y-62702262D01*
X100925789Y-62549522D01*
X100985368Y-62379255D01*
X100991392Y-62325789D01*
X101004439Y-62209998D01*
X106294654Y-62209998D01*
X106294654Y-62210005D01*
X106314849Y-62389251D01*
X106314850Y-62389256D01*
X106374430Y-62559525D01*
X106447289Y-62675478D01*
X106470403Y-62712264D01*
X106597957Y-62839818D01*
X106750697Y-62935791D01*
X106802364Y-62953870D01*
X106920964Y-62995370D01*
X106920969Y-62995371D01*
X107100215Y-63015567D01*
X107100219Y-63015567D01*
X107100223Y-63015567D01*
X107279468Y-62995371D01*
X107279471Y-62995370D01*
X107279474Y-62995370D01*
X107449741Y-62935791D01*
X107602481Y-62839818D01*
X107730035Y-62712264D01*
X107826008Y-62559524D01*
X107885587Y-62389257D01*
X107886025Y-62385369D01*
X107905784Y-62210005D01*
X107905784Y-62210000D01*
X107900333Y-62161625D01*
X107912387Y-62092803D01*
X107959736Y-62041423D01*
X108027346Y-62023798D01*
X108064508Y-62030699D01*
X108220737Y-62085366D01*
X108220743Y-62085367D01*
X108220745Y-62085368D01*
X108220746Y-62085368D01*
X108220750Y-62085369D01*
X108399996Y-62105565D01*
X108400000Y-62105565D01*
X108400004Y-62105565D01*
X108579249Y-62085369D01*
X108579252Y-62085368D01*
X108579255Y-62085368D01*
X108749522Y-62025789D01*
X108768280Y-62014002D01*
X108835510Y-61995001D01*
X108902346Y-62015366D01*
X108939244Y-62053022D01*
X108970182Y-62102260D01*
X108970184Y-62102262D01*
X109097738Y-62229816D01*
X109250478Y-62325789D01*
X109355312Y-62362472D01*
X109420745Y-62385368D01*
X109420750Y-62385369D01*
X109599996Y-62405565D01*
X109600000Y-62405565D01*
X109600004Y-62405565D01*
X109779249Y-62385369D01*
X109779252Y-62385368D01*
X109779255Y-62385368D01*
X109949522Y-62325789D01*
X110051316Y-62261827D01*
X110118551Y-62242827D01*
X110183259Y-62261827D01*
X110216638Y-62282800D01*
X110248616Y-62302893D01*
X110408180Y-62358727D01*
X110418883Y-62362472D01*
X110418888Y-62362473D01*
X110598134Y-62382669D01*
X110598138Y-62382669D01*
X110598142Y-62382669D01*
X110777387Y-62362473D01*
X110777390Y-62362472D01*
X110777393Y-62362472D01*
X110947660Y-62302893D01*
X111100400Y-62206920D01*
X111227954Y-62079366D01*
X111323927Y-61926626D01*
X111383506Y-61756359D01*
X111398236Y-61625626D01*
X111403703Y-61577107D01*
X111403703Y-61577100D01*
X111388973Y-61446368D01*
X111715186Y-61446368D01*
X111715186Y-61446375D01*
X111735381Y-61625621D01*
X111735382Y-61625626D01*
X111794962Y-61795895D01*
X111835544Y-61860480D01*
X111890935Y-61948634D01*
X112018489Y-62076188D01*
X112062820Y-62104043D01*
X112158202Y-62163976D01*
X112171229Y-62172161D01*
X112317725Y-62223422D01*
X112341496Y-62231740D01*
X112341501Y-62231741D01*
X112520747Y-62251937D01*
X112520751Y-62251937D01*
X112520755Y-62251937D01*
X112700000Y-62231741D01*
X112700003Y-62231740D01*
X112700006Y-62231740D01*
X112870273Y-62172161D01*
X113023013Y-62076188D01*
X113136030Y-61963171D01*
X118257608Y-61963171D01*
X118257608Y-61963178D01*
X118277803Y-62142424D01*
X118277804Y-62142429D01*
X118337384Y-62312698D01*
X118379205Y-62379255D01*
X118433357Y-62465437D01*
X118560911Y-62592991D01*
X118651253Y-62649757D01*
X118706737Y-62684620D01*
X118713651Y-62688964D01*
X118751655Y-62702262D01*
X118883918Y-62748543D01*
X118883923Y-62748544D01*
X119063169Y-62768740D01*
X119063173Y-62768740D01*
X119063177Y-62768740D01*
X119242422Y-62748544D01*
X119242425Y-62748543D01*
X119242428Y-62748543D01*
X119412695Y-62688964D01*
X119565435Y-62592991D01*
X119692989Y-62465437D01*
X119788962Y-62312697D01*
X119848541Y-62142430D01*
X119848542Y-62142424D01*
X119868738Y-61963178D01*
X119868738Y-61963171D01*
X119848542Y-61783925D01*
X119848541Y-61783920D01*
X119822164Y-61708538D01*
X119788962Y-61613653D01*
X119692989Y-61460913D01*
X119565435Y-61333359D01*
X119460012Y-61267117D01*
X119412696Y-61237386D01*
X119242427Y-61177806D01*
X119242422Y-61177805D01*
X119063177Y-61157610D01*
X119063169Y-61157610D01*
X118883923Y-61177805D01*
X118883918Y-61177806D01*
X118713649Y-61237386D01*
X118560910Y-61333359D01*
X118433357Y-61460912D01*
X118337384Y-61613651D01*
X118277804Y-61783920D01*
X118277803Y-61783925D01*
X118257608Y-61963171D01*
X113136030Y-61963171D01*
X113150567Y-61948634D01*
X113246540Y-61795894D01*
X113306119Y-61625627D01*
X113307468Y-61613653D01*
X113326316Y-61446375D01*
X113326316Y-61446368D01*
X113306120Y-61267122D01*
X113306119Y-61267117D01*
X113274867Y-61177805D01*
X113246540Y-61096850D01*
X113232711Y-61074842D01*
X113172650Y-60979255D01*
X113150567Y-60944110D01*
X113023013Y-60816556D01*
X112997782Y-60800702D01*
X112870274Y-60720583D01*
X112700005Y-60661003D01*
X112700000Y-60661002D01*
X112520755Y-60640807D01*
X112520747Y-60640807D01*
X112341501Y-60661002D01*
X112341496Y-60661003D01*
X112171227Y-60720583D01*
X112018488Y-60816556D01*
X111890935Y-60944109D01*
X111794962Y-61096848D01*
X111735382Y-61267117D01*
X111735381Y-61267122D01*
X111715186Y-61446368D01*
X111388973Y-61446368D01*
X111383507Y-61397854D01*
X111383506Y-61397849D01*
X111359700Y-61329815D01*
X111323927Y-61227582D01*
X111308017Y-61202262D01*
X111245390Y-61102592D01*
X111227954Y-61074842D01*
X111222226Y-61069114D01*
X111188741Y-61007791D01*
X111186687Y-60967549D01*
X111205565Y-60800002D01*
X111205565Y-60799996D01*
X111185369Y-60620750D01*
X111185368Y-60620745D01*
X111162731Y-60556053D01*
X111125789Y-60450478D01*
X111118650Y-60439117D01*
X111079498Y-60376807D01*
X111029816Y-60297738D01*
X111001484Y-60269406D01*
X110967999Y-60208083D01*
X110972983Y-60138391D01*
X110984164Y-60115765D01*
X111025789Y-60049522D01*
X111085368Y-59879255D01*
X111085369Y-59879249D01*
X111105565Y-59700003D01*
X111105565Y-59699996D01*
X111085369Y-59520750D01*
X111085368Y-59520745D01*
X111051589Y-59424211D01*
X111025789Y-59350478D01*
X111023056Y-59346129D01*
X110963096Y-59250703D01*
X110929816Y-59197738D01*
X110802262Y-59070184D01*
X110649523Y-58974211D01*
X110479254Y-58914631D01*
X110479249Y-58914630D01*
X110300004Y-58894435D01*
X110299996Y-58894435D01*
X110120750Y-58914630D01*
X110120745Y-58914631D01*
X109950476Y-58974211D01*
X109797737Y-59070184D01*
X109670184Y-59197737D01*
X109574211Y-59350476D01*
X109514631Y-59520745D01*
X109514630Y-59520749D01*
X109503264Y-59621632D01*
X109476197Y-59686046D01*
X109418602Y-59725601D01*
X109348765Y-59727738D01*
X109288859Y-59691780D01*
X109275050Y-59673719D01*
X109258727Y-59647740D01*
X109131171Y-59520184D01*
X108978432Y-59424211D01*
X108808163Y-59364631D01*
X108808158Y-59364630D01*
X108628913Y-59344435D01*
X108628905Y-59344435D01*
X108449659Y-59364630D01*
X108449654Y-59364631D01*
X108279385Y-59424211D01*
X108126646Y-59520184D01*
X107999093Y-59647737D01*
X107903120Y-59800476D01*
X107843540Y-59970745D01*
X107843539Y-59970750D01*
X107823344Y-60149996D01*
X107823344Y-60150003D01*
X107843539Y-60329249D01*
X107843540Y-60329254D01*
X107903120Y-60499524D01*
X107914286Y-60517293D01*
X107933287Y-60584529D01*
X107912920Y-60651365D01*
X107896975Y-60670947D01*
X107770183Y-60797739D01*
X107674211Y-60950476D01*
X107614631Y-61120745D01*
X107614630Y-61120750D01*
X107594435Y-61299996D01*
X107594435Y-61300004D01*
X107599885Y-61348378D01*
X107587830Y-61417200D01*
X107540481Y-61468579D01*
X107472870Y-61486203D01*
X107435711Y-61479303D01*
X107279476Y-61424634D01*
X107279468Y-61424632D01*
X107100223Y-61404437D01*
X107100215Y-61404437D01*
X106920969Y-61424632D01*
X106920964Y-61424633D01*
X106750695Y-61484213D01*
X106597956Y-61580186D01*
X106470403Y-61707739D01*
X106374430Y-61860478D01*
X106314850Y-62030747D01*
X106314849Y-62030752D01*
X106294654Y-62209998D01*
X101004439Y-62209998D01*
X101005565Y-62200003D01*
X101005565Y-62199996D01*
X100985369Y-62020750D01*
X100985368Y-62020745D01*
X100959849Y-61947816D01*
X100925789Y-61850478D01*
X100829816Y-61697738D01*
X100702262Y-61570184D01*
X100599422Y-61505565D01*
X100549523Y-61474211D01*
X100379254Y-61414631D01*
X100379249Y-61414630D01*
X100200004Y-61394435D01*
X100199996Y-61394435D01*
X100020750Y-61414630D01*
X100020745Y-61414631D01*
X99850476Y-61474211D01*
X99697737Y-61570184D01*
X99570184Y-61697737D01*
X99474211Y-61850476D01*
X99414631Y-62020745D01*
X99414630Y-62020749D01*
X99405246Y-62104043D01*
X99378179Y-62168457D01*
X99320585Y-62208012D01*
X99268143Y-62213379D01*
X99100004Y-62194435D01*
X99099996Y-62194435D01*
X98920750Y-62214630D01*
X98920745Y-62214631D01*
X98750476Y-62274211D01*
X98615972Y-62358727D01*
X98548736Y-62377727D01*
X98484028Y-62358727D01*
X98349523Y-62274211D01*
X98179254Y-62214631D01*
X98179249Y-62214630D01*
X98000004Y-62194435D01*
X97999996Y-62194435D01*
X97820750Y-62214630D01*
X97820745Y-62214631D01*
X97650476Y-62274211D01*
X97515972Y-62358727D01*
X97448736Y-62377727D01*
X97384028Y-62358727D01*
X97249523Y-62274211D01*
X97079254Y-62214631D01*
X97079249Y-62214630D01*
X96900004Y-62194435D01*
X96899996Y-62194435D01*
X96720750Y-62214630D01*
X96720745Y-62214631D01*
X96550476Y-62274211D01*
X96397737Y-62370184D01*
X96270184Y-62497737D01*
X96174211Y-62650476D01*
X96114631Y-62820745D01*
X96114630Y-62820750D01*
X96094435Y-62999996D01*
X95511317Y-62999996D01*
X95510359Y-59900000D01*
X103694659Y-59900000D01*
X103713975Y-60096129D01*
X103713976Y-60096132D01*
X103770601Y-60282800D01*
X103771188Y-60284733D01*
X103864086Y-60458532D01*
X103864090Y-60458539D01*
X103989116Y-60610883D01*
X104141460Y-60735909D01*
X104141467Y-60735913D01*
X104315266Y-60828811D01*
X104315269Y-60828811D01*
X104315273Y-60828814D01*
X104503868Y-60886024D01*
X104700000Y-60905341D01*
X104896132Y-60886024D01*
X105084727Y-60828814D01*
X105111264Y-60814630D01*
X105258532Y-60735913D01*
X105258538Y-60735910D01*
X105410883Y-60610883D01*
X105535910Y-60458538D01*
X105567389Y-60399644D01*
X105616350Y-60349801D01*
X105684488Y-60334340D01*
X105750167Y-60358171D01*
X105792537Y-60413728D01*
X105799967Y-60444214D01*
X105812568Y-60556054D01*
X105812569Y-60556058D01*
X105872149Y-60726327D01*
X105937635Y-60830547D01*
X105968122Y-60879066D01*
X106095676Y-61006620D01*
X106097540Y-61007791D01*
X106204250Y-61074842D01*
X106248416Y-61102593D01*
X106405646Y-61157610D01*
X106418683Y-61162172D01*
X106418688Y-61162173D01*
X106597934Y-61182369D01*
X106597938Y-61182369D01*
X106597942Y-61182369D01*
X106777187Y-61162173D01*
X106777190Y-61162172D01*
X106777193Y-61162172D01*
X106947460Y-61102593D01*
X107100200Y-61006620D01*
X107227754Y-60879066D01*
X107323727Y-60726326D01*
X107383306Y-60556059D01*
X107383307Y-60556053D01*
X107403503Y-60376807D01*
X107403503Y-60376800D01*
X107383307Y-60197554D01*
X107383306Y-60197549D01*
X107356556Y-60121102D01*
X107323727Y-60027282D01*
X107317391Y-60017199D01*
X107261137Y-59927671D01*
X107227754Y-59874542D01*
X107100200Y-59746988D01*
X107039009Y-59708539D01*
X106947461Y-59651015D01*
X106777192Y-59591435D01*
X106777187Y-59591434D01*
X106597942Y-59571239D01*
X106597934Y-59571239D01*
X106418688Y-59591434D01*
X106418683Y-59591435D01*
X106248414Y-59651015D01*
X106095675Y-59746988D01*
X105968120Y-59874543D01*
X105931646Y-59932592D01*
X105879311Y-59978883D01*
X105810258Y-59989530D01*
X105746410Y-59961155D01*
X105708038Y-59902765D01*
X105703250Y-59878773D01*
X105702990Y-59876137D01*
X105686024Y-59703868D01*
X105628814Y-59515273D01*
X105628811Y-59515269D01*
X105628811Y-59515266D01*
X105535913Y-59341467D01*
X105535909Y-59341460D01*
X105410883Y-59189116D01*
X105258539Y-59064090D01*
X105258532Y-59064086D01*
X105084733Y-58971188D01*
X105084727Y-58971186D01*
X104898295Y-58914632D01*
X104896129Y-58913975D01*
X104700000Y-58894659D01*
X104503870Y-58913975D01*
X104315266Y-58971188D01*
X104141467Y-59064086D01*
X104141460Y-59064090D01*
X103989116Y-59189116D01*
X103864090Y-59341460D01*
X103864086Y-59341467D01*
X103771188Y-59515266D01*
X103713975Y-59703870D01*
X103694659Y-59900000D01*
X95510359Y-59900000D01*
X95510004Y-58751434D01*
X95529668Y-58684390D01*
X95582458Y-58638619D01*
X95651613Y-58628654D01*
X95674959Y-58634356D01*
X95820737Y-58685366D01*
X95820743Y-58685367D01*
X95820745Y-58685368D01*
X95820746Y-58685368D01*
X95820750Y-58685369D01*
X95999996Y-58705565D01*
X96000000Y-58705565D01*
X96000004Y-58705565D01*
X96179249Y-58685369D01*
X96179252Y-58685368D01*
X96179255Y-58685368D01*
X96349522Y-58625789D01*
X96502262Y-58529816D01*
X96629816Y-58402262D01*
X96725789Y-58249522D01*
X96785368Y-58079255D01*
X96785670Y-58076579D01*
X96805565Y-57900003D01*
X96805565Y-57899996D01*
X96785369Y-57720750D01*
X96785368Y-57720745D01*
X96778108Y-57699996D01*
X110775196Y-57699996D01*
X110775196Y-57700003D01*
X110795391Y-57879249D01*
X110795392Y-57879254D01*
X110854972Y-58049523D01*
X110922971Y-58157742D01*
X110950945Y-58202262D01*
X111078499Y-58329816D01*
X111161853Y-58382191D01*
X111218301Y-58417660D01*
X111231239Y-58425789D01*
X111385639Y-58479816D01*
X111401506Y-58485368D01*
X111401511Y-58485369D01*
X111580757Y-58505565D01*
X111580761Y-58505565D01*
X111580765Y-58505565D01*
X111760010Y-58485369D01*
X111760013Y-58485368D01*
X111760016Y-58485368D01*
X111930283Y-58425789D01*
X111945043Y-58416515D01*
X111980025Y-58394534D01*
X112027221Y-58364878D01*
X112094457Y-58345878D01*
X112161292Y-58366245D01*
X112180874Y-58382191D01*
X112278499Y-58479816D01*
X112431239Y-58575789D01*
X112598208Y-58634214D01*
X112601506Y-58635368D01*
X112601511Y-58635369D01*
X112780757Y-58655565D01*
X112780761Y-58655565D01*
X112780764Y-58655565D01*
X112814036Y-58651816D01*
X112882858Y-58663870D01*
X112934238Y-58711219D01*
X112951140Y-58761152D01*
X112970271Y-58930947D01*
X112970272Y-58930951D01*
X113029851Y-59101218D01*
X113035361Y-59109986D01*
X113054362Y-59177223D01*
X113035365Y-59241927D01*
X113029850Y-59250703D01*
X112970274Y-59420961D01*
X112970271Y-59420974D01*
X112950076Y-59600220D01*
X112950076Y-59600227D01*
X112970271Y-59779473D01*
X112970272Y-59779478D01*
X113029852Y-59949747D01*
X113125824Y-60102485D01*
X113125825Y-60102486D01*
X113253379Y-60230040D01*
X113316030Y-60269406D01*
X113387143Y-60314090D01*
X113406119Y-60326013D01*
X113507841Y-60361607D01*
X113576386Y-60385592D01*
X113576391Y-60385593D01*
X113755637Y-60405789D01*
X113755641Y-60405789D01*
X113755645Y-60405789D01*
X113934890Y-60385593D01*
X113934893Y-60385592D01*
X113934896Y-60385592D01*
X114105163Y-60326013D01*
X114257903Y-60230040D01*
X114385457Y-60102486D01*
X114402944Y-60074654D01*
X114455277Y-60028364D01*
X114524330Y-60017714D01*
X114573910Y-60035632D01*
X114680305Y-60102485D01*
X114709936Y-60121103D01*
X114820081Y-60159644D01*
X114876857Y-60200366D01*
X114896169Y-60235731D01*
X114934711Y-60345879D01*
X115005496Y-60458532D01*
X115030684Y-60498618D01*
X115158238Y-60626172D01*
X115310978Y-60722145D01*
X115434211Y-60765266D01*
X115481245Y-60781724D01*
X115481250Y-60781725D01*
X115660496Y-60801921D01*
X115660500Y-60801921D01*
X115660504Y-60801921D01*
X115839749Y-60781725D01*
X115839752Y-60781724D01*
X115839755Y-60781724D01*
X116010022Y-60722145D01*
X116162762Y-60626172D01*
X116215339Y-60573594D01*
X116276660Y-60540110D01*
X116346352Y-60545094D01*
X116402285Y-60586965D01*
X116426703Y-60652429D01*
X116426240Y-60675158D01*
X116423441Y-60700003D01*
X116443636Y-60879249D01*
X116443637Y-60879254D01*
X116503217Y-61049523D01*
X116571133Y-61157610D01*
X116599190Y-61202262D01*
X116726744Y-61329816D01*
X116817086Y-61386582D01*
X116877645Y-61424634D01*
X116879484Y-61425789D01*
X116979860Y-61460912D01*
X117049751Y-61485368D01*
X117049756Y-61485369D01*
X117229002Y-61505565D01*
X117229006Y-61505565D01*
X117229010Y-61505565D01*
X117408255Y-61485369D01*
X117408258Y-61485368D01*
X117408261Y-61485368D01*
X117578528Y-61425789D01*
X117731268Y-61329816D01*
X117858822Y-61202262D01*
X117954795Y-61049522D01*
X118014374Y-60879255D01*
X118014396Y-60879066D01*
X118023225Y-60800702D01*
X118027848Y-60759664D01*
X118054914Y-60695251D01*
X118110111Y-60656507D01*
X118274522Y-60598978D01*
X118427262Y-60503005D01*
X118554816Y-60375451D01*
X118650789Y-60222711D01*
X118710368Y-60052444D01*
X118710698Y-60049522D01*
X118722975Y-59940551D01*
X118750041Y-59876137D01*
X118807635Y-59836582D01*
X118877472Y-59834443D01*
X118912167Y-59849440D01*
X119030172Y-59923588D01*
X119033833Y-59925888D01*
X119162027Y-59970745D01*
X119204100Y-59985467D01*
X119204105Y-59985468D01*
X119383351Y-60005664D01*
X119383355Y-60005664D01*
X119383359Y-60005664D01*
X119562604Y-59985468D01*
X119562606Y-59985467D01*
X119562610Y-59985467D01*
X119562613Y-59985465D01*
X119562617Y-59985465D01*
X119739450Y-59923588D01*
X119740396Y-59926293D01*
X119796622Y-59917025D01*
X119827055Y-59925958D01*
X119827261Y-59925371D01*
X120004101Y-59987250D01*
X120004106Y-59987251D01*
X120183352Y-60007447D01*
X120183356Y-60007447D01*
X120183360Y-60007447D01*
X120362605Y-59987251D01*
X120362608Y-59987250D01*
X120362611Y-59987250D01*
X120532878Y-59927671D01*
X120685618Y-59831698D01*
X120813172Y-59704144D01*
X120813181Y-59704129D01*
X120813282Y-59704004D01*
X120813382Y-59703933D01*
X120818096Y-59699220D01*
X120818921Y-59700045D01*
X120870468Y-59663860D01*
X120940279Y-59661005D01*
X121000552Y-59696346D01*
X121028894Y-59745311D01*
X121068097Y-59874543D01*
X121071188Y-59884733D01*
X121164086Y-60058532D01*
X121164090Y-60058539D01*
X121289116Y-60210883D01*
X121441460Y-60335909D01*
X121441467Y-60335913D01*
X121615266Y-60428811D01*
X121615269Y-60428811D01*
X121615273Y-60428814D01*
X121803868Y-60486024D01*
X122000000Y-60505341D01*
X122196132Y-60486024D01*
X122384727Y-60428814D01*
X122439297Y-60399646D01*
X122510462Y-60361607D01*
X122558538Y-60335910D01*
X122710883Y-60210883D01*
X122835910Y-60058538D01*
X122905860Y-59927671D01*
X122928811Y-59884733D01*
X122928811Y-59884732D01*
X122928814Y-59884727D01*
X122986024Y-59696132D01*
X123005341Y-59500000D01*
X122986024Y-59303868D01*
X122928814Y-59115273D01*
X122898442Y-59058452D01*
X122884201Y-58990051D01*
X122898443Y-58941546D01*
X122904107Y-58930951D01*
X122928814Y-58884727D01*
X122986024Y-58696132D01*
X123005341Y-58500000D01*
X122986024Y-58303868D01*
X122928814Y-58115273D01*
X122898442Y-58058452D01*
X122884201Y-57990051D01*
X122898443Y-57941546D01*
X122905828Y-57927731D01*
X122928814Y-57884727D01*
X122986024Y-57696132D01*
X123005341Y-57500000D01*
X122986024Y-57303868D01*
X122928814Y-57115273D01*
X122928471Y-57114632D01*
X122904713Y-57070184D01*
X122898442Y-57058452D01*
X122884201Y-56990051D01*
X122898443Y-56941546D01*
X122912830Y-56914631D01*
X122928814Y-56884727D01*
X122986024Y-56696132D01*
X123005341Y-56500000D01*
X122986024Y-56303868D01*
X122928814Y-56115273D01*
X122898442Y-56058452D01*
X122884201Y-55990051D01*
X122898443Y-55941546D01*
X122906986Y-55925565D01*
X122928814Y-55884727D01*
X122986024Y-55696132D01*
X123005341Y-55500000D01*
X122986024Y-55303868D01*
X122928814Y-55115273D01*
X122928811Y-55115269D01*
X122928811Y-55115266D01*
X122835913Y-54941467D01*
X122835909Y-54941460D01*
X122710883Y-54789116D01*
X122558539Y-54664090D01*
X122558532Y-54664086D01*
X122384733Y-54571188D01*
X122384727Y-54571186D01*
X122196132Y-54513976D01*
X122196129Y-54513975D01*
X122000000Y-54494659D01*
X121803870Y-54513975D01*
X121615266Y-54571188D01*
X121441467Y-54664086D01*
X121441461Y-54664090D01*
X121321170Y-54762810D01*
X121256860Y-54790122D01*
X121187993Y-54778331D01*
X121136433Y-54731178D01*
X121119286Y-54680841D01*
X121114693Y-54640073D01*
X121055114Y-54469806D01*
X121051522Y-54464090D01*
X121006336Y-54392176D01*
X120959141Y-54317066D01*
X120831587Y-54189512D01*
X120790947Y-54163976D01*
X120678848Y-54093539D01*
X120508579Y-54033959D01*
X120508574Y-54033958D01*
X120329329Y-54013763D01*
X120329321Y-54013763D01*
X120150075Y-54033958D01*
X120150070Y-54033959D01*
X119979801Y-54093539D01*
X119827062Y-54189512D01*
X119699509Y-54317065D01*
X119603536Y-54469804D01*
X119543956Y-54640073D01*
X119543955Y-54640078D01*
X119523760Y-54819324D01*
X119523760Y-54819331D01*
X119543955Y-54998577D01*
X119543956Y-54998582D01*
X119603536Y-55168851D01*
X119688375Y-55303870D01*
X119699509Y-55321590D01*
X119827063Y-55449144D01*
X119926907Y-55511880D01*
X119952049Y-55527678D01*
X119998340Y-55580013D01*
X120008988Y-55649066D01*
X119991073Y-55698641D01*
X119974209Y-55725481D01*
X119914633Y-55895737D01*
X119914630Y-55895750D01*
X119894435Y-56074996D01*
X119894435Y-56080500D01*
X119874750Y-56147539D01*
X119821946Y-56193294D01*
X119752788Y-56203238D01*
X119689232Y-56174213D01*
X119682754Y-56168181D01*
X119657262Y-56142689D01*
X119504523Y-56046716D01*
X119334254Y-55987136D01*
X119334249Y-55987135D01*
X119155004Y-55966940D01*
X119154996Y-55966940D01*
X118975750Y-55987135D01*
X118975745Y-55987136D01*
X118805476Y-56046716D01*
X118652737Y-56142689D01*
X118525184Y-56270242D01*
X118429211Y-56422981D01*
X118369631Y-56593250D01*
X118369630Y-56593255D01*
X118349435Y-56772501D01*
X118349435Y-56774779D01*
X118349018Y-56776197D01*
X118348655Y-56779424D01*
X118348089Y-56779360D01*
X118329750Y-56841818D01*
X118276946Y-56887573D01*
X118207788Y-56897517D01*
X118144232Y-56868492D01*
X118120442Y-56840753D01*
X118119430Y-56839143D01*
X118113115Y-56829092D01*
X117985561Y-56701538D01*
X117894415Y-56644267D01*
X117832822Y-56605565D01*
X117662553Y-56545985D01*
X117662548Y-56545984D01*
X117483303Y-56525789D01*
X117483295Y-56525789D01*
X117304049Y-56545984D01*
X117304044Y-56545985D01*
X117133775Y-56605565D01*
X116981036Y-56701538D01*
X116853483Y-56829091D01*
X116757510Y-56981830D01*
X116697930Y-57152099D01*
X116697929Y-57152104D01*
X116677734Y-57331350D01*
X116677734Y-57331357D01*
X116697929Y-57510603D01*
X116697930Y-57510608D01*
X116757510Y-57680877D01*
X116853481Y-57833613D01*
X116853483Y-57833616D01*
X116981037Y-57961170D01*
X117070207Y-58017199D01*
X117107676Y-58040743D01*
X117133777Y-58057143D01*
X117244881Y-58096020D01*
X117304044Y-58116722D01*
X117304049Y-58116723D01*
X117483295Y-58136919D01*
X117483299Y-58136919D01*
X117483303Y-58136919D01*
X117662548Y-58116723D01*
X117662550Y-58116722D01*
X117662554Y-58116722D01*
X117662557Y-58116720D01*
X117662561Y-58116720D01*
X117711536Y-58099583D01*
X117781314Y-58096020D01*
X117841942Y-58130749D01*
X117874169Y-58192742D01*
X117867765Y-58262318D01*
X117840173Y-58304305D01*
X117725183Y-58419295D01*
X117629211Y-58572033D01*
X117576056Y-58723942D01*
X117535334Y-58780718D01*
X117470381Y-58806465D01*
X117401819Y-58793009D01*
X117351417Y-58744621D01*
X117341972Y-58723942D01*
X117337520Y-58711219D01*
X117311142Y-58635835D01*
X117215169Y-58483095D01*
X117087615Y-58355541D01*
X117082397Y-58352262D01*
X116934876Y-58259568D01*
X116764607Y-58199988D01*
X116764602Y-58199987D01*
X116585357Y-58179792D01*
X116585349Y-58179792D01*
X116474917Y-58192234D01*
X116406095Y-58180179D01*
X116354716Y-58132830D01*
X116337814Y-58082899D01*
X116333065Y-58040745D01*
X116273486Y-57870478D01*
X116272024Y-57868152D01*
X116232866Y-57805831D01*
X116177513Y-57717738D01*
X116049959Y-57590184D01*
X115998538Y-57557874D01*
X115897220Y-57494211D01*
X115726951Y-57434631D01*
X115726946Y-57434630D01*
X115547701Y-57414435D01*
X115547693Y-57414435D01*
X115368447Y-57434630D01*
X115368442Y-57434631D01*
X115198173Y-57494211D01*
X115045434Y-57590184D01*
X114917881Y-57717737D01*
X114917879Y-57717740D01*
X114862527Y-57805831D01*
X114810192Y-57852122D01*
X114771419Y-57863078D01*
X114726391Y-57868151D01*
X114726387Y-57868152D01*
X114556118Y-57927731D01*
X114403374Y-58023707D01*
X114356872Y-58070209D01*
X114295549Y-58103693D01*
X114225857Y-58098708D01*
X114203220Y-58087521D01*
X114105164Y-58025908D01*
X113934895Y-57966328D01*
X113934890Y-57966327D01*
X113755645Y-57946132D01*
X113755638Y-57946132D01*
X113722365Y-57949881D01*
X113653543Y-57937827D01*
X113602163Y-57890478D01*
X113585261Y-57840544D01*
X113566130Y-57670750D01*
X113566129Y-57670745D01*
X113537939Y-57590184D01*
X113506550Y-57500478D01*
X113410577Y-57347738D01*
X113283023Y-57220184D01*
X113257459Y-57204121D01*
X113130284Y-57124211D01*
X112960015Y-57064631D01*
X112960010Y-57064630D01*
X112780765Y-57044435D01*
X112780757Y-57044435D01*
X112601511Y-57064630D01*
X112601506Y-57064631D01*
X112431237Y-57124211D01*
X112334300Y-57185121D01*
X112267063Y-57204121D01*
X112200228Y-57183753D01*
X112180647Y-57167808D01*
X112083023Y-57070184D01*
X111930284Y-56974211D01*
X111760015Y-56914631D01*
X111760010Y-56914630D01*
X111580765Y-56894435D01*
X111580757Y-56894435D01*
X111401511Y-56914630D01*
X111401506Y-56914631D01*
X111231237Y-56974211D01*
X111078498Y-57070184D01*
X110950945Y-57197737D01*
X110854972Y-57350476D01*
X110795392Y-57520745D01*
X110795391Y-57520750D01*
X110775196Y-57699996D01*
X96778108Y-57699996D01*
X96725789Y-57550478D01*
X96707106Y-57520745D01*
X96640307Y-57414435D01*
X96629816Y-57397738D01*
X96502262Y-57270184D01*
X96422688Y-57220184D01*
X96349523Y-57174211D01*
X96179254Y-57114631D01*
X96179249Y-57114630D01*
X96000004Y-57094435D01*
X95999996Y-57094435D01*
X95820750Y-57114630D01*
X95820745Y-57114631D01*
X95674432Y-57165829D01*
X95604653Y-57169390D01*
X95544025Y-57134661D01*
X95511798Y-57072668D01*
X95509477Y-57048834D01*
X95507700Y-51299996D01*
X99194435Y-51299996D01*
X99194435Y-51300003D01*
X99214630Y-51479249D01*
X99214632Y-51479257D01*
X99260047Y-51609046D01*
X99263608Y-51678825D01*
X99260047Y-51690954D01*
X99214632Y-51820742D01*
X99214630Y-51820750D01*
X99194435Y-51999996D01*
X99194435Y-52000003D01*
X99214630Y-52179249D01*
X99214633Y-52179262D01*
X99276510Y-52356094D01*
X99274364Y-52356844D01*
X99283962Y-52415144D01*
X99275609Y-52443590D01*
X99276510Y-52443906D01*
X99214633Y-52620737D01*
X99214630Y-52620750D01*
X99194435Y-52799996D01*
X99194435Y-52800003D01*
X99214630Y-52979249D01*
X99214631Y-52979254D01*
X99274211Y-53149523D01*
X99326597Y-53232894D01*
X99370184Y-53302262D01*
X99497738Y-53429816D01*
X99521911Y-53445005D01*
X99521913Y-53445006D01*
X99568204Y-53497341D01*
X99578852Y-53566395D01*
X99550477Y-53630243D01*
X99521913Y-53654994D01*
X99497737Y-53670184D01*
X99370184Y-53797737D01*
X99274211Y-53950476D01*
X99214631Y-54120745D01*
X99214630Y-54120750D01*
X99194435Y-54299996D01*
X99194435Y-54300003D01*
X99214631Y-54479253D01*
X99214631Y-54479254D01*
X99242551Y-54559047D01*
X99246112Y-54628826D01*
X99242551Y-54640953D01*
X99214631Y-54720745D01*
X99214631Y-54720746D01*
X99194435Y-54899996D01*
X99194435Y-54900003D01*
X99214631Y-55079253D01*
X99214631Y-55079254D01*
X99242551Y-55159047D01*
X99246112Y-55228826D01*
X99242551Y-55240953D01*
X99214631Y-55320745D01*
X99214631Y-55320746D01*
X99194435Y-55499996D01*
X99194435Y-55500003D01*
X99214630Y-55679249D01*
X99214631Y-55679254D01*
X99274211Y-55849523D01*
X99347990Y-55966940D01*
X99370184Y-56002262D01*
X99497738Y-56129816D01*
X99568395Y-56174213D01*
X99598762Y-56193294D01*
X99650478Y-56225789D01*
X99777520Y-56270243D01*
X99820745Y-56285368D01*
X99820750Y-56285369D01*
X99999996Y-56305565D01*
X100000000Y-56305565D01*
X100000004Y-56305565D01*
X100179249Y-56285369D01*
X100179252Y-56285368D01*
X100179255Y-56285368D01*
X100349522Y-56225789D01*
X100502262Y-56129816D01*
X100532082Y-56099996D01*
X100994435Y-56099996D01*
X100994435Y-56100003D01*
X101014630Y-56279249D01*
X101014631Y-56279254D01*
X101074211Y-56449523D01*
X101170184Y-56602262D01*
X101297738Y-56729816D01*
X101450478Y-56825789D01*
X101549299Y-56860368D01*
X101620745Y-56885368D01*
X101620750Y-56885369D01*
X101799996Y-56905565D01*
X101800000Y-56905565D01*
X101800004Y-56905565D01*
X101979249Y-56885369D01*
X101979252Y-56885368D01*
X101979255Y-56885368D01*
X102149522Y-56825789D01*
X102302262Y-56729816D01*
X102429816Y-56602262D01*
X102525789Y-56449522D01*
X102585368Y-56279255D01*
X102585369Y-56279249D01*
X102605565Y-56100003D01*
X102605565Y-56099996D01*
X102585369Y-55920750D01*
X102585368Y-55920745D01*
X102525788Y-55750476D01*
X102481033Y-55679249D01*
X102429816Y-55597738D01*
X102302262Y-55470184D01*
X102268777Y-55449144D01*
X102149523Y-55374211D01*
X101979254Y-55314631D01*
X101979249Y-55314630D01*
X101800004Y-55294435D01*
X101799996Y-55294435D01*
X101620750Y-55314630D01*
X101620745Y-55314631D01*
X101450476Y-55374211D01*
X101297737Y-55470184D01*
X101170184Y-55597737D01*
X101074211Y-55750476D01*
X101014631Y-55920745D01*
X101014630Y-55920750D01*
X100994435Y-56099996D01*
X100532082Y-56099996D01*
X100629816Y-56002262D01*
X100725789Y-55849522D01*
X100785368Y-55679255D01*
X100785369Y-55679249D01*
X100805565Y-55500003D01*
X100805565Y-55499996D01*
X100785369Y-55320750D01*
X100785368Y-55320746D01*
X100785368Y-55320745D01*
X100757446Y-55240951D01*
X100753884Y-55171177D01*
X100757440Y-55159066D01*
X100785368Y-55079255D01*
X100793550Y-55006638D01*
X100805565Y-54900003D01*
X100805565Y-54899996D01*
X100785369Y-54720750D01*
X100785368Y-54720746D01*
X100785368Y-54720745D01*
X100757446Y-54640951D01*
X100753884Y-54571177D01*
X100757440Y-54559066D01*
X100785368Y-54479255D01*
X100785525Y-54477862D01*
X100805565Y-54300003D01*
X100805565Y-54299996D01*
X100795156Y-54207613D01*
X100807210Y-54138792D01*
X100854560Y-54087412D01*
X100922170Y-54069788D01*
X100988576Y-54091515D01*
X101023369Y-54127757D01*
X101070184Y-54202262D01*
X101197738Y-54329816D01*
X101350478Y-54425789D01*
X101477352Y-54470184D01*
X101520745Y-54485368D01*
X101520750Y-54485369D01*
X101699996Y-54505565D01*
X101700000Y-54505565D01*
X101700004Y-54505565D01*
X101879249Y-54485369D01*
X101879251Y-54485368D01*
X101879255Y-54485368D01*
X101879258Y-54485366D01*
X101879262Y-54485366D01*
X102009045Y-54439953D01*
X102078824Y-54436391D01*
X102090955Y-54439953D01*
X102220737Y-54485366D01*
X102220743Y-54485367D01*
X102220745Y-54485368D01*
X102220746Y-54485368D01*
X102220750Y-54485369D01*
X102399996Y-54505565D01*
X102400000Y-54505565D01*
X102400004Y-54505565D01*
X102579249Y-54485369D01*
X102579251Y-54485368D01*
X102579255Y-54485368D01*
X102579258Y-54485366D01*
X102579262Y-54485366D01*
X102709045Y-54439953D01*
X102778824Y-54436391D01*
X102790955Y-54439953D01*
X102920737Y-54485366D01*
X102920743Y-54485367D01*
X102920745Y-54485368D01*
X102920746Y-54485368D01*
X102920750Y-54485369D01*
X103099996Y-54505565D01*
X103100000Y-54505565D01*
X103100004Y-54505565D01*
X103190648Y-54495352D01*
X103259469Y-54507407D01*
X103310849Y-54554756D01*
X103328473Y-54622366D01*
X103306746Y-54688772D01*
X103300384Y-54697237D01*
X103264091Y-54741460D01*
X103264086Y-54741467D01*
X103171188Y-54915266D01*
X103113975Y-55103870D01*
X103094659Y-55300000D01*
X103113975Y-55496129D01*
X103113976Y-55496132D01*
X103152236Y-55622259D01*
X103171188Y-55684733D01*
X103264086Y-55858532D01*
X103264090Y-55858539D01*
X103389116Y-56010883D01*
X103541460Y-56135909D01*
X103541467Y-56135913D01*
X103715266Y-56228811D01*
X103715269Y-56228811D01*
X103715273Y-56228814D01*
X103903868Y-56286024D01*
X104100000Y-56305341D01*
X104296132Y-56286024D01*
X104484727Y-56228814D01*
X104490387Y-56225789D01*
X104632177Y-56150000D01*
X104658538Y-56135910D01*
X104810883Y-56010883D01*
X104935910Y-55858538D01*
X104994024Y-55749815D01*
X105028811Y-55684733D01*
X105028811Y-55684732D01*
X105028814Y-55684727D01*
X105086024Y-55496132D01*
X105105341Y-55300000D01*
X105086024Y-55103868D01*
X105028814Y-54915273D01*
X105028811Y-54915269D01*
X105028811Y-54915266D01*
X104935913Y-54741467D01*
X104935909Y-54741460D01*
X104900382Y-54698171D01*
X104873069Y-54633861D01*
X104884860Y-54564994D01*
X104932012Y-54513434D01*
X104982352Y-54496286D01*
X105010355Y-54493131D01*
X105079249Y-54485369D01*
X105079251Y-54485368D01*
X105079255Y-54485368D01*
X105079258Y-54485366D01*
X105079262Y-54485366D01*
X105209045Y-54439953D01*
X105278824Y-54436391D01*
X105290955Y-54439953D01*
X105420737Y-54485366D01*
X105420743Y-54485367D01*
X105420745Y-54485368D01*
X105420746Y-54485368D01*
X105420750Y-54485369D01*
X105599996Y-54505565D01*
X105600000Y-54505565D01*
X105600004Y-54505565D01*
X105779249Y-54485369D01*
X105779250Y-54485368D01*
X105779255Y-54485368D01*
X105859048Y-54457446D01*
X105928823Y-54453884D01*
X105940933Y-54457440D01*
X106020745Y-54485368D01*
X106020749Y-54485368D01*
X106020751Y-54485369D01*
X106020748Y-54485369D01*
X106199996Y-54505565D01*
X106200000Y-54505565D01*
X106200004Y-54505565D01*
X106379249Y-54485369D01*
X106379251Y-54485368D01*
X106379255Y-54485368D01*
X106379258Y-54485366D01*
X106379262Y-54485366D01*
X106509045Y-54439953D01*
X106578824Y-54436391D01*
X106590955Y-54439953D01*
X106720737Y-54485366D01*
X106720743Y-54485367D01*
X106720745Y-54485368D01*
X106720746Y-54485368D01*
X106720750Y-54485369D01*
X106899996Y-54505565D01*
X106900000Y-54505565D01*
X106900004Y-54505565D01*
X107079249Y-54485369D01*
X107079252Y-54485368D01*
X107079255Y-54485368D01*
X107249522Y-54425789D01*
X107402262Y-54329816D01*
X107462319Y-54269759D01*
X107523642Y-54236274D01*
X107593334Y-54241258D01*
X107637681Y-54269759D01*
X107697740Y-54329818D01*
X107713694Y-54339842D01*
X107759986Y-54392176D01*
X107770635Y-54461230D01*
X107742260Y-54525078D01*
X107735405Y-54532517D01*
X107650183Y-54617739D01*
X107554211Y-54770476D01*
X107494631Y-54940745D01*
X107494630Y-54940750D01*
X107474435Y-55119996D01*
X107474435Y-55120003D01*
X107494630Y-55299249D01*
X107494631Y-55299254D01*
X107554211Y-55469523D01*
X107637617Y-55602262D01*
X107650184Y-55622262D01*
X107777738Y-55749816D01*
X107778792Y-55750478D01*
X107898646Y-55825788D01*
X107930478Y-55845789D01*
X108043591Y-55885369D01*
X108100745Y-55905368D01*
X108100750Y-55905369D01*
X108279996Y-55925565D01*
X108280000Y-55925565D01*
X108280004Y-55925565D01*
X108459249Y-55905369D01*
X108459252Y-55905368D01*
X108459255Y-55905368D01*
X108629522Y-55845789D01*
X108782262Y-55749816D01*
X108909816Y-55622262D01*
X108950086Y-55558171D01*
X109002420Y-55511880D01*
X109041195Y-55500923D01*
X109092229Y-55495173D01*
X109179250Y-55485369D01*
X109179253Y-55485368D01*
X109179255Y-55485368D01*
X109349522Y-55425789D01*
X109502262Y-55329816D01*
X109629816Y-55202262D01*
X109725789Y-55049522D01*
X109785368Y-54879255D01*
X109791212Y-54827387D01*
X109805565Y-54700003D01*
X109805565Y-54699997D01*
X109793653Y-54594278D01*
X109805707Y-54525456D01*
X109853056Y-54474076D01*
X109920666Y-54456452D01*
X109957828Y-54463353D01*
X110020737Y-54485366D01*
X110020743Y-54485367D01*
X110020745Y-54485368D01*
X110020746Y-54485368D01*
X110020750Y-54485369D01*
X110199996Y-54505565D01*
X110200000Y-54505565D01*
X110200002Y-54505565D01*
X110246097Y-54500371D01*
X110297227Y-54494610D01*
X110366049Y-54506664D01*
X110417428Y-54554013D01*
X110435053Y-54621623D01*
X110416105Y-54683801D01*
X110374212Y-54750474D01*
X110314631Y-54920745D01*
X110314630Y-54920750D01*
X110294435Y-55099996D01*
X110294435Y-55100003D01*
X110314630Y-55279249D01*
X110314631Y-55279254D01*
X110374211Y-55449523D01*
X110439339Y-55553173D01*
X110470184Y-55602262D01*
X110597738Y-55729816D01*
X110750478Y-55825789D01*
X110850771Y-55860883D01*
X110920745Y-55885368D01*
X110920750Y-55885369D01*
X111099996Y-55905565D01*
X111100000Y-55905565D01*
X111100004Y-55905565D01*
X111279249Y-55885369D01*
X111279252Y-55885368D01*
X111279255Y-55885368D01*
X111449522Y-55825789D01*
X111602262Y-55729816D01*
X111729816Y-55602262D01*
X111825789Y-55449522D01*
X111885368Y-55279255D01*
X111885369Y-55279249D01*
X111905565Y-55100003D01*
X111905565Y-55099996D01*
X111885369Y-54920750D01*
X111885368Y-54920745D01*
X111870848Y-54879249D01*
X111852698Y-54827380D01*
X113034815Y-54827380D01*
X113034815Y-54827387D01*
X113055010Y-55006633D01*
X113055011Y-55006638D01*
X113114591Y-55176907D01*
X113194368Y-55303870D01*
X113210564Y-55329646D01*
X113338118Y-55457200D01*
X113406234Y-55500000D01*
X113453615Y-55529772D01*
X113490858Y-55553173D01*
X113631146Y-55602262D01*
X113661125Y-55612752D01*
X113661130Y-55612753D01*
X113840376Y-55632949D01*
X113840380Y-55632949D01*
X113840384Y-55632949D01*
X114019629Y-55612753D01*
X114019632Y-55612752D01*
X114019635Y-55612752D01*
X114189902Y-55553173D01*
X114342642Y-55457200D01*
X114470196Y-55329646D01*
X114566169Y-55176906D01*
X114625748Y-55006639D01*
X114626656Y-54998582D01*
X114645945Y-54827387D01*
X114645945Y-54827380D01*
X114643308Y-54803980D01*
X116290451Y-54803980D01*
X116290451Y-54803987D01*
X116310646Y-54983233D01*
X116310647Y-54983238D01*
X116370227Y-55153507D01*
X116449237Y-55279249D01*
X116466200Y-55306246D01*
X116593754Y-55433800D01*
X116630995Y-55457200D01*
X116743159Y-55527678D01*
X116746494Y-55529773D01*
X116890072Y-55580013D01*
X116916761Y-55589352D01*
X116916766Y-55589353D01*
X117096012Y-55609549D01*
X117096016Y-55609549D01*
X117096020Y-55609549D01*
X117275265Y-55589353D01*
X117275268Y-55589352D01*
X117275271Y-55589352D01*
X117445538Y-55529773D01*
X117598278Y-55433800D01*
X117725832Y-55306246D01*
X117821805Y-55153506D01*
X117881384Y-54983239D01*
X117884693Y-54953870D01*
X117901581Y-54803987D01*
X117901581Y-54803980D01*
X117881385Y-54624734D01*
X117881384Y-54624729D01*
X117856639Y-54554013D01*
X117821805Y-54454462D01*
X117814676Y-54443117D01*
X117743486Y-54329818D01*
X117725832Y-54301722D01*
X117598278Y-54174168D01*
X117547494Y-54142258D01*
X117445539Y-54078195D01*
X117275270Y-54018615D01*
X117275265Y-54018614D01*
X117096020Y-53998419D01*
X117096012Y-53998419D01*
X116916766Y-54018614D01*
X116916761Y-54018615D01*
X116746492Y-54078195D01*
X116593753Y-54174168D01*
X116466200Y-54301721D01*
X116370227Y-54454460D01*
X116310647Y-54624729D01*
X116310646Y-54624734D01*
X116290451Y-54803980D01*
X114643308Y-54803980D01*
X114625749Y-54648134D01*
X114625748Y-54648129D01*
X114592815Y-54554013D01*
X114566169Y-54477862D01*
X114557515Y-54464090D01*
X114479445Y-54339842D01*
X114470196Y-54325122D01*
X114342642Y-54197568D01*
X114289181Y-54163976D01*
X114189903Y-54101595D01*
X114019634Y-54042015D01*
X114019629Y-54042014D01*
X113840384Y-54021819D01*
X113840376Y-54021819D01*
X113661130Y-54042014D01*
X113661125Y-54042015D01*
X113490856Y-54101595D01*
X113338117Y-54197568D01*
X113210564Y-54325121D01*
X113114591Y-54477860D01*
X113055011Y-54648129D01*
X113055010Y-54648134D01*
X113034815Y-54827380D01*
X111852698Y-54827380D01*
X111825789Y-54750478D01*
X111825786Y-54750474D01*
X111756416Y-54640072D01*
X111729816Y-54597738D01*
X111602262Y-54470184D01*
X111601657Y-54469804D01*
X111449523Y-54374211D01*
X111279254Y-54314631D01*
X111279249Y-54314630D01*
X111100004Y-54294435D01*
X111099996Y-54294435D01*
X111002771Y-54305389D01*
X110933949Y-54293334D01*
X110882570Y-54245985D01*
X110864946Y-54178374D01*
X110883895Y-54116196D01*
X110925788Y-54049524D01*
X110931234Y-54033960D01*
X110985368Y-53879255D01*
X110985369Y-53879249D01*
X111005565Y-53700003D01*
X111005565Y-53699996D01*
X110985369Y-53520750D01*
X110985368Y-53520745D01*
X110958865Y-53445005D01*
X110925789Y-53350478D01*
X110923056Y-53346129D01*
X110851905Y-53232893D01*
X110829816Y-53197738D01*
X110702262Y-53070184D01*
X110549523Y-52974211D01*
X110379254Y-52914631D01*
X110379249Y-52914630D01*
X110200004Y-52894435D01*
X110199996Y-52894435D01*
X110020750Y-52914630D01*
X110020742Y-52914632D01*
X109890954Y-52960047D01*
X109821175Y-52963608D01*
X109809046Y-52960047D01*
X109679257Y-52914632D01*
X109679249Y-52914630D01*
X109500004Y-52894435D01*
X109499996Y-52894435D01*
X109320746Y-52914631D01*
X109320745Y-52914631D01*
X109240953Y-52942551D01*
X109171174Y-52946112D01*
X109159047Y-52942551D01*
X109079253Y-52914631D01*
X108900004Y-52894435D01*
X108899996Y-52894435D01*
X108720750Y-52914630D01*
X108720742Y-52914632D01*
X108590954Y-52960047D01*
X108521175Y-52963608D01*
X108509046Y-52960047D01*
X108379257Y-52914632D01*
X108379249Y-52914630D01*
X108200004Y-52894435D01*
X108199996Y-52894435D01*
X108020750Y-52914630D01*
X108020745Y-52914631D01*
X107850476Y-52974211D01*
X107697737Y-53070184D01*
X107637681Y-53130241D01*
X107576358Y-53163726D01*
X107506666Y-53158742D01*
X107462319Y-53130241D01*
X107402262Y-53070184D01*
X107249523Y-52974211D01*
X107079254Y-52914631D01*
X107079249Y-52914630D01*
X106900004Y-52894435D01*
X106899996Y-52894435D01*
X106720750Y-52914630D01*
X106720742Y-52914632D01*
X106590954Y-52960047D01*
X106521175Y-52963608D01*
X106509046Y-52960047D01*
X106379257Y-52914632D01*
X106379249Y-52914630D01*
X106200004Y-52894435D01*
X106199996Y-52894435D01*
X106020746Y-52914631D01*
X106020745Y-52914631D01*
X105940953Y-52942551D01*
X105871174Y-52946112D01*
X105859047Y-52942551D01*
X105779253Y-52914631D01*
X105600004Y-52894435D01*
X105599996Y-52894435D01*
X105420750Y-52914630D01*
X105420742Y-52914632D01*
X105290954Y-52960047D01*
X105221175Y-52963608D01*
X105209046Y-52960047D01*
X105079257Y-52914632D01*
X105079249Y-52914630D01*
X104900004Y-52894435D01*
X104899996Y-52894435D01*
X104720750Y-52914630D01*
X104720745Y-52914631D01*
X104550476Y-52974211D01*
X104397737Y-53070184D01*
X104270184Y-53197737D01*
X104174209Y-53350480D01*
X104117041Y-53513857D01*
X104076320Y-53570633D01*
X104011367Y-53596380D01*
X103942805Y-53582924D01*
X103892403Y-53534536D01*
X103882959Y-53513857D01*
X103825790Y-53350480D01*
X103825789Y-53350478D01*
X103729816Y-53197738D01*
X103602262Y-53070184D01*
X103449523Y-52974211D01*
X103279254Y-52914631D01*
X103279249Y-52914630D01*
X103100004Y-52894435D01*
X103099996Y-52894435D01*
X102920750Y-52914630D01*
X102920742Y-52914632D01*
X102790954Y-52960047D01*
X102721175Y-52963608D01*
X102709046Y-52960047D01*
X102579257Y-52914632D01*
X102579249Y-52914630D01*
X102400004Y-52894435D01*
X102399996Y-52894435D01*
X102220750Y-52914630D01*
X102220742Y-52914632D01*
X102090954Y-52960047D01*
X102021175Y-52963608D01*
X102009046Y-52960047D01*
X101879257Y-52914632D01*
X101879249Y-52914630D01*
X101700004Y-52894435D01*
X101699996Y-52894435D01*
X101520750Y-52914630D01*
X101520745Y-52914631D01*
X101350476Y-52974211D01*
X101197737Y-53070184D01*
X101070184Y-53197737D01*
X100974211Y-53350476D01*
X100914631Y-53520745D01*
X100914630Y-53520750D01*
X100894435Y-53699996D01*
X100894435Y-53700005D01*
X100904843Y-53792387D01*
X100892788Y-53861208D01*
X100845438Y-53912587D01*
X100777828Y-53930211D01*
X100711422Y-53908484D01*
X100676629Y-53872241D01*
X100672369Y-53865462D01*
X100629816Y-53797738D01*
X100502262Y-53670184D01*
X100478084Y-53654992D01*
X100431796Y-53602661D01*
X100421146Y-53533607D01*
X100449521Y-53469758D01*
X100478082Y-53445009D01*
X100502262Y-53429816D01*
X100629816Y-53302262D01*
X100725789Y-53149522D01*
X100785368Y-52979255D01*
X100785903Y-52974511D01*
X100805565Y-52800003D01*
X100805565Y-52799996D01*
X100785369Y-52620750D01*
X100785366Y-52620737D01*
X100723489Y-52443905D01*
X100725637Y-52443153D01*
X100716035Y-52384872D01*
X100724392Y-52356411D01*
X100723489Y-52356095D01*
X100785366Y-52179262D01*
X100785369Y-52179249D01*
X100805565Y-52000003D01*
X100805565Y-51999996D01*
X100785369Y-51820750D01*
X100785366Y-51820737D01*
X100778108Y-51799996D01*
X111944435Y-51799996D01*
X111944435Y-51800003D01*
X111964630Y-51979249D01*
X111964631Y-51979254D01*
X112024211Y-52149523D01*
X112107955Y-52282800D01*
X112120184Y-52302262D01*
X112247738Y-52429816D01*
X112283461Y-52452262D01*
X112370742Y-52507105D01*
X112400478Y-52525789D01*
X112554878Y-52579816D01*
X112570745Y-52585368D01*
X112570750Y-52585369D01*
X112749996Y-52605565D01*
X112750000Y-52605565D01*
X112750004Y-52605565D01*
X112929249Y-52585369D01*
X112929252Y-52585368D01*
X112929255Y-52585368D01*
X113099522Y-52525789D01*
X113129264Y-52507101D01*
X115001540Y-52507101D01*
X115001540Y-52507108D01*
X115021735Y-52686354D01*
X115021736Y-52686359D01*
X115081316Y-52856628D01*
X115158368Y-52979254D01*
X115177289Y-53009367D01*
X115304843Y-53136921D01*
X115457583Y-53232894D01*
X115627850Y-53292473D01*
X115627855Y-53292474D01*
X115807101Y-53312670D01*
X115807105Y-53312670D01*
X115807109Y-53312670D01*
X115986354Y-53292474D01*
X115986357Y-53292473D01*
X115986360Y-53292473D01*
X116156627Y-53232894D01*
X116309367Y-53136921D01*
X116436921Y-53009367D01*
X116532894Y-52856627D01*
X116592473Y-52686360D01*
X116593664Y-52675788D01*
X116612670Y-52507108D01*
X116612670Y-52507101D01*
X116592474Y-52327855D01*
X116592473Y-52327850D01*
X116576709Y-52282800D01*
X116532894Y-52157583D01*
X116528129Y-52150000D01*
X116459415Y-52040642D01*
X116436921Y-52004843D01*
X116382074Y-51949996D01*
X118619435Y-51949996D01*
X118619435Y-51950003D01*
X118639630Y-52129249D01*
X118639631Y-52129254D01*
X118699211Y-52299523D01*
X118771861Y-52415144D01*
X118795184Y-52452262D01*
X118922738Y-52579816D01*
X119075478Y-52675789D01*
X119245745Y-52735368D01*
X119245750Y-52735369D01*
X119424996Y-52755565D01*
X119425000Y-52755565D01*
X119425004Y-52755565D01*
X119604249Y-52735369D01*
X119604252Y-52735368D01*
X119604255Y-52735368D01*
X119774522Y-52675789D01*
X119927262Y-52579816D01*
X120054816Y-52452262D01*
X120150789Y-52299522D01*
X120210368Y-52129255D01*
X120214836Y-52089604D01*
X120230565Y-51950003D01*
X120230565Y-51949996D01*
X120210369Y-51770750D01*
X120210368Y-51770745D01*
X120167950Y-51649522D01*
X120150789Y-51600478D01*
X120054816Y-51447738D01*
X119927262Y-51320184D01*
X119895144Y-51300003D01*
X119774523Y-51224211D01*
X119604254Y-51164631D01*
X119604249Y-51164630D01*
X119425004Y-51144435D01*
X119424996Y-51144435D01*
X119245750Y-51164630D01*
X119245745Y-51164631D01*
X119075476Y-51224211D01*
X118922737Y-51320184D01*
X118795184Y-51447737D01*
X118699211Y-51600476D01*
X118639631Y-51770745D01*
X118639630Y-51770750D01*
X118619435Y-51949996D01*
X116382074Y-51949996D01*
X116309367Y-51877289D01*
X116219378Y-51820745D01*
X116156628Y-51781316D01*
X115986359Y-51721736D01*
X115986354Y-51721735D01*
X115807109Y-51701540D01*
X115807101Y-51701540D01*
X115627855Y-51721735D01*
X115627850Y-51721736D01*
X115457581Y-51781316D01*
X115304842Y-51877289D01*
X115177289Y-52004842D01*
X115081316Y-52157581D01*
X115021736Y-52327850D01*
X115021735Y-52327855D01*
X115001540Y-52507101D01*
X113129264Y-52507101D01*
X113252262Y-52429816D01*
X113379816Y-52302262D01*
X113475789Y-52149522D01*
X113535368Y-51979255D01*
X113538664Y-51950003D01*
X113555565Y-51800003D01*
X113555565Y-51799996D01*
X113535369Y-51620750D01*
X113535368Y-51620745D01*
X113485859Y-51479257D01*
X113475789Y-51450478D01*
X113474067Y-51447738D01*
X113410222Y-51346129D01*
X113379816Y-51297738D01*
X113252262Y-51170184D01*
X113243426Y-51164632D01*
X113099523Y-51074211D01*
X112929254Y-51014631D01*
X112929249Y-51014630D01*
X112750004Y-50994435D01*
X112749996Y-50994435D01*
X112570750Y-51014630D01*
X112570745Y-51014631D01*
X112400476Y-51074211D01*
X112247737Y-51170184D01*
X112120184Y-51297737D01*
X112024211Y-51450476D01*
X111964631Y-51620745D01*
X111964630Y-51620750D01*
X111944435Y-51799996D01*
X100778108Y-51799996D01*
X100739953Y-51690955D01*
X100736391Y-51621176D01*
X100739953Y-51609045D01*
X100785366Y-51479262D01*
X100785369Y-51479249D01*
X100805565Y-51300003D01*
X100805565Y-51299996D01*
X100785369Y-51120750D01*
X100785368Y-51120745D01*
X100725788Y-50950476D01*
X100629815Y-50797737D01*
X100502262Y-50670184D01*
X100349523Y-50574211D01*
X100179254Y-50514631D01*
X100179249Y-50514630D01*
X100000004Y-50494435D01*
X99999996Y-50494435D01*
X99820750Y-50514630D01*
X99820745Y-50514631D01*
X99650476Y-50574211D01*
X99497737Y-50670184D01*
X99370184Y-50797737D01*
X99274211Y-50950476D01*
X99214631Y-51120745D01*
X99214630Y-51120750D01*
X99194435Y-51299996D01*
X95507700Y-51299996D01*
X95506417Y-47150000D01*
X124644659Y-47150000D01*
X124663975Y-47346129D01*
X124721188Y-47534733D01*
X124814086Y-47708532D01*
X124814090Y-47708539D01*
X124939116Y-47860883D01*
X125091460Y-47985909D01*
X125091467Y-47985914D01*
X125193856Y-48040642D01*
X125243701Y-48089604D01*
X125259161Y-48157742D01*
X125235329Y-48223422D01*
X125193856Y-48259358D01*
X125091467Y-48314085D01*
X125091460Y-48314090D01*
X124939116Y-48439116D01*
X124814090Y-48591460D01*
X124814086Y-48591467D01*
X124721188Y-48765266D01*
X124663975Y-48953870D01*
X124644659Y-49150000D01*
X124663975Y-49346129D01*
X124721188Y-49534733D01*
X124814086Y-49708532D01*
X124814090Y-49708539D01*
X124939116Y-49860883D01*
X125091460Y-49985909D01*
X125091467Y-49985914D01*
X125193856Y-50040642D01*
X125243701Y-50089604D01*
X125259161Y-50157742D01*
X125235329Y-50223422D01*
X125193856Y-50259358D01*
X125091467Y-50314085D01*
X125091460Y-50314090D01*
X124939116Y-50439116D01*
X124814090Y-50591460D01*
X124814086Y-50591467D01*
X124721188Y-50765266D01*
X124663975Y-50953870D01*
X124644659Y-51150000D01*
X124663975Y-51346129D01*
X124721188Y-51534733D01*
X124814086Y-51708532D01*
X124814090Y-51708539D01*
X124939116Y-51860883D01*
X125091460Y-51985909D01*
X125091467Y-51985914D01*
X125193856Y-52040642D01*
X125243701Y-52089604D01*
X125259161Y-52157742D01*
X125235329Y-52223422D01*
X125193856Y-52259358D01*
X125091467Y-52314085D01*
X125091460Y-52314090D01*
X124939116Y-52439116D01*
X124814090Y-52591460D01*
X124814086Y-52591467D01*
X124721188Y-52765266D01*
X124663975Y-52953870D01*
X124644659Y-53150000D01*
X124663975Y-53346129D01*
X124721188Y-53534733D01*
X124814086Y-53708532D01*
X124814090Y-53708539D01*
X124939116Y-53860883D01*
X125091460Y-53985909D01*
X125091467Y-53985914D01*
X125193856Y-54040642D01*
X125243701Y-54089604D01*
X125259161Y-54157742D01*
X125235329Y-54223422D01*
X125193856Y-54259358D01*
X125091467Y-54314085D01*
X125091460Y-54314090D01*
X124939116Y-54439116D01*
X124814090Y-54591460D01*
X124814086Y-54591467D01*
X124721188Y-54765266D01*
X124663975Y-54953870D01*
X124644659Y-55150000D01*
X124663975Y-55346129D01*
X124663976Y-55346132D01*
X124714255Y-55511880D01*
X124721188Y-55534733D01*
X124814086Y-55708532D01*
X124814090Y-55708539D01*
X124939116Y-55860883D01*
X125091460Y-55985909D01*
X125091467Y-55985914D01*
X125193856Y-56040642D01*
X125243701Y-56089604D01*
X125259161Y-56157742D01*
X125235329Y-56223422D01*
X125193856Y-56259358D01*
X125091467Y-56314085D01*
X125091460Y-56314090D01*
X124939116Y-56439116D01*
X124814090Y-56591460D01*
X124814086Y-56591467D01*
X124721188Y-56765266D01*
X124663975Y-56953870D01*
X124644659Y-57150000D01*
X124663975Y-57346129D01*
X124721188Y-57534733D01*
X124814086Y-57708532D01*
X124814090Y-57708539D01*
X124939116Y-57860883D01*
X125091460Y-57985909D01*
X125091467Y-57985914D01*
X125193856Y-58040642D01*
X125243701Y-58089604D01*
X125259161Y-58157742D01*
X125235329Y-58223422D01*
X125193856Y-58259358D01*
X125091467Y-58314085D01*
X125091460Y-58314090D01*
X124939116Y-58439116D01*
X124814090Y-58591460D01*
X124814086Y-58591467D01*
X124721188Y-58765266D01*
X124663975Y-58953870D01*
X124644659Y-59150000D01*
X124663975Y-59346129D01*
X124674595Y-59381137D01*
X124716774Y-59520184D01*
X124721188Y-59534733D01*
X124814086Y-59708532D01*
X124814090Y-59708539D01*
X124939116Y-59860883D01*
X125091460Y-59985909D01*
X125091467Y-59985914D01*
X125193856Y-60040642D01*
X125243701Y-60089604D01*
X125259161Y-60157742D01*
X125235329Y-60223422D01*
X125193856Y-60259358D01*
X125091467Y-60314085D01*
X125091460Y-60314090D01*
X124939116Y-60439116D01*
X124814090Y-60591460D01*
X124814086Y-60591467D01*
X124721188Y-60765266D01*
X124663975Y-60953870D01*
X124644659Y-61150000D01*
X124663975Y-61346129D01*
X124721188Y-61534733D01*
X124814086Y-61708532D01*
X124814090Y-61708539D01*
X124939116Y-61860883D01*
X125091460Y-61985909D01*
X125091467Y-61985914D01*
X125193856Y-62040642D01*
X125243701Y-62089604D01*
X125259161Y-62157742D01*
X125235329Y-62223422D01*
X125193856Y-62259358D01*
X125091467Y-62314085D01*
X125091460Y-62314090D01*
X124939116Y-62439116D01*
X124814090Y-62591460D01*
X124814086Y-62591467D01*
X124721188Y-62765266D01*
X124663975Y-62953870D01*
X124644659Y-63150000D01*
X124663975Y-63346129D01*
X124663976Y-63346132D01*
X124708737Y-63493690D01*
X124721188Y-63534733D01*
X124814086Y-63708532D01*
X124814090Y-63708539D01*
X124939116Y-63860883D01*
X125091460Y-63985909D01*
X125091467Y-63985914D01*
X125193856Y-64040642D01*
X125243701Y-64089604D01*
X125259161Y-64157742D01*
X125235329Y-64223422D01*
X125193856Y-64259358D01*
X125091467Y-64314085D01*
X125091460Y-64314090D01*
X124939116Y-64439116D01*
X124814090Y-64591460D01*
X124814086Y-64591467D01*
X124721188Y-64765266D01*
X124663975Y-64953870D01*
X124644659Y-65150000D01*
X124663975Y-65346129D01*
X124663976Y-65346132D01*
X124717896Y-65523883D01*
X124721188Y-65534733D01*
X124814086Y-65708532D01*
X124814090Y-65708539D01*
X124939116Y-65860883D01*
X125091460Y-65985909D01*
X125091467Y-65985914D01*
X125193856Y-66040642D01*
X125243701Y-66089604D01*
X125259161Y-66157742D01*
X125235329Y-66223422D01*
X125193856Y-66259358D01*
X125091467Y-66314085D01*
X125091460Y-66314090D01*
X124939116Y-66439116D01*
X124814090Y-66591460D01*
X124814086Y-66591467D01*
X124721188Y-66765266D01*
X124663975Y-66953870D01*
X124644659Y-67150000D01*
X124663975Y-67346129D01*
X124673824Y-67378597D01*
X124710649Y-67499993D01*
X124721188Y-67534733D01*
X124814086Y-67708532D01*
X124814090Y-67708539D01*
X124939116Y-67860883D01*
X125091460Y-67985909D01*
X125091467Y-67985913D01*
X125265266Y-68078811D01*
X125265269Y-68078811D01*
X125265273Y-68078814D01*
X125453868Y-68136024D01*
X125650000Y-68155341D01*
X125846132Y-68136024D01*
X126034727Y-68078814D01*
X126091547Y-68048442D01*
X126159949Y-68034201D01*
X126208452Y-68048442D01*
X126265273Y-68078814D01*
X126453868Y-68136024D01*
X126650000Y-68155341D01*
X126846132Y-68136024D01*
X127034727Y-68078814D01*
X127091547Y-68048442D01*
X127159949Y-68034201D01*
X127208452Y-68048442D01*
X127265273Y-68078814D01*
X127453868Y-68136024D01*
X127650000Y-68155341D01*
X127846132Y-68136024D01*
X128034727Y-68078814D01*
X128208538Y-67985910D01*
X128360883Y-67860883D01*
X128485910Y-67708538D01*
X128578814Y-67534727D01*
X128636024Y-67346132D01*
X128655341Y-67150000D01*
X128636024Y-66953868D01*
X128578814Y-66765273D01*
X128578811Y-66765269D01*
X128578811Y-66765266D01*
X128485913Y-66591467D01*
X128485909Y-66591460D01*
X128360883Y-66439116D01*
X128208539Y-66314090D01*
X128208532Y-66314086D01*
X128106143Y-66259358D01*
X128056299Y-66210396D01*
X128040838Y-66142258D01*
X128064670Y-66076579D01*
X128106143Y-66040642D01*
X128184690Y-65998657D01*
X128208538Y-65985910D01*
X128360883Y-65860883D01*
X128485910Y-65708538D01*
X128532362Y-65621632D01*
X128578811Y-65534733D01*
X128578811Y-65534732D01*
X128578814Y-65534727D01*
X128636024Y-65346132D01*
X128655341Y-65150000D01*
X128636024Y-64953868D01*
X128578814Y-64765273D01*
X128578811Y-64765269D01*
X128578811Y-64765266D01*
X128485913Y-64591467D01*
X128485909Y-64591460D01*
X128360883Y-64439116D01*
X128208539Y-64314090D01*
X128208532Y-64314086D01*
X128106143Y-64259358D01*
X128056299Y-64210396D01*
X128040838Y-64142258D01*
X128064670Y-64076579D01*
X128106143Y-64040642D01*
X128186411Y-63997737D01*
X128208538Y-63985910D01*
X128360883Y-63860883D01*
X128485910Y-63708538D01*
X128578814Y-63534727D01*
X128636024Y-63346132D01*
X128655341Y-63150000D01*
X128636024Y-62953868D01*
X128578814Y-62765273D01*
X128578811Y-62765269D01*
X128578811Y-62765266D01*
X128485913Y-62591467D01*
X128485909Y-62591460D01*
X128360883Y-62439116D01*
X128208539Y-62314090D01*
X128208532Y-62314086D01*
X128106143Y-62259358D01*
X128056299Y-62210396D01*
X128040838Y-62142258D01*
X128064670Y-62076579D01*
X128106143Y-62040642D01*
X128191530Y-61995001D01*
X128208538Y-61985910D01*
X128360883Y-61860883D01*
X128485910Y-61708538D01*
X128554516Y-61580186D01*
X128578811Y-61534733D01*
X128578811Y-61534732D01*
X128578814Y-61534727D01*
X128636024Y-61346132D01*
X128655341Y-61150000D01*
X128636024Y-60953868D01*
X128578814Y-60765273D01*
X128578811Y-60765269D01*
X128578811Y-60765266D01*
X128485913Y-60591467D01*
X128485909Y-60591460D01*
X128360883Y-60439116D01*
X128208539Y-60314090D01*
X128208532Y-60314086D01*
X128106143Y-60259358D01*
X128056299Y-60210396D01*
X128040838Y-60142258D01*
X128064670Y-60076579D01*
X128106143Y-60040642D01*
X128206031Y-59987250D01*
X128208538Y-59985910D01*
X128360883Y-59860883D01*
X128485910Y-59708538D01*
X128535815Y-59615173D01*
X128578811Y-59534733D01*
X128578811Y-59534732D01*
X128578814Y-59534727D01*
X128636024Y-59346132D01*
X128655341Y-59150000D01*
X128636024Y-58953868D01*
X128578814Y-58765273D01*
X128578811Y-58765269D01*
X128578811Y-58765266D01*
X128485913Y-58591467D01*
X128485909Y-58591460D01*
X128360883Y-58439116D01*
X128208539Y-58314090D01*
X128208532Y-58314086D01*
X128106143Y-58259358D01*
X128056299Y-58210396D01*
X128040838Y-58142258D01*
X128064670Y-58076579D01*
X128106143Y-58040642D01*
X128199784Y-57990589D01*
X128208538Y-57985910D01*
X128360883Y-57860883D01*
X128485910Y-57708538D01*
X128578814Y-57534727D01*
X128636024Y-57346132D01*
X128655341Y-57150000D01*
X128636024Y-56953868D01*
X128578814Y-56765273D01*
X128578811Y-56765269D01*
X128578811Y-56765266D01*
X128485913Y-56591467D01*
X128485909Y-56591460D01*
X128360883Y-56439116D01*
X128208539Y-56314090D01*
X128208532Y-56314086D01*
X128106143Y-56259358D01*
X128056299Y-56210396D01*
X128040838Y-56142258D01*
X128064670Y-56076579D01*
X128106143Y-56040642D01*
X128184690Y-55998657D01*
X128208538Y-55985910D01*
X128360883Y-55860883D01*
X128485910Y-55708538D01*
X128554608Y-55580013D01*
X128578811Y-55534733D01*
X128578811Y-55534732D01*
X128578814Y-55534727D01*
X128636024Y-55346132D01*
X128655341Y-55150000D01*
X128636024Y-54953868D01*
X128578814Y-54765273D01*
X128578811Y-54765269D01*
X128578811Y-54765266D01*
X128485913Y-54591467D01*
X128485909Y-54591460D01*
X128360883Y-54439116D01*
X128208539Y-54314090D01*
X128208532Y-54314086D01*
X128106143Y-54259358D01*
X128056299Y-54210396D01*
X128040838Y-54142258D01*
X128064670Y-54076579D01*
X128106143Y-54040642D01*
X128185135Y-53998419D01*
X128208538Y-53985910D01*
X128360883Y-53860883D01*
X128485910Y-53708538D01*
X128532362Y-53621632D01*
X128578811Y-53534733D01*
X128578811Y-53534732D01*
X128578814Y-53534727D01*
X128636024Y-53346132D01*
X128655341Y-53150000D01*
X128636024Y-52953868D01*
X128578814Y-52765273D01*
X128578811Y-52765269D01*
X128578811Y-52765266D01*
X128485913Y-52591467D01*
X128485909Y-52591460D01*
X128360883Y-52439116D01*
X128208539Y-52314090D01*
X128208532Y-52314086D01*
X128106143Y-52259358D01*
X128056299Y-52210396D01*
X128040838Y-52142258D01*
X128064670Y-52076579D01*
X128106143Y-52040642D01*
X128184690Y-51998657D01*
X128208538Y-51985910D01*
X128360883Y-51860883D01*
X128485910Y-51708538D01*
X128578814Y-51534727D01*
X128636024Y-51346132D01*
X128655341Y-51150000D01*
X128636024Y-50953868D01*
X128578814Y-50765273D01*
X128578811Y-50765269D01*
X128578811Y-50765266D01*
X128485913Y-50591467D01*
X128485909Y-50591460D01*
X128360883Y-50439116D01*
X128208539Y-50314090D01*
X128208532Y-50314086D01*
X128106143Y-50259358D01*
X128056299Y-50210396D01*
X128040838Y-50142258D01*
X128064670Y-50076579D01*
X128106143Y-50040642D01*
X128184690Y-49998657D01*
X128208538Y-49985910D01*
X128360883Y-49860883D01*
X128485910Y-49708538D01*
X128578814Y-49534727D01*
X128636024Y-49346132D01*
X128655341Y-49150000D01*
X128636024Y-48953868D01*
X128578814Y-48765273D01*
X128578811Y-48765269D01*
X128578811Y-48765266D01*
X128485913Y-48591467D01*
X128485909Y-48591460D01*
X128360883Y-48439116D01*
X128208539Y-48314090D01*
X128208532Y-48314086D01*
X128106143Y-48259358D01*
X128056299Y-48210396D01*
X128040838Y-48142258D01*
X128064670Y-48076579D01*
X128106143Y-48040642D01*
X128184690Y-47998657D01*
X128208538Y-47985910D01*
X128360883Y-47860883D01*
X128485910Y-47708538D01*
X128578814Y-47534727D01*
X128636024Y-47346132D01*
X128655341Y-47150000D01*
X128636024Y-46953868D01*
X128578814Y-46765273D01*
X128578811Y-46765269D01*
X128578811Y-46765266D01*
X128485913Y-46591467D01*
X128485909Y-46591460D01*
X128360883Y-46439116D01*
X128208539Y-46314090D01*
X128208532Y-46314086D01*
X128034733Y-46221188D01*
X128034727Y-46221186D01*
X127846132Y-46163976D01*
X127846129Y-46163975D01*
X127650000Y-46144659D01*
X127453870Y-46163975D01*
X127359570Y-46192581D01*
X127265273Y-46221186D01*
X127265271Y-46221186D01*
X127265271Y-46221187D01*
X127208452Y-46251557D01*
X127140049Y-46265798D01*
X127091548Y-46251557D01*
X127080596Y-46245703D01*
X127034727Y-46221186D01*
X126846132Y-46163976D01*
X126846129Y-46163975D01*
X126650000Y-46144659D01*
X126453870Y-46163975D01*
X126359570Y-46192581D01*
X126265273Y-46221186D01*
X126265271Y-46221186D01*
X126265271Y-46221187D01*
X126208452Y-46251557D01*
X126140049Y-46265798D01*
X126091548Y-46251557D01*
X126080596Y-46245703D01*
X126034727Y-46221186D01*
X125846132Y-46163976D01*
X125846129Y-46163975D01*
X125650000Y-46144659D01*
X125453870Y-46163975D01*
X125265266Y-46221188D01*
X125091467Y-46314086D01*
X125091460Y-46314090D01*
X124939116Y-46439116D01*
X124814090Y-46591460D01*
X124814086Y-46591467D01*
X124721188Y-46765266D01*
X124663975Y-46953870D01*
X124644659Y-47150000D01*
X95506417Y-47150000D01*
X95504980Y-42500000D01*
X100494659Y-42500000D01*
X100513975Y-42696129D01*
X100513976Y-42696132D01*
X100567995Y-42874209D01*
X100571188Y-42884733D01*
X100664086Y-43058532D01*
X100664090Y-43058539D01*
X100789116Y-43210883D01*
X100941460Y-43335909D01*
X100941467Y-43335913D01*
X101115266Y-43428811D01*
X101115269Y-43428811D01*
X101115273Y-43428814D01*
X101303868Y-43486024D01*
X101500000Y-43505341D01*
X101696132Y-43486024D01*
X101884727Y-43428814D01*
X102058538Y-43335910D01*
X102171335Y-43243338D01*
X102235644Y-43216026D01*
X102304512Y-43227817D01*
X102328662Y-43243337D01*
X102366282Y-43274211D01*
X102441460Y-43335909D01*
X102441467Y-43335913D01*
X102615266Y-43428811D01*
X102615269Y-43428811D01*
X102615273Y-43428814D01*
X102803868Y-43486024D01*
X103000000Y-43505341D01*
X103196132Y-43486024D01*
X103315559Y-43449795D01*
X103385426Y-43449172D01*
X103444539Y-43486420D01*
X103474130Y-43549714D01*
X103468598Y-43609405D01*
X103464634Y-43620733D01*
X103464630Y-43620750D01*
X103444435Y-43799996D01*
X103444435Y-43800003D01*
X103464630Y-43979249D01*
X103464631Y-43979254D01*
X103524211Y-44149523D01*
X103574662Y-44229815D01*
X103620184Y-44302262D01*
X103747738Y-44429816D01*
X103900478Y-44525789D01*
X104070742Y-44585367D01*
X104070745Y-44585368D01*
X104070750Y-44585369D01*
X104249996Y-44605565D01*
X104250000Y-44605565D01*
X104250004Y-44605565D01*
X104429249Y-44585369D01*
X104429252Y-44585368D01*
X104429255Y-44585368D01*
X104599522Y-44525789D01*
X104752262Y-44429816D01*
X104879816Y-44302262D01*
X104975789Y-44149522D01*
X104978810Y-44143249D01*
X104980707Y-44144162D01*
X105015466Y-44095672D01*
X105080412Y-44069907D01*
X105148977Y-44083344D01*
X105157786Y-44088389D01*
X105185475Y-44105788D01*
X105355745Y-44165368D01*
X105355750Y-44165369D01*
X105534996Y-44185565D01*
X105535000Y-44185565D01*
X105535004Y-44185565D01*
X105714249Y-44165369D01*
X105714252Y-44165368D01*
X105714255Y-44165368D01*
X105884522Y-44105789D01*
X106037262Y-44009816D01*
X106164816Y-43882262D01*
X106216507Y-43799996D01*
X109944435Y-43799996D01*
X109944435Y-43800003D01*
X109964630Y-43979249D01*
X109964631Y-43979254D01*
X110024211Y-44149523D01*
X110074662Y-44229815D01*
X110120184Y-44302262D01*
X110247738Y-44429816D01*
X110400478Y-44525789D01*
X110570745Y-44585368D01*
X110589757Y-44587510D01*
X110654170Y-44614573D01*
X110680866Y-44644753D01*
X110764025Y-44777100D01*
X110891579Y-44904654D01*
X111044319Y-45000627D01*
X111214586Y-45060206D01*
X111214591Y-45060207D01*
X111393837Y-45080403D01*
X111393841Y-45080403D01*
X111393845Y-45080403D01*
X111573090Y-45060207D01*
X111573093Y-45060206D01*
X111573096Y-45060206D01*
X111743363Y-45000627D01*
X111896103Y-44904654D01*
X112023657Y-44777100D01*
X112119630Y-44624360D01*
X112174404Y-44467822D01*
X112215124Y-44411049D01*
X112272616Y-44387579D01*
X112272466Y-44386918D01*
X112276481Y-44386001D01*
X112277567Y-44385558D01*
X112279255Y-44385368D01*
X112449522Y-44325789D01*
X112602262Y-44229816D01*
X112729816Y-44102262D01*
X112794074Y-43999996D01*
X116685041Y-43999996D01*
X116685041Y-44000003D01*
X116705236Y-44179249D01*
X116705237Y-44179254D01*
X116764817Y-44349523D01*
X116803477Y-44411049D01*
X116860790Y-44502262D01*
X116988344Y-44629816D01*
X117012124Y-44644758D01*
X117138860Y-44724392D01*
X117141084Y-44725789D01*
X117311345Y-44785366D01*
X117311351Y-44785368D01*
X117311356Y-44785369D01*
X117490602Y-44805565D01*
X117490606Y-44805565D01*
X117490610Y-44805565D01*
X117669855Y-44785369D01*
X117669857Y-44785368D01*
X117669861Y-44785368D01*
X117669864Y-44785366D01*
X117669868Y-44785366D01*
X117846701Y-44723489D01*
X117847452Y-44725637D01*
X117905734Y-44716035D01*
X117934194Y-44724392D01*
X117934511Y-44723489D01*
X118111343Y-44785366D01*
X118111349Y-44785367D01*
X118111351Y-44785368D01*
X118111352Y-44785368D01*
X118111356Y-44785369D01*
X118290602Y-44805565D01*
X118290606Y-44805565D01*
X118290610Y-44805565D01*
X118469855Y-44785369D01*
X118469858Y-44785368D01*
X118469861Y-44785368D01*
X118640128Y-44725789D01*
X118792868Y-44629816D01*
X118920422Y-44502262D01*
X119016395Y-44349522D01*
X119075974Y-44179255D01*
X119077539Y-44165368D01*
X119096171Y-44000003D01*
X119096171Y-43999996D01*
X119075975Y-43820750D01*
X119075974Y-43820745D01*
X119044054Y-43729522D01*
X119016395Y-43650478D01*
X118997712Y-43620745D01*
X118925199Y-43505341D01*
X118921841Y-43499996D01*
X123494435Y-43499996D01*
X123494435Y-43500003D01*
X123514630Y-43679249D01*
X123514631Y-43679254D01*
X123574211Y-43849523D01*
X123637045Y-43949522D01*
X123670184Y-44002262D01*
X123797738Y-44129816D01*
X123950478Y-44225789D01*
X123961984Y-44229815D01*
X124120745Y-44285368D01*
X124120750Y-44285369D01*
X124299996Y-44305565D01*
X124300000Y-44305565D01*
X124300004Y-44305565D01*
X124479249Y-44285369D01*
X124479252Y-44285368D01*
X124479255Y-44285368D01*
X124649522Y-44225789D01*
X124723581Y-44179255D01*
X124734027Y-44172691D01*
X124801264Y-44153690D01*
X124865973Y-44172691D01*
X124950475Y-44225788D01*
X125120745Y-44285368D01*
X125120750Y-44285369D01*
X125299996Y-44305565D01*
X125300000Y-44305565D01*
X125300004Y-44305565D01*
X125479249Y-44285369D01*
X125479252Y-44285368D01*
X125479255Y-44285368D01*
X125649522Y-44225789D01*
X125684027Y-44204108D01*
X125751263Y-44185107D01*
X125815973Y-44204108D01*
X125850475Y-44225788D01*
X126020745Y-44285368D01*
X126020750Y-44285369D01*
X126199996Y-44305565D01*
X126200000Y-44305565D01*
X126200004Y-44305565D01*
X126379249Y-44285369D01*
X126379252Y-44285368D01*
X126379255Y-44285368D01*
X126549522Y-44225789D01*
X126702262Y-44129816D01*
X126829816Y-44002262D01*
X126925789Y-43849522D01*
X126985368Y-43679255D01*
X126985369Y-43679249D01*
X127005565Y-43500003D01*
X127005565Y-43499996D01*
X126985369Y-43320750D01*
X126985368Y-43320745D01*
X126980183Y-43305928D01*
X126925789Y-43150478D01*
X126892651Y-43097740D01*
X126840431Y-43014632D01*
X126829816Y-42997738D01*
X126702262Y-42870184D01*
X126647720Y-42835913D01*
X126549523Y-42774211D01*
X126379254Y-42714631D01*
X126379249Y-42714630D01*
X126200004Y-42694435D01*
X126199996Y-42694435D01*
X126020750Y-42714630D01*
X126020737Y-42714633D01*
X125850480Y-42774209D01*
X125815970Y-42795893D01*
X125748733Y-42814892D01*
X125684030Y-42795893D01*
X125649519Y-42774209D01*
X125479262Y-42714633D01*
X125479249Y-42714630D01*
X125300004Y-42694435D01*
X125299996Y-42694435D01*
X125120750Y-42714630D01*
X125120737Y-42714633D01*
X124950479Y-42774209D01*
X124865971Y-42827309D01*
X124798734Y-42846309D01*
X124734029Y-42827309D01*
X124649520Y-42774209D01*
X124479262Y-42714633D01*
X124479249Y-42714630D01*
X124300004Y-42694435D01*
X124299996Y-42694435D01*
X124120750Y-42714630D01*
X124120745Y-42714631D01*
X123950476Y-42774211D01*
X123797737Y-42870184D01*
X123670184Y-42997737D01*
X123574211Y-43150476D01*
X123514631Y-43320745D01*
X123514630Y-43320750D01*
X123494435Y-43499996D01*
X118921841Y-43499996D01*
X118920422Y-43497738D01*
X118792868Y-43370184D01*
X118738326Y-43335913D01*
X118640129Y-43274211D01*
X118469860Y-43214631D01*
X118469855Y-43214630D01*
X118290610Y-43194435D01*
X118290602Y-43194435D01*
X118111356Y-43214630D01*
X118111343Y-43214633D01*
X117934512Y-43276510D01*
X117933761Y-43274364D01*
X117875462Y-43283962D01*
X117847015Y-43275609D01*
X117846700Y-43276510D01*
X117669868Y-43214633D01*
X117669855Y-43214630D01*
X117490610Y-43194435D01*
X117490602Y-43194435D01*
X117311356Y-43214630D01*
X117311351Y-43214631D01*
X117141082Y-43274211D01*
X116988343Y-43370184D01*
X116860790Y-43497737D01*
X116764817Y-43650476D01*
X116705237Y-43820745D01*
X116705236Y-43820750D01*
X116685041Y-43999996D01*
X112794074Y-43999996D01*
X112825789Y-43949522D01*
X112885368Y-43779255D01*
X112885369Y-43779249D01*
X112905565Y-43600003D01*
X112905565Y-43599996D01*
X112885369Y-43420750D01*
X112885368Y-43420745D01*
X112825788Y-43250475D01*
X112780052Y-43177688D01*
X112761051Y-43110451D01*
X112781418Y-43043616D01*
X112834686Y-42998401D01*
X112872891Y-42988312D01*
X112892890Y-42986343D01*
X112896133Y-42986024D01*
X112997464Y-42955285D01*
X113064004Y-42935099D01*
X113133871Y-42934476D01*
X113135966Y-42935091D01*
X113303868Y-42986024D01*
X113500000Y-43005341D01*
X113696132Y-42986024D01*
X113864004Y-42935099D01*
X113933871Y-42934476D01*
X113935966Y-42935091D01*
X114103868Y-42986024D01*
X114300000Y-43005341D01*
X114496132Y-42986024D01*
X114664004Y-42935099D01*
X114733871Y-42934476D01*
X114735966Y-42935091D01*
X114903868Y-42986024D01*
X115100000Y-43005341D01*
X115296132Y-42986024D01*
X115484727Y-42928814D01*
X115658538Y-42835910D01*
X115810883Y-42710883D01*
X115935910Y-42558538D01*
X116028814Y-42384727D01*
X116086024Y-42196132D01*
X116105341Y-42000000D01*
X116086024Y-41803868D01*
X116035099Y-41635995D01*
X116034476Y-41566129D01*
X116035100Y-41564004D01*
X116050276Y-41513976D01*
X116086024Y-41396132D01*
X116105341Y-41200000D01*
X116086024Y-41003868D01*
X116035099Y-40835995D01*
X116034476Y-40766129D01*
X116035100Y-40764004D01*
X116086023Y-40596134D01*
X116086024Y-40596132D01*
X116105341Y-40400000D01*
X118194659Y-40400000D01*
X118213975Y-40596130D01*
X118264900Y-40764005D01*
X118265523Y-40833872D01*
X118264900Y-40835995D01*
X118213975Y-41003869D01*
X118194659Y-41200000D01*
X118213975Y-41396130D01*
X118264900Y-41564005D01*
X118265523Y-41633872D01*
X118264900Y-41635995D01*
X118213975Y-41803869D01*
X118194659Y-42000000D01*
X118213975Y-42196129D01*
X118271188Y-42384733D01*
X118364086Y-42558532D01*
X118364090Y-42558539D01*
X118489116Y-42710883D01*
X118641460Y-42835909D01*
X118641467Y-42835913D01*
X118815266Y-42928811D01*
X118815269Y-42928811D01*
X118815273Y-42928814D01*
X119003868Y-42986024D01*
X119200000Y-43005341D01*
X119396132Y-42986024D01*
X119564004Y-42935099D01*
X119633871Y-42934476D01*
X119635966Y-42935091D01*
X119803868Y-42986024D01*
X120000000Y-43005341D01*
X120196132Y-42986024D01*
X120364004Y-42935099D01*
X120433871Y-42934476D01*
X120435966Y-42935091D01*
X120603868Y-42986024D01*
X120800000Y-43005341D01*
X120996132Y-42986024D01*
X121164004Y-42935099D01*
X121233871Y-42934476D01*
X121235966Y-42935091D01*
X121403868Y-42986024D01*
X121600000Y-43005341D01*
X121796132Y-42986024D01*
X121984727Y-42928814D01*
X122158538Y-42835910D01*
X122310883Y-42710883D01*
X122435910Y-42558538D01*
X122528814Y-42384727D01*
X122586024Y-42196132D01*
X122605341Y-42000000D01*
X122586024Y-41803868D01*
X122535099Y-41635995D01*
X122534476Y-41566129D01*
X122535100Y-41564004D01*
X122550276Y-41513976D01*
X122586024Y-41396132D01*
X122605341Y-41200000D01*
X122586024Y-41003868D01*
X122535099Y-40835995D01*
X122534476Y-40766129D01*
X122535100Y-40764004D01*
X122586023Y-40596134D01*
X122586024Y-40596132D01*
X122605341Y-40400000D01*
X122586024Y-40203868D01*
X122528814Y-40015273D01*
X122528811Y-40015269D01*
X122528811Y-40015266D01*
X122435913Y-39841467D01*
X122435909Y-39841460D01*
X122310883Y-39689116D01*
X122158539Y-39564090D01*
X122158532Y-39564086D01*
X121984733Y-39471188D01*
X121984727Y-39471186D01*
X121796132Y-39413976D01*
X121796129Y-39413975D01*
X121600000Y-39394659D01*
X121403869Y-39413975D01*
X121235995Y-39464900D01*
X121166128Y-39465523D01*
X121164005Y-39464900D01*
X120996130Y-39413975D01*
X120800000Y-39394659D01*
X120603869Y-39413975D01*
X120435995Y-39464900D01*
X120366128Y-39465523D01*
X120364005Y-39464900D01*
X120196130Y-39413975D01*
X120000000Y-39394659D01*
X119803869Y-39413975D01*
X119635995Y-39464900D01*
X119566128Y-39465523D01*
X119564005Y-39464900D01*
X119396130Y-39413975D01*
X119200000Y-39394659D01*
X119003870Y-39413975D01*
X118815266Y-39471188D01*
X118641467Y-39564086D01*
X118641460Y-39564090D01*
X118489116Y-39689116D01*
X118364090Y-39841460D01*
X118364086Y-39841467D01*
X118271188Y-40015266D01*
X118213975Y-40203870D01*
X118194659Y-40400000D01*
X116105341Y-40400000D01*
X116086024Y-40203868D01*
X116028814Y-40015273D01*
X116028811Y-40015269D01*
X116028811Y-40015266D01*
X115935913Y-39841467D01*
X115935909Y-39841460D01*
X115810883Y-39689116D01*
X115658539Y-39564090D01*
X115658532Y-39564086D01*
X115484733Y-39471188D01*
X115484727Y-39471186D01*
X115296132Y-39413976D01*
X115296129Y-39413975D01*
X115100000Y-39394659D01*
X114903869Y-39413975D01*
X114735995Y-39464900D01*
X114666128Y-39465523D01*
X114664005Y-39464900D01*
X114496130Y-39413975D01*
X114300000Y-39394659D01*
X114103869Y-39413975D01*
X113935995Y-39464900D01*
X113866128Y-39465523D01*
X113864005Y-39464900D01*
X113696130Y-39413975D01*
X113500000Y-39394659D01*
X113303869Y-39413975D01*
X113135995Y-39464900D01*
X113066128Y-39465523D01*
X113064005Y-39464900D01*
X112896130Y-39413975D01*
X112700000Y-39394659D01*
X112503870Y-39413975D01*
X112315266Y-39471188D01*
X112141467Y-39564086D01*
X112141460Y-39564090D01*
X111989116Y-39689116D01*
X111864090Y-39841460D01*
X111864086Y-39841467D01*
X111771188Y-40015266D01*
X111713975Y-40203870D01*
X111694659Y-40400000D01*
X111713975Y-40596130D01*
X111764900Y-40764005D01*
X111765523Y-40833872D01*
X111764900Y-40835995D01*
X111713975Y-41003869D01*
X111694659Y-41200000D01*
X111713975Y-41396130D01*
X111764900Y-41564005D01*
X111765523Y-41633872D01*
X111764900Y-41635995D01*
X111713975Y-41803869D01*
X111694659Y-42000000D01*
X111713975Y-42196129D01*
X111771188Y-42384733D01*
X111864086Y-42558532D01*
X111864090Y-42558539D01*
X111927479Y-42635778D01*
X111954792Y-42700088D01*
X111943001Y-42768956D01*
X111895849Y-42820516D01*
X111872581Y-42831484D01*
X111750480Y-42874209D01*
X111597737Y-42970184D01*
X111470184Y-43097737D01*
X111470182Y-43097740D01*
X111440862Y-43144402D01*
X111388527Y-43190693D01*
X111319473Y-43201340D01*
X111258079Y-43174054D01*
X111257705Y-43174525D01*
X111255902Y-43173087D01*
X111255625Y-43172964D01*
X111254836Y-43172237D01*
X111252262Y-43170184D01*
X111099523Y-43074211D01*
X110929254Y-43014631D01*
X110929249Y-43014630D01*
X110750004Y-42994435D01*
X110749996Y-42994435D01*
X110570750Y-43014630D01*
X110570745Y-43014631D01*
X110400476Y-43074211D01*
X110247737Y-43170184D01*
X110120184Y-43297737D01*
X110024211Y-43450476D01*
X109964631Y-43620745D01*
X109964630Y-43620750D01*
X109944435Y-43799996D01*
X106216507Y-43799996D01*
X106260789Y-43729522D01*
X106320368Y-43559255D01*
X106327044Y-43500003D01*
X106340565Y-43380003D01*
X106340565Y-43379996D01*
X106320369Y-43200750D01*
X106320367Y-43200742D01*
X106297631Y-43135765D01*
X106294070Y-43065987D01*
X106328799Y-43005359D01*
X106378673Y-42976152D01*
X106514008Y-42935098D01*
X106583872Y-42934476D01*
X106585965Y-42935091D01*
X106753868Y-42986024D01*
X106950000Y-43005341D01*
X107146132Y-42986024D01*
X107314004Y-42935099D01*
X107383871Y-42934476D01*
X107385966Y-42935091D01*
X107553868Y-42986024D01*
X107750000Y-43005341D01*
X107946132Y-42986024D01*
X108114004Y-42935099D01*
X108183871Y-42934476D01*
X108185966Y-42935091D01*
X108353868Y-42986024D01*
X108550000Y-43005341D01*
X108746132Y-42986024D01*
X108934727Y-42928814D01*
X109108538Y-42835910D01*
X109260883Y-42710883D01*
X109385910Y-42558538D01*
X109478814Y-42384727D01*
X109536024Y-42196132D01*
X109555341Y-42000000D01*
X109536024Y-41803868D01*
X109485099Y-41635995D01*
X109484476Y-41566129D01*
X109485100Y-41564004D01*
X109500276Y-41513976D01*
X109536024Y-41396132D01*
X109555341Y-41200000D01*
X109536024Y-41003868D01*
X109485099Y-40835995D01*
X109484476Y-40766129D01*
X109485100Y-40764004D01*
X109536023Y-40596134D01*
X109536024Y-40596132D01*
X109555341Y-40400000D01*
X109536024Y-40203868D01*
X109478814Y-40015273D01*
X109478811Y-40015269D01*
X109478811Y-40015266D01*
X109385913Y-39841467D01*
X109385909Y-39841460D01*
X109260883Y-39689116D01*
X109108539Y-39564090D01*
X109108532Y-39564086D01*
X108934733Y-39471188D01*
X108934727Y-39471186D01*
X108746132Y-39413976D01*
X108746129Y-39413975D01*
X108550000Y-39394659D01*
X108353869Y-39413975D01*
X108185995Y-39464900D01*
X108116128Y-39465523D01*
X108114005Y-39464900D01*
X107946130Y-39413975D01*
X107750000Y-39394659D01*
X107553869Y-39413975D01*
X107385995Y-39464900D01*
X107316128Y-39465523D01*
X107314005Y-39464900D01*
X107146130Y-39413975D01*
X106950000Y-39394659D01*
X106753869Y-39413975D01*
X106585995Y-39464900D01*
X106516128Y-39465523D01*
X106514005Y-39464900D01*
X106346130Y-39413975D01*
X106150000Y-39394659D01*
X105953870Y-39413975D01*
X105765266Y-39471188D01*
X105591467Y-39564086D01*
X105591460Y-39564090D01*
X105439116Y-39689116D01*
X105314090Y-39841460D01*
X105314086Y-39841467D01*
X105221188Y-40015266D01*
X105163975Y-40203870D01*
X105144659Y-40400000D01*
X105163975Y-40596130D01*
X105214900Y-40764005D01*
X105215523Y-40833872D01*
X105214900Y-40835995D01*
X105163975Y-41003869D01*
X105144659Y-41200000D01*
X105163975Y-41396130D01*
X105214900Y-41564005D01*
X105215523Y-41633872D01*
X105214900Y-41635995D01*
X105163975Y-41803869D01*
X105144659Y-42000000D01*
X105163975Y-42196129D01*
X105163976Y-42196132D01*
X105221186Y-42384727D01*
X105251922Y-42442231D01*
X105268660Y-42473545D01*
X105282901Y-42541948D01*
X105257901Y-42607192D01*
X105201595Y-42648562D01*
X105200260Y-42649038D01*
X105185477Y-42654211D01*
X105185475Y-42654212D01*
X105032737Y-42750184D01*
X104905184Y-42877737D01*
X104809212Y-43030475D01*
X104806193Y-43036746D01*
X104804305Y-43035837D01*
X104769485Y-43084364D01*
X104704527Y-43110097D01*
X104635968Y-43096627D01*
X104627213Y-43091610D01*
X104599524Y-43074211D01*
X104429254Y-43014631D01*
X104429249Y-43014630D01*
X104250004Y-42994435D01*
X104249996Y-42994435D01*
X104070231Y-43014689D01*
X104001409Y-43002634D01*
X103950030Y-42955285D01*
X103932406Y-42887675D01*
X103937688Y-42855473D01*
X103943187Y-42837345D01*
X103986024Y-42696132D01*
X104005341Y-42500000D01*
X103986024Y-42303868D01*
X103928814Y-42115273D01*
X103928811Y-42115269D01*
X103928811Y-42115266D01*
X103835913Y-41941467D01*
X103835909Y-41941460D01*
X103710883Y-41789116D01*
X103558539Y-41664090D01*
X103558532Y-41664086D01*
X103384733Y-41571188D01*
X103384727Y-41571186D01*
X103196132Y-41513976D01*
X103196129Y-41513975D01*
X103000000Y-41494659D01*
X102803870Y-41513975D01*
X102615266Y-41571188D01*
X102441467Y-41664086D01*
X102441460Y-41664090D01*
X102328665Y-41756660D01*
X102264355Y-41783973D01*
X102195487Y-41772182D01*
X102171335Y-41756660D01*
X102058539Y-41664090D01*
X102058532Y-41664086D01*
X101884733Y-41571188D01*
X101884727Y-41571186D01*
X101696132Y-41513976D01*
X101696129Y-41513975D01*
X101500000Y-41494659D01*
X101303870Y-41513975D01*
X101115266Y-41571188D01*
X100941467Y-41664086D01*
X100941460Y-41664090D01*
X100789116Y-41789116D01*
X100664090Y-41941460D01*
X100664086Y-41941467D01*
X100571188Y-42115266D01*
X100513975Y-42303870D01*
X100494659Y-42500000D01*
X95504980Y-42500000D01*
X95501890Y-32500000D01*
X100494659Y-32500000D01*
X100513975Y-32696129D01*
X100513976Y-32696132D01*
X100548074Y-32808539D01*
X100571188Y-32884733D01*
X100664086Y-33058532D01*
X100664090Y-33058539D01*
X100756660Y-33171335D01*
X100783973Y-33235645D01*
X100772182Y-33304513D01*
X100756660Y-33328665D01*
X100664090Y-33441460D01*
X100664086Y-33441467D01*
X100571188Y-33615266D01*
X100513975Y-33803870D01*
X100494659Y-34000000D01*
X100513975Y-34196129D01*
X100513976Y-34196132D01*
X100563556Y-34359576D01*
X100571188Y-34384733D01*
X100664086Y-34558532D01*
X100664090Y-34558539D01*
X100756660Y-34671335D01*
X100783973Y-34735645D01*
X100772182Y-34804513D01*
X100756660Y-34828665D01*
X100664090Y-34941460D01*
X100664086Y-34941467D01*
X100571188Y-35115266D01*
X100513975Y-35303870D01*
X100494659Y-35500000D01*
X100513975Y-35696129D01*
X100513976Y-35696132D01*
X100563229Y-35858498D01*
X100571188Y-35884733D01*
X100664086Y-36058532D01*
X100664090Y-36058539D01*
X100756660Y-36171335D01*
X100783973Y-36235645D01*
X100772182Y-36304513D01*
X100756660Y-36328665D01*
X100664090Y-36441460D01*
X100664086Y-36441467D01*
X100571188Y-36615266D01*
X100513975Y-36803870D01*
X100494659Y-37000000D01*
X100513975Y-37196129D01*
X100571188Y-37384733D01*
X100664086Y-37558532D01*
X100664090Y-37558539D01*
X100756660Y-37671335D01*
X100783973Y-37735645D01*
X100772182Y-37804513D01*
X100756660Y-37828665D01*
X100664090Y-37941460D01*
X100664086Y-37941467D01*
X100571188Y-38115266D01*
X100513975Y-38303870D01*
X100494659Y-38500000D01*
X100513975Y-38696129D01*
X100571188Y-38884733D01*
X100664086Y-39058532D01*
X100664090Y-39058539D01*
X100789116Y-39210883D01*
X100941460Y-39335909D01*
X100941467Y-39335913D01*
X101115266Y-39428811D01*
X101115269Y-39428811D01*
X101115273Y-39428814D01*
X101303868Y-39486024D01*
X101500000Y-39505341D01*
X101696132Y-39486024D01*
X101884727Y-39428814D01*
X101948627Y-39394659D01*
X102058532Y-39335913D01*
X102058538Y-39335910D01*
X102171335Y-39243338D01*
X102235644Y-39216026D01*
X102304512Y-39227817D01*
X102328665Y-39243339D01*
X102441460Y-39335909D01*
X102441467Y-39335913D01*
X102615266Y-39428811D01*
X102615269Y-39428811D01*
X102615273Y-39428814D01*
X102803868Y-39486024D01*
X103000000Y-39505341D01*
X103196132Y-39486024D01*
X103384727Y-39428814D01*
X103448627Y-39394659D01*
X103558532Y-39335913D01*
X103558538Y-39335910D01*
X103710883Y-39210883D01*
X103835910Y-39058538D01*
X103928814Y-38884727D01*
X103986024Y-38696132D01*
X104005341Y-38500000D01*
X103986024Y-38303868D01*
X103928814Y-38115273D01*
X103928811Y-38115269D01*
X103928811Y-38115266D01*
X103835913Y-37941467D01*
X103835909Y-37941460D01*
X103743339Y-37828665D01*
X103716026Y-37764356D01*
X103727817Y-37695488D01*
X103743339Y-37671335D01*
X103801887Y-37599996D01*
X122494435Y-37599996D01*
X122494435Y-37600003D01*
X122514630Y-37779249D01*
X122514631Y-37779254D01*
X122574211Y-37949523D01*
X122629701Y-38037834D01*
X122670184Y-38102262D01*
X122797738Y-38229816D01*
X122950478Y-38325789D01*
X123109920Y-38381580D01*
X123120745Y-38385368D01*
X123120750Y-38385369D01*
X123299996Y-38405565D01*
X123300000Y-38405565D01*
X123300004Y-38405565D01*
X123479249Y-38385369D01*
X123479252Y-38385368D01*
X123479255Y-38385368D01*
X123649522Y-38325789D01*
X123802262Y-38229816D01*
X123929816Y-38102262D01*
X123989853Y-38006712D01*
X124042186Y-37960423D01*
X124111240Y-37949774D01*
X124135802Y-37955645D01*
X124220740Y-37985367D01*
X124220750Y-37985369D01*
X124399996Y-38005565D01*
X124400000Y-38005565D01*
X124400004Y-38005565D01*
X124579249Y-37985369D01*
X124579252Y-37985368D01*
X124579255Y-37985368D01*
X124749522Y-37925789D01*
X124902262Y-37829816D01*
X125029816Y-37702262D01*
X125125789Y-37549522D01*
X125185368Y-37379255D01*
X125185369Y-37379249D01*
X125205565Y-37200003D01*
X125205565Y-37199996D01*
X125185369Y-37020750D01*
X125185368Y-37020745D01*
X125137046Y-36882650D01*
X125125789Y-36850478D01*
X125125629Y-36850224D01*
X125029815Y-36697737D01*
X124902262Y-36570184D01*
X124749523Y-36474211D01*
X124579254Y-36414631D01*
X124579249Y-36414630D01*
X124400004Y-36394435D01*
X124399996Y-36394435D01*
X124220750Y-36414630D01*
X124220745Y-36414631D01*
X124050476Y-36474211D01*
X123897737Y-36570184D01*
X123770184Y-36697737D01*
X123710148Y-36793285D01*
X123657813Y-36839576D01*
X123588760Y-36850224D01*
X123564200Y-36844355D01*
X123479257Y-36814632D01*
X123479249Y-36814630D01*
X123300004Y-36794435D01*
X123299996Y-36794435D01*
X123120750Y-36814630D01*
X123120745Y-36814631D01*
X122950476Y-36874211D01*
X122797737Y-36970184D01*
X122670184Y-37097737D01*
X122574211Y-37250476D01*
X122514631Y-37420745D01*
X122514630Y-37420750D01*
X122494435Y-37599996D01*
X103801887Y-37599996D01*
X103805656Y-37595403D01*
X103835910Y-37558538D01*
X103928814Y-37384727D01*
X103986024Y-37196132D01*
X104005341Y-37000000D01*
X103986024Y-36803868D01*
X103928814Y-36615273D01*
X103928811Y-36615269D01*
X103928811Y-36615266D01*
X103835913Y-36441467D01*
X103835909Y-36441460D01*
X103743339Y-36328665D01*
X103716026Y-36264356D01*
X103727817Y-36195488D01*
X103743339Y-36171335D01*
X103810090Y-36090000D01*
X103835910Y-36058538D01*
X103928814Y-35884727D01*
X103986024Y-35696132D01*
X104005341Y-35500000D01*
X103986024Y-35303868D01*
X103928814Y-35115273D01*
X103928811Y-35115269D01*
X103928811Y-35115266D01*
X103835913Y-34941467D01*
X103835909Y-34941460D01*
X103743339Y-34828665D01*
X103716026Y-34764356D01*
X103727817Y-34695488D01*
X103743339Y-34671335D01*
X103801472Y-34600501D01*
X103835910Y-34558538D01*
X103928814Y-34384727D01*
X103986024Y-34196132D01*
X104005341Y-34000000D01*
X103986024Y-33803868D01*
X103928814Y-33615273D01*
X103928811Y-33615269D01*
X103928811Y-33615266D01*
X103835913Y-33441467D01*
X103835909Y-33441460D01*
X103743339Y-33328665D01*
X103716026Y-33264356D01*
X103727817Y-33195488D01*
X103743339Y-33171335D01*
X103778236Y-33128814D01*
X103835910Y-33058538D01*
X103914833Y-32910883D01*
X103928811Y-32884733D01*
X103928811Y-32884732D01*
X103928814Y-32884727D01*
X103986024Y-32696132D01*
X104005341Y-32500000D01*
X103986024Y-32303868D01*
X103969683Y-32250000D01*
X104494659Y-32250000D01*
X104513975Y-32446129D01*
X104513976Y-32446132D01*
X104559965Y-32597738D01*
X104571188Y-32634733D01*
X104664086Y-32808532D01*
X104664090Y-32808539D01*
X104789116Y-32960883D01*
X104941460Y-33085909D01*
X104941467Y-33085913D01*
X105115266Y-33178811D01*
X105115269Y-33178811D01*
X105115273Y-33178814D01*
X105303868Y-33236024D01*
X105500000Y-33255341D01*
X105696132Y-33236024D01*
X105884727Y-33178814D01*
X106058538Y-33085910D01*
X106058540Y-33085908D01*
X106063910Y-33083038D01*
X106064851Y-33084799D01*
X106122765Y-33066654D01*
X106185634Y-33083889D01*
X106186090Y-33083038D01*
X106189840Y-33085042D01*
X106190148Y-33085127D01*
X106190888Y-33085602D01*
X106191457Y-33085906D01*
X106191462Y-33085910D01*
X106365273Y-33178814D01*
X106553868Y-33236024D01*
X106625950Y-33243123D01*
X106690738Y-33269283D01*
X106730839Y-33325572D01*
X106774210Y-33449521D01*
X106796464Y-33484938D01*
X106870184Y-33602262D01*
X106997738Y-33729816D01*
X107150478Y-33825789D01*
X107320745Y-33885368D01*
X107320750Y-33885369D01*
X107499996Y-33905565D01*
X107500000Y-33905565D01*
X107500004Y-33905565D01*
X107679249Y-33885369D01*
X107679250Y-33885368D01*
X107679255Y-33885368D01*
X107759048Y-33857446D01*
X107828823Y-33853884D01*
X107840933Y-33857440D01*
X107920745Y-33885368D01*
X107920749Y-33885368D01*
X107920751Y-33885369D01*
X107920748Y-33885369D01*
X108099996Y-33905565D01*
X108100000Y-33905565D01*
X108100004Y-33905565D01*
X108279249Y-33885369D01*
X108279250Y-33885368D01*
X108279255Y-33885368D01*
X108359048Y-33857446D01*
X108428823Y-33853884D01*
X108440933Y-33857440D01*
X108520745Y-33885368D01*
X108520749Y-33885368D01*
X108520751Y-33885369D01*
X108520748Y-33885369D01*
X108699996Y-33905565D01*
X108700000Y-33905565D01*
X108700004Y-33905565D01*
X108879249Y-33885369D01*
X108879252Y-33885368D01*
X108879255Y-33885368D01*
X109049522Y-33825789D01*
X109202262Y-33729816D01*
X109329816Y-33602262D01*
X109425789Y-33449522D01*
X109485368Y-33279255D01*
X109487047Y-33264356D01*
X109505565Y-33100003D01*
X109505565Y-33099996D01*
X109485369Y-32920750D01*
X109485368Y-32920745D01*
X109481917Y-32910883D01*
X109425789Y-32750478D01*
X109412442Y-32729237D01*
X109366173Y-32655600D01*
X109329816Y-32597738D01*
X109202262Y-32470184D01*
X109113850Y-32414631D01*
X109061344Y-32381639D01*
X109015053Y-32329304D01*
X109003914Y-32264487D01*
X109005341Y-32250003D01*
X109005341Y-32250001D01*
X109001902Y-32215081D01*
X108986024Y-32053868D01*
X108928814Y-31865273D01*
X108928811Y-31865269D01*
X108928811Y-31865266D01*
X108835913Y-31691467D01*
X108835909Y-31691460D01*
X108710883Y-31539116D01*
X108558539Y-31414090D01*
X108558532Y-31414086D01*
X108384733Y-31321188D01*
X108384727Y-31321186D01*
X108196132Y-31263976D01*
X108196129Y-31263975D01*
X108000000Y-31244659D01*
X107803870Y-31263975D01*
X107615266Y-31321188D01*
X107436089Y-31416961D01*
X107435150Y-31415205D01*
X107377203Y-31433344D01*
X107314370Y-31416101D01*
X107313911Y-31416961D01*
X107310122Y-31414935D01*
X107309824Y-31414854D01*
X107309107Y-31414393D01*
X107134733Y-31321188D01*
X107134727Y-31321186D01*
X106946132Y-31263976D01*
X106946129Y-31263975D01*
X106750000Y-31244659D01*
X106553870Y-31263975D01*
X106365266Y-31321188D01*
X106186089Y-31416961D01*
X106185150Y-31415205D01*
X106127203Y-31433344D01*
X106064370Y-31416101D01*
X106063911Y-31416961D01*
X106060122Y-31414935D01*
X106059824Y-31414854D01*
X106059107Y-31414393D01*
X105884733Y-31321188D01*
X105884727Y-31321186D01*
X105696132Y-31263976D01*
X105696129Y-31263975D01*
X105500000Y-31244659D01*
X105303870Y-31263975D01*
X105115266Y-31321188D01*
X104941467Y-31414086D01*
X104941460Y-31414090D01*
X104789116Y-31539116D01*
X104664090Y-31691460D01*
X104664086Y-31691467D01*
X104571188Y-31865266D01*
X104513975Y-32053870D01*
X104494659Y-32250000D01*
X103969683Y-32250000D01*
X103928814Y-32115273D01*
X103928811Y-32115269D01*
X103928811Y-32115266D01*
X103835913Y-31941467D01*
X103835909Y-31941460D01*
X103710883Y-31789116D01*
X103558539Y-31664090D01*
X103558532Y-31664086D01*
X103384733Y-31571188D01*
X103384727Y-31571186D01*
X103196132Y-31513976D01*
X103196129Y-31513975D01*
X103000000Y-31494659D01*
X102803870Y-31513975D01*
X102615266Y-31571188D01*
X102441467Y-31664086D01*
X102441460Y-31664090D01*
X102328665Y-31756660D01*
X102264355Y-31783973D01*
X102195487Y-31772182D01*
X102171335Y-31756660D01*
X102058539Y-31664090D01*
X102058532Y-31664086D01*
X101884733Y-31571188D01*
X101884727Y-31571186D01*
X101696132Y-31513976D01*
X101696129Y-31513975D01*
X101500000Y-31494659D01*
X101303870Y-31513975D01*
X101115266Y-31571188D01*
X100941467Y-31664086D01*
X100941460Y-31664090D01*
X100789116Y-31789116D01*
X100664090Y-31941460D01*
X100664086Y-31941467D01*
X100571188Y-32115266D01*
X100513975Y-32303870D01*
X100494659Y-32500000D01*
X95501890Y-32500000D01*
X95500501Y-28004429D01*
X95500817Y-27995556D01*
X95503811Y-27953708D01*
X95515130Y-27795438D01*
X95517648Y-27777933D01*
X95521560Y-27759949D01*
X95559355Y-27586202D01*
X95564333Y-27569248D01*
X95632911Y-27385385D01*
X95640259Y-27369298D01*
X95702815Y-27254734D01*
X95734291Y-27197089D01*
X95743845Y-27182221D01*
X95861448Y-27025123D01*
X95873020Y-27011769D01*
X96011769Y-26873020D01*
X96025123Y-26861448D01*
X96182221Y-26743845D01*
X96197089Y-26734291D01*
X96369298Y-26640258D01*
X96385385Y-26632911D01*
X96569248Y-26564333D01*
X96586199Y-26559356D01*
X96777938Y-26517646D01*
X96795436Y-26515130D01*
X96995549Y-26500817D01*
X97004449Y-26500502D01*
X104130863Y-26503769D01*
G37*
G04 #@! TD.AperFunction*
M02*
