%TF.GenerationSoftware,KiCad,Pcbnew,8.0.4*%
%TF.CreationDate,2024-09-18T18:28:40+10:00*%
%TF.ProjectId,ESC,4553432e-6b69-4636-9164-5f7063625858,rev?*%
%TF.SameCoordinates,Original*%
%TF.FileFunction,Drillmap*%
%TF.FilePolarity,Positive*%
%FSLAX45Y45*%
G04 Gerber Fmt 4.5, Leading zero omitted, Abs format (unit mm)*
G04 Created by KiCad (PCBNEW 8.0.4) date 2024-09-18 18:28:40*
%MOMM*%
%LPD*%
G01*
G04 APERTURE LIST*
%ADD10C,0.050000*%
%ADD11C,0.200000*%
G04 APERTURE END LIST*
D10*
X12800000Y-2601421D02*
G75*
G02*
X12999999Y-2801421I0J-199999D01*
G01*
X9701421Y-7598579D02*
G75*
G02*
X9501421Y-7398579I-1J199999D01*
G01*
X9501421Y-7398579D02*
X9500000Y-2800000D01*
X13000000Y-7398579D02*
G75*
G02*
X12800000Y-7598580I-200000J-1D01*
G01*
X12800000Y-7598579D02*
X9701421Y-7598579D01*
X9500000Y-2800000D02*
G75*
G02*
X9700000Y-2600000I200000J0D01*
G01*
X13000000Y-2801421D02*
X13000000Y-7398579D01*
X9700000Y-2600000D02*
X12800000Y-2601421D01*
D11*
X9758277Y-7912562D02*
X9758277Y-7712562D01*
X9758277Y-7712562D02*
X9805896Y-7712562D01*
X9805896Y-7712562D02*
X9834467Y-7722086D01*
X9834467Y-7722086D02*
X9853515Y-7741134D01*
X9853515Y-7741134D02*
X9863039Y-7760181D01*
X9863039Y-7760181D02*
X9872563Y-7798277D01*
X9872563Y-7798277D02*
X9872563Y-7826848D01*
X9872563Y-7826848D02*
X9863039Y-7864943D01*
X9863039Y-7864943D02*
X9853515Y-7883991D01*
X9853515Y-7883991D02*
X9834467Y-7903039D01*
X9834467Y-7903039D02*
X9805896Y-7912562D01*
X9805896Y-7912562D02*
X9758277Y-7912562D01*
X9958277Y-7912562D02*
X9958277Y-7779229D01*
X9958277Y-7817324D02*
X9967801Y-7798277D01*
X9967801Y-7798277D02*
X9977324Y-7788753D01*
X9977324Y-7788753D02*
X9996372Y-7779229D01*
X9996372Y-7779229D02*
X10015420Y-7779229D01*
X10082086Y-7912562D02*
X10082086Y-7779229D01*
X10082086Y-7712562D02*
X10072563Y-7722086D01*
X10072563Y-7722086D02*
X10082086Y-7731610D01*
X10082086Y-7731610D02*
X10091610Y-7722086D01*
X10091610Y-7722086D02*
X10082086Y-7712562D01*
X10082086Y-7712562D02*
X10082086Y-7731610D01*
X10205896Y-7912562D02*
X10186848Y-7903039D01*
X10186848Y-7903039D02*
X10177324Y-7883991D01*
X10177324Y-7883991D02*
X10177324Y-7712562D01*
X10310658Y-7912562D02*
X10291610Y-7903039D01*
X10291610Y-7903039D02*
X10282086Y-7883991D01*
X10282086Y-7883991D02*
X10282086Y-7712562D01*
X10539229Y-7912562D02*
X10539229Y-7712562D01*
X10539229Y-7712562D02*
X10605896Y-7855419D01*
X10605896Y-7855419D02*
X10672563Y-7712562D01*
X10672563Y-7712562D02*
X10672563Y-7912562D01*
X10853515Y-7912562D02*
X10853515Y-7807800D01*
X10853515Y-7807800D02*
X10843991Y-7788753D01*
X10843991Y-7788753D02*
X10824944Y-7779229D01*
X10824944Y-7779229D02*
X10786848Y-7779229D01*
X10786848Y-7779229D02*
X10767801Y-7788753D01*
X10853515Y-7903039D02*
X10834467Y-7912562D01*
X10834467Y-7912562D02*
X10786848Y-7912562D01*
X10786848Y-7912562D02*
X10767801Y-7903039D01*
X10767801Y-7903039D02*
X10758277Y-7883991D01*
X10758277Y-7883991D02*
X10758277Y-7864943D01*
X10758277Y-7864943D02*
X10767801Y-7845896D01*
X10767801Y-7845896D02*
X10786848Y-7836372D01*
X10786848Y-7836372D02*
X10834467Y-7836372D01*
X10834467Y-7836372D02*
X10853515Y-7826848D01*
X10948753Y-7779229D02*
X10948753Y-7979229D01*
X10948753Y-7788753D02*
X10967801Y-7779229D01*
X10967801Y-7779229D02*
X11005896Y-7779229D01*
X11005896Y-7779229D02*
X11024944Y-7788753D01*
X11024944Y-7788753D02*
X11034467Y-7798277D01*
X11034467Y-7798277D02*
X11043991Y-7817324D01*
X11043991Y-7817324D02*
X11043991Y-7874467D01*
X11043991Y-7874467D02*
X11034467Y-7893515D01*
X11034467Y-7893515D02*
X11024944Y-7903039D01*
X11024944Y-7903039D02*
X11005896Y-7912562D01*
X11005896Y-7912562D02*
X10967801Y-7912562D01*
X10967801Y-7912562D02*
X10948753Y-7903039D01*
X11129705Y-7893515D02*
X11139229Y-7903039D01*
X11139229Y-7903039D02*
X11129705Y-7912562D01*
X11129705Y-7912562D02*
X11120182Y-7903039D01*
X11120182Y-7903039D02*
X11129705Y-7893515D01*
X11129705Y-7893515D02*
X11129705Y-7912562D01*
X11129705Y-7788753D02*
X11139229Y-7798277D01*
X11139229Y-7798277D02*
X11129705Y-7807800D01*
X11129705Y-7807800D02*
X11120182Y-7798277D01*
X11120182Y-7798277D02*
X11129705Y-7788753D01*
X11129705Y-7788753D02*
X11129705Y-7807800D01*
M02*
