M48
; DRILL file {KiCad 8.0.4} date 2024-09-18T18:28:39+1000
; FORMAT={-:-/ absolute / metric / decimal}
; #@! TF.CreationDate,2024-09-18T18:28:39+10:00
; #@! TF.GenerationSoftware,Kicad,Pcbnew,8.0.4
; #@! TF.FileFunction,Plated,1,6,PTH
FMAT,2
METRIC
; #@! TA.AperFunction,Plated,PTH,ViaDrill
T1C0.300
; #@! TA.AperFunction,Plated,PTH,ViaDrill
T2C0.500
; #@! TA.AperFunction,Plated,PTH,ComponentDrill
T3C0.800
; #@! TA.AperFunction,Plated,PTH,ComponentDrill
T4C1.000
%
G90
G05
T1
X96.0Y-57.9
X96.75Y-70.0
X96.75Y-71.0
X96.75Y-72.0
X96.75Y-73.0
X96.75Y-74.0
X96.75Y-75.0
X96.9Y-63.0
X96.9Y-64.5
X97.5Y-70.0
X97.5Y-71.0
X97.5Y-72.0
X97.5Y-73.0
X97.5Y-74.0
X97.5Y-75.0
X98.0Y-63.0
X98.0Y-64.5
X98.25Y-70.0
X98.25Y-71.0
X98.25Y-72.0
X98.25Y-73.0
X98.25Y-74.0
X98.25Y-75.0
X99.0Y-70.0
X99.0Y-71.0
X99.0Y-72.0
X99.0Y-73.0
X99.0Y-74.0
X99.0Y-75.0
X99.1Y-63.0
X99.1Y-64.5
X99.75Y-70.0
X99.75Y-71.0
X99.75Y-72.0
X99.75Y-73.0
X99.75Y-74.0
X99.75Y-75.0
X100.0Y-51.3
X100.0Y-52.0
X100.0Y-52.8
X100.0Y-54.3
X100.0Y-54.9
X100.0Y-55.5
X100.2Y-62.2
X100.5Y-70.0
X100.5Y-71.0
X100.5Y-72.0
X100.5Y-73.0
X100.5Y-74.0
X100.5Y-75.0
X101.7Y-53.7
X101.8Y-56.1
X102.4Y-53.7
X103.0Y-71.7
X103.1Y-53.7
X103.8Y-69.03
X104.25Y-43.8
X104.5Y-65.0
X104.687Y-70.208
X104.8Y-71.0
X104.9Y-53.7
X105.3Y-69.03
X105.535Y-43.38
X105.6Y-53.7
X106.2Y-53.7
X106.5Y-71.5
X106.511Y-70.289
X106.598Y-60.377
X106.9Y-53.7
X107.1Y-62.21
X107.5Y-33.1
X107.68Y-70.689
X107.725Y-68.2
X107.765Y-64.865
X108.1Y-33.1
X108.2Y-53.7
X108.28Y-55.12
X108.4Y-61.3
X108.461Y-66.161
X108.629Y-60.15
X108.7Y-33.1
X108.9Y-53.7
X109.0Y-54.7
X109.0Y-63.7
X109.0Y-67.5
X109.0Y-68.3
X109.1Y-69.2
X109.209Y-65.125
X109.217Y-34.86
X109.5Y-53.7
X109.6Y-61.6
X109.9Y-69.5
X110.2Y-53.7
X110.3Y-59.7
X110.4Y-60.8
X110.598Y-61.577
X110.65Y-33.2
X110.75Y-43.8
X110.881Y-64.57
X111.058Y-70.368
X111.1Y-55.1
X111.394Y-44.275
X111.4Y-31.3
X111.4Y-32.922
X111.581Y-57.7
X111.6Y-71.25
X112.1Y-43.6
X112.521Y-61.446
X112.576Y-65.151
X112.75Y-51.8
X112.781Y-57.85
X113.0Y-70.4
X113.756Y-58.752
X113.756Y-59.6
X113.84Y-54.827
X114.0Y-33.1
X114.6Y-33.1
X114.725Y-70.6
X114.906Y-58.654
X115.059Y-59.395
X115.2Y-33.1
X115.548Y-58.22
X115.66Y-59.996
X115.761Y-61.536
X115.807Y-52.507
X115.834Y-34.874
X116.585Y-58.985
X117.096Y-54.804
X117.1Y-33.2
X117.2Y-69.1
X117.229Y-60.7
X117.483Y-57.331
X117.491Y-44.0
X117.712Y-63.314
X117.838Y-31.492
X117.859Y-32.947
X117.925Y-59.873
X118.066Y-66.309
X118.291Y-44.0
X118.355Y-58.922
X118.625Y-63.125
X118.9Y-70.875
X118.9Y-71.8
X119.063Y-61.963
X119.063Y-68.512
X119.075Y-67.65
X119.155Y-56.773
X119.194Y-69.449
X119.383Y-59.2
X119.425Y-51.95
X119.5Y-64.225
X120.006Y-63.671
X120.183Y-59.202
X120.265Y-60.8
X120.325Y-64.825
X120.329Y-54.819
X120.7Y-56.075
X120.743Y-63.025
X123.23Y-35.157
X123.3Y-37.6
X123.6Y-33.4
X124.3Y-43.5
X124.4Y-37.2
X124.4Y-33.4
X124.6Y-69.5
X124.6Y-70.5
X124.6Y-71.5
X124.6Y-72.5
X124.6Y-73.5
X124.6Y-74.5
X124.7Y-30.875
X125.3Y-43.5
X125.4Y-69.5
X125.4Y-70.5
X125.4Y-71.5
X125.4Y-72.5
X125.4Y-73.5
X125.4Y-74.5
X125.6Y-37.2
X125.7Y-31.4
X126.2Y-43.5
X126.2Y-69.5
X126.2Y-70.5
X126.2Y-71.5
X126.2Y-72.5
X126.2Y-73.5
X126.2Y-74.5
X127.0Y-69.5
X127.0Y-70.5
X127.0Y-71.5
X127.0Y-72.5
X127.0Y-73.5
X127.0Y-74.5
X127.8Y-69.5
X127.8Y-70.5
X127.8Y-71.5
X127.8Y-72.5
X127.8Y-73.5
X127.8Y-74.5
X128.6Y-69.5
X128.6Y-70.5
X128.6Y-71.5
X128.6Y-72.5
X128.6Y-73.5
X128.6Y-74.5
T2
X101.5Y-32.5
X101.5Y-34.0
X101.5Y-35.5
X101.5Y-37.0
X101.5Y-38.5
X101.5Y-42.5
X103.0Y-32.5
X103.0Y-34.0
X103.0Y-35.5
X103.0Y-37.0
X103.0Y-38.5
X103.0Y-42.5
X104.1Y-55.3
X104.7Y-59.9
X105.1Y-27.2
X105.1Y-28.3
X105.1Y-29.4
X105.5Y-32.25
X106.15Y-40.4
X106.15Y-41.2
X106.15Y-42.0
X106.2Y-27.2
X106.2Y-28.3
X106.2Y-29.4
X106.75Y-32.25
X106.95Y-40.4
X106.95Y-41.2
X106.95Y-42.0
X107.1Y-58.1
X107.3Y-27.2
X107.3Y-28.3
X107.3Y-29.4
X107.75Y-40.4
X107.75Y-41.2
X107.75Y-42.0
X107.76Y-56.76
X108.0Y-32.25
X108.1Y-58.1
X108.4Y-27.2
X108.4Y-28.3
X108.4Y-29.4
X108.55Y-40.4
X108.55Y-41.2
X108.55Y-42.0
X109.5Y-27.2
X109.5Y-28.3
X109.5Y-29.4
X111.8Y-27.2
X111.8Y-28.3
X111.8Y-29.4
X112.7Y-40.4
X112.7Y-41.2
X112.7Y-42.0
X112.9Y-27.2
X112.9Y-28.3
X112.9Y-29.4
X113.0Y-32.25
X113.5Y-40.4
X113.5Y-41.2
X113.5Y-42.0
X114.0Y-27.2
X114.0Y-28.3
X114.0Y-29.4
X114.25Y-32.25
X114.3Y-40.4
X114.3Y-41.2
X114.3Y-42.0
X115.1Y-27.2
X115.1Y-28.3
X115.1Y-29.4
X115.1Y-40.4
X115.1Y-41.2
X115.1Y-42.0
X115.5Y-32.25
X116.2Y-27.2
X116.2Y-28.3
X116.2Y-29.4
X118.3Y-27.2
X118.3Y-28.3
X118.3Y-29.4
X119.2Y-40.4
X119.2Y-41.2
X119.2Y-42.0
X119.4Y-27.2
X119.4Y-28.3
X119.4Y-29.4
X119.925Y-32.2
X120.0Y-40.4
X120.0Y-41.2
X120.0Y-42.0
X120.5Y-27.2
X120.5Y-28.3
X120.5Y-29.4
X120.8Y-40.4
X120.8Y-41.2
X120.8Y-42.0
X120.975Y-32.2
X121.6Y-27.2
X121.6Y-28.3
X121.6Y-29.4
X121.6Y-40.4
X121.6Y-41.2
X121.6Y-42.0
X122.0Y-55.5
X122.0Y-56.5
X122.0Y-57.5
X122.0Y-58.5
X122.0Y-59.5
X122.075Y-32.2
X122.7Y-27.2
X122.7Y-28.3
X122.7Y-29.4
X125.65Y-47.15
X125.65Y-49.15
X125.65Y-51.15
X125.65Y-53.15
X125.65Y-55.15
X125.65Y-57.15
X125.65Y-59.15
X125.65Y-61.15
X125.65Y-63.15
X125.65Y-65.15
X125.65Y-67.15
X126.65Y-47.15
X126.65Y-49.15
X126.65Y-51.15
X126.65Y-53.15
X126.65Y-55.15
X126.65Y-57.15
X126.65Y-59.15
X126.65Y-61.15
X126.65Y-63.15
X126.65Y-65.15
X126.65Y-67.15
X127.65Y-47.15
X127.65Y-49.15
X127.65Y-51.15
X127.65Y-53.15
X127.65Y-55.15
X127.65Y-57.15
X127.65Y-59.15
X127.65Y-61.15
X127.65Y-63.15
X127.65Y-65.15
X127.65Y-67.15
T3
X103.475Y-74.75
X105.475Y-74.75
X119.775Y-74.35
X121.775Y-74.35
T4
X108.77Y-74.5
X111.31Y-74.5
X113.85Y-74.5
X116.39Y-74.5
X121.75Y-63.17
X121.75Y-65.71
X121.75Y-68.25
X121.75Y-70.79
X128.125Y-29.74
X128.125Y-32.28
X128.125Y-34.82
X128.125Y-37.36
X128.125Y-39.9
M30
