G04 #@! TF.GenerationSoftware,KiCad,Pcbnew,8.0.4*
G04 #@! TF.CreationDate,2024-09-18T18:28:33+10:00*
G04 #@! TF.ProjectId,ESC,4553432e-6b69-4636-9164-5f7063625858,rev?*
G04 #@! TF.SameCoordinates,Original*
G04 #@! TF.FileFunction,Soldermask,Top*
G04 #@! TF.FilePolarity,Negative*
%FSLAX46Y46*%
G04 Gerber Fmt 4.6, Leading zero omitted, Abs format (unit mm)*
G04 Created by KiCad (PCBNEW 8.0.4) date 2024-09-18 18:28:33*
%MOMM*%
%LPD*%
G01*
G04 APERTURE LIST*
G04 Aperture macros list*
%AMRoundRect*
0 Rectangle with rounded corners*
0 $1 Rounding radius*
0 $2 $3 $4 $5 $6 $7 $8 $9 X,Y pos of 4 corners*
0 Add a 4 corners polygon primitive as box body*
4,1,4,$2,$3,$4,$5,$6,$7,$8,$9,$2,$3,0*
0 Add four circle primitives for the rounded corners*
1,1,$1+$1,$2,$3*
1,1,$1+$1,$4,$5*
1,1,$1+$1,$6,$7*
1,1,$1+$1,$8,$9*
0 Add four rect primitives between the rounded corners*
20,1,$1+$1,$2,$3,$4,$5,0*
20,1,$1+$1,$4,$5,$6,$7,0*
20,1,$1+$1,$6,$7,$8,$9,0*
20,1,$1+$1,$8,$9,$2,$3,0*%
%AMRotRect*
0 Rectangle, with rotation*
0 The origin of the aperture is its center*
0 $1 length*
0 $2 width*
0 $3 Rotation angle, in degrees counterclockwise*
0 Add horizontal line*
21,1,$1,$2,0,0,$3*%
%AMFreePoly0*
4,1,37,-1.494645,2.535355,-1.480000,2.500000,-1.480000,2.080000,1.480000,2.080000,1.480000,2.500000,1.494645,2.535355,1.530000,2.550000,2.280000,2.550000,2.315355,2.535355,2.330000,2.500000,2.330000,-0.650000,2.750000,-0.650000,2.785355,-0.664645,2.800000,-0.700000,2.800000,-1.600000,2.785355,-1.635355,2.750000,-1.650000,2.330000,-1.650000,2.330000,-2.030000,2.315355,-2.065355,
2.280000,-2.080000,-2.280000,-2.080000,-2.315355,-2.065355,-2.330000,-2.030000,-2.330000,-1.650000,-2.760000,-1.650000,-2.795355,-1.635355,-2.810000,-1.600000,-2.810000,-0.700000,-2.795355,-0.664645,-2.760000,-0.650000,-2.330000,-0.650000,-2.330000,2.500000,-2.315355,2.535355,-2.280000,2.550000,-1.530000,2.550000,-1.494645,2.535355,-1.494645,2.535355,$1*%
%AMFreePoly1*
4,1,149,1.029806,0.999029,1.079806,0.989029,1.082127,0.988507,1.120971,0.978796,1.169806,0.969029,1.172127,0.968507,1.252127,0.948507,1.262361,0.944721,1.297451,0.927176,1.332127,0.918507,1.342361,0.914721,1.422361,0.874721,1.430000,0.870000,1.466394,0.842704,1.502361,0.824721,1.515355,0.815355,1.542840,0.787870,1.580000,0.760000,1.585355,0.755355,1.705355,0.635355,
1.710000,0.630000,1.737870,0.592840,1.765355,0.565355,1.774721,0.552361,1.834721,0.432361,1.838507,0.422127,1.849039,0.380000,3.510000,0.380000,3.545355,0.365355,3.560000,0.330000,3.560000,-0.330000,3.545355,-0.365355,3.510000,-0.380000,1.849039,-0.380000,1.838507,-0.422127,1.834721,-0.432361,1.774721,-0.552361,1.765355,-0.565355,1.737870,-0.592840,1.710000,-0.630000,
1.705355,-0.635355,1.647870,-0.692840,1.620000,-0.730000,1.607735,-0.741603,1.578884,-0.760837,1.542840,-0.787870,1.515355,-0.815355,1.502361,-0.824721,1.466394,-0.842704,1.430000,-0.870000,1.422361,-0.874721,1.342361,-0.914721,1.332127,-0.918507,1.297451,-0.927176,1.262361,-0.944721,1.252127,-0.948507,1.172127,-0.968507,1.169806,-0.969029,1.120971,-0.978796,1.082127,-0.988507,
1.079806,-0.989029,1.029806,-0.999029,1.020000,-1.000000,-1.010000,-1.000000,-1.022127,-0.998507,-1.060971,-0.988796,-1.109806,-0.979029,-1.112127,-0.978507,-1.190971,-0.958796,-1.239806,-0.949029,-1.252361,-0.944721,-1.287451,-0.927176,-1.322127,-0.918507,-1.332361,-0.914721,-1.412361,-0.874721,-1.420000,-0.870000,-1.458884,-0.840837,-1.487735,-0.821603,-1.490000,-0.820000,-1.530000,-0.790000,
-1.535355,-0.785355,-1.559617,-0.761093,-1.592361,-0.744721,-1.610000,-0.730000,-1.637870,-0.692840,-1.695355,-0.635355,-1.700000,-0.630000,-1.730000,-0.590000,-1.731603,-0.587735,-1.751603,-0.557735,-1.754721,-0.552361,-1.772704,-0.516394,-1.800000,-0.480000,-1.804721,-0.472361,-1.844721,-0.392361,-1.848507,-0.382127,-1.857176,-0.347451,-1.874721,-0.312361,-1.879029,-0.299806,-1.888796,-0.250971,
-1.908507,-0.172127,-1.910000,-0.160000,-1.910000,-0.116155,-1.918507,-0.082127,-1.920000,-0.070000,-1.920000,0.070000,-1.918507,0.082127,-1.910000,0.116155,-1.910000,0.150000,-1.909029,0.159806,-1.899029,0.209806,-1.898507,0.212127,-1.878507,0.292127,-1.876424,0.298570,-1.857683,0.345421,-1.848507,0.382127,-1.844721,0.392361,-1.804721,0.472361,-1.800000,0.480000,-1.772704,0.516394,
-1.754721,0.552361,-1.751603,0.557735,-1.731603,0.587735,-1.730000,0.590000,-1.700000,0.630000,-1.695355,0.635355,-1.605355,0.725355,-1.600000,0.730000,-1.562840,0.757870,-1.535355,0.785355,-1.530000,0.790000,-1.490000,0.820000,-1.487735,0.821603,-1.458884,0.840837,-1.420000,0.870000,-1.412361,0.874721,-1.332361,0.914721,-1.322127,0.918507,-1.287451,0.927176,-1.252361,0.944721,
-1.239806,0.949029,-1.190971,0.958796,-1.112127,0.978507,-1.109806,0.979029,-1.060971,0.988796,-1.022127,0.998507,-1.010000,1.000000,1.020000,1.000000,1.029806,0.999029,1.029806,0.999029,$1*%
G04 Aperture macros list end*
%ADD10R,1.700000X1.700000*%
%ADD11O,1.700000X1.700000*%
%ADD12R,0.750000X1.000000*%
%ADD13FreePoly0,180.000000*%
%ADD14RoundRect,0.135000X0.185000X-0.135000X0.185000X0.135000X-0.185000X0.135000X-0.185000X-0.135000X0*%
%ADD15R,5.500000X3.000000*%
%ADD16RoundRect,0.135000X-0.135000X-0.185000X0.135000X-0.185000X0.135000X0.185000X-0.135000X0.185000X0*%
%ADD17RoundRect,0.250000X-1.100000X0.325000X-1.100000X-0.325000X1.100000X-0.325000X1.100000X0.325000X0*%
%ADD18RoundRect,0.140000X-0.140000X-0.170000X0.140000X-0.170000X0.140000X0.170000X-0.140000X0.170000X0*%
%ADD19RoundRect,0.250000X-0.250000X-0.475000X0.250000X-0.475000X0.250000X0.475000X-0.250000X0.475000X0*%
%ADD20O,0.600000X1.600000*%
%ADD21R,3.200000X2.500000*%
%ADD22R,1.580000X0.670000*%
%ADD23FreePoly1,180.000000*%
%ADD24RoundRect,0.250000X-0.325000X-0.650000X0.325000X-0.650000X0.325000X0.650000X-0.325000X0.650000X0*%
%ADD25R,0.780000X0.500000*%
%ADD26RoundRect,0.140000X0.219203X0.021213X0.021213X0.219203X-0.219203X-0.021213X-0.021213X-0.219203X0*%
%ADD27RoundRect,0.250000X1.100000X-0.325000X1.100000X0.325000X-1.100000X0.325000X-1.100000X-0.325000X0*%
%ADD28RoundRect,0.225000X-0.225000X-0.250000X0.225000X-0.250000X0.225000X0.250000X-0.225000X0.250000X0*%
%ADD29RoundRect,0.250000X0.325000X1.100000X-0.325000X1.100000X-0.325000X-1.100000X0.325000X-1.100000X0*%
%ADD30RoundRect,0.135000X-0.185000X0.135000X-0.185000X-0.135000X0.185000X-0.135000X0.185000X0.135000X0*%
%ADD31RoundRect,0.250000X-0.325000X-1.100000X0.325000X-1.100000X0.325000X1.100000X-0.325000X1.100000X0*%
%ADD32RoundRect,0.225000X-0.250000X0.225000X-0.250000X-0.225000X0.250000X-0.225000X0.250000X0.225000X0*%
%ADD33RoundRect,0.250000X-0.650000X0.325000X-0.650000X-0.325000X0.650000X-0.325000X0.650000X0.325000X0*%
%ADD34R,1.350000X1.350000*%
%ADD35O,1.350000X1.350000*%
%ADD36RoundRect,0.140000X-0.170000X0.140000X-0.170000X-0.140000X0.170000X-0.140000X0.170000X0.140000X0*%
%ADD37RotRect,0.780000X0.500000X225.000000*%
%ADD38RoundRect,0.135000X0.135000X0.185000X-0.135000X0.185000X-0.135000X-0.185000X0.135000X-0.185000X0*%
%ADD39RoundRect,0.250000X-0.475000X0.250000X-0.475000X-0.250000X0.475000X-0.250000X0.475000X0.250000X0*%
G04 APERTURE END LIST*
D10*
X121750000Y-63170000D03*
D11*
X121750000Y-65710000D03*
X121750000Y-68250000D03*
X121750000Y-70790000D03*
D12*
X109335000Y-43380000D03*
X108065000Y-43380000D03*
X106805000Y-43380000D03*
X105535000Y-43380000D03*
D13*
X107435000Y-47000000D03*
D14*
X117925000Y-59959999D03*
X117925000Y-58940001D03*
D10*
X128125000Y-39900000D03*
D11*
X128125000Y-37360000D03*
X128125000Y-34820000D03*
X128125000Y-32280000D03*
X128125000Y-29740000D03*
D15*
X103600000Y-67030000D03*
X103600000Y-62370000D03*
D16*
X115630000Y-56025000D03*
X116650000Y-56025000D03*
D10*
X116390000Y-74500000D03*
D11*
X113850000Y-74500000D03*
X111310001Y-74500000D03*
X108770000Y-74500000D03*
D14*
X119175000Y-59969998D03*
X119175000Y-58950000D03*
D17*
X112270000Y-50720000D03*
X112270000Y-53670000D03*
D18*
X98840000Y-68100000D03*
X99800000Y-68100000D03*
D19*
X107675000Y-59750000D03*
X109575000Y-59750000D03*
D20*
X99894988Y-60700000D03*
X98624988Y-60700000D03*
X97354988Y-60700000D03*
X96084988Y-60700000D03*
X96084988Y-66700000D03*
X97354988Y-66700000D03*
X98624988Y-66700000D03*
X99894988Y-66700000D03*
D21*
X97994988Y-63700000D03*
D22*
X105540000Y-55200000D03*
D23*
X108260000Y-56700000D03*
D22*
X105540000Y-58200000D03*
D14*
X117925000Y-58050000D03*
X117925000Y-57030002D03*
D16*
X102780002Y-70100000D03*
X103800000Y-70100000D03*
D24*
X97049998Y-54900000D03*
X100000000Y-54900000D03*
D14*
X96000000Y-59519998D03*
X96000000Y-58500000D03*
D25*
X109900000Y-67500000D03*
X111980000Y-67500000D03*
D18*
X110040000Y-66175000D03*
X111000000Y-66175000D03*
D12*
X109275000Y-33860000D03*
X108005000Y-33860000D03*
X106745000Y-33860000D03*
X105475000Y-33860000D03*
D13*
X107375000Y-37480000D03*
D25*
X116525000Y-63025000D03*
X118605000Y-63025000D03*
D26*
X108675000Y-62400000D03*
X107996178Y-61721178D03*
D27*
X125200000Y-46350002D03*
X125200000Y-43400000D03*
D16*
X111500000Y-68600000D03*
X112520000Y-68600000D03*
D28*
X110025000Y-63000000D03*
X111575000Y-63000000D03*
D16*
X115605000Y-57450000D03*
X116625000Y-57450000D03*
D17*
X121975000Y-50824998D03*
X121975000Y-53775000D03*
X109000000Y-50749998D03*
X109000000Y-53700000D03*
D29*
X124750002Y-56300000D03*
X121800000Y-56300000D03*
D30*
X106950000Y-64890001D03*
X106950000Y-65909999D03*
D18*
X124440000Y-34400000D03*
X125400000Y-34400000D03*
D31*
X98775000Y-34225000D03*
X101725000Y-34225000D03*
X98775000Y-37500000D03*
X101725000Y-37500000D03*
D27*
X102300000Y-46250002D03*
X102300000Y-43300000D03*
D19*
X111400000Y-56400000D03*
X113300000Y-56400000D03*
D17*
X105725000Y-50749999D03*
X105725000Y-53700001D03*
D12*
X122315606Y-33860000D03*
X121045606Y-33860000D03*
X119785606Y-33860000D03*
X118515606Y-33860000D03*
D13*
X120415606Y-37480000D03*
D25*
X118185000Y-60800000D03*
X120265000Y-60800000D03*
D14*
X120425000Y-59969998D03*
X120425000Y-58950000D03*
D17*
X102500000Y-50749998D03*
X102500000Y-53700000D03*
D32*
X103680000Y-58290000D03*
X103680000Y-59840000D03*
D17*
X118700000Y-50775000D03*
X118700000Y-53725002D03*
D12*
X122375606Y-43380000D03*
X121105606Y-43380000D03*
X119845606Y-43380000D03*
X118575606Y-43380000D03*
D13*
X120475606Y-47000000D03*
D17*
X115480000Y-50740000D03*
X115480000Y-53690000D03*
D30*
X119750000Y-55130002D03*
X119750000Y-56150000D03*
D18*
X110000000Y-65200000D03*
X110960000Y-65200000D03*
D12*
X115875606Y-43380000D03*
X114605606Y-43380000D03*
X113345606Y-43380000D03*
X112075606Y-43380000D03*
D13*
X113975606Y-47000000D03*
D33*
X101800000Y-56975000D03*
X101800000Y-59925000D03*
D31*
X98800000Y-40750000D03*
X101750000Y-40750000D03*
D34*
X103475000Y-74750000D03*
D35*
X105475001Y-74750000D03*
D12*
X115815606Y-33860000D03*
X114545606Y-33860000D03*
X113285606Y-33860000D03*
X112015606Y-33860000D03*
D13*
X113915606Y-37480000D03*
D30*
X107000000Y-62980002D03*
X107000000Y-64000000D03*
D14*
X119175000Y-58069998D03*
X119175000Y-57050000D03*
D36*
X105800000Y-69120000D03*
X105800000Y-70080000D03*
D14*
X120425000Y-58060000D03*
X120425000Y-57040000D03*
D37*
X117170782Y-59429218D03*
X115700000Y-60900000D03*
D29*
X124750002Y-59500000D03*
X121800000Y-59500000D03*
D38*
X103800000Y-71100000D03*
X102780002Y-71100000D03*
D39*
X111525000Y-58750002D03*
X111525000Y-60650000D03*
D34*
X119775000Y-74350000D03*
D35*
X121775001Y-74350000D03*
D31*
X98750000Y-31000000D03*
X101700000Y-31000000D03*
G36*
X128506061Y-68900597D02*
G01*
X128682934Y-68918017D01*
X128706775Y-68922759D01*
X128870998Y-68972575D01*
X128893456Y-68981878D01*
X129044798Y-69062772D01*
X129065010Y-69076277D01*
X129197666Y-69185145D01*
X129214854Y-69202333D01*
X129323722Y-69334989D01*
X129337227Y-69355201D01*
X129418121Y-69506543D01*
X129427424Y-69529001D01*
X129477240Y-69693224D01*
X129481982Y-69717065D01*
X129499403Y-69893938D01*
X129500000Y-69906092D01*
X129500000Y-75231157D01*
X129498029Y-75253177D01*
X129493353Y-75279090D01*
X129477967Y-75320341D01*
X129471455Y-75331317D01*
X129439125Y-75367311D01*
X129433659Y-75371403D01*
X129385710Y-75393303D01*
X129367961Y-75397165D01*
X129341597Y-75400000D01*
X124506093Y-75400000D01*
X124493939Y-75399403D01*
X124317065Y-75381982D01*
X124293224Y-75377240D01*
X124129001Y-75327424D01*
X124106543Y-75318121D01*
X123955201Y-75237227D01*
X123934989Y-75223722D01*
X123802333Y-75114854D01*
X123785145Y-75097666D01*
X123676277Y-74965010D01*
X123662772Y-74944798D01*
X123581878Y-74793456D01*
X123572575Y-74770998D01*
X123522759Y-74606775D01*
X123518017Y-74582934D01*
X123500597Y-74406061D01*
X123500000Y-74393907D01*
X123500000Y-69906092D01*
X123500597Y-69893938D01*
X123518017Y-69717065D01*
X123522759Y-69693224D01*
X123572575Y-69529001D01*
X123581878Y-69506543D01*
X123662772Y-69355201D01*
X123676277Y-69334989D01*
X123785145Y-69202333D01*
X123802333Y-69185145D01*
X123934989Y-69076277D01*
X123955201Y-69062772D01*
X124106543Y-68981878D01*
X124129001Y-68972575D01*
X124293224Y-68922759D01*
X124317065Y-68918017D01*
X124493939Y-68900597D01*
X124506093Y-68900000D01*
X128493907Y-68900000D01*
X128506061Y-68900597D01*
G37*
G36*
X115806061Y-26600597D02*
G01*
X115982934Y-26618017D01*
X116006775Y-26622759D01*
X116170998Y-26672575D01*
X116193456Y-26681878D01*
X116344798Y-26762772D01*
X116365010Y-26776277D01*
X116497666Y-26885145D01*
X116514854Y-26902333D01*
X116623722Y-27034989D01*
X116637227Y-27055201D01*
X116718121Y-27206543D01*
X116727424Y-27229001D01*
X116777240Y-27393224D01*
X116781982Y-27417065D01*
X116799403Y-27593938D01*
X116800000Y-27606092D01*
X116800000Y-28993907D01*
X116799403Y-29006061D01*
X116781982Y-29182934D01*
X116777240Y-29206775D01*
X116727424Y-29370998D01*
X116718121Y-29393456D01*
X116637227Y-29544798D01*
X116623722Y-29565010D01*
X116514854Y-29697666D01*
X116497666Y-29714854D01*
X116365010Y-29823722D01*
X116344798Y-29837227D01*
X116193456Y-29918121D01*
X116170998Y-29927424D01*
X116006775Y-29977240D01*
X115982934Y-29981982D01*
X115806061Y-29999403D01*
X115793907Y-30000000D01*
X112206093Y-30000000D01*
X112193939Y-29999403D01*
X112017065Y-29981982D01*
X111993224Y-29977240D01*
X111829001Y-29927424D01*
X111806543Y-29918121D01*
X111655201Y-29837227D01*
X111634989Y-29823722D01*
X111502333Y-29714854D01*
X111485145Y-29697666D01*
X111376277Y-29565010D01*
X111362772Y-29544798D01*
X111281878Y-29393456D01*
X111272575Y-29370998D01*
X111222759Y-29206775D01*
X111218017Y-29182934D01*
X111200597Y-29006061D01*
X111200000Y-28993907D01*
X111200000Y-27606092D01*
X111200597Y-27593938D01*
X111218017Y-27417065D01*
X111222759Y-27393224D01*
X111272575Y-27229001D01*
X111281878Y-27206543D01*
X111362772Y-27055201D01*
X111376277Y-27034989D01*
X111485145Y-26902333D01*
X111502333Y-26885145D01*
X111634989Y-26776277D01*
X111655201Y-26762772D01*
X111806543Y-26681878D01*
X111829001Y-26672575D01*
X111993224Y-26622759D01*
X112017065Y-26618017D01*
X112193939Y-26600597D01*
X112206093Y-26600000D01*
X115793907Y-26600000D01*
X115806061Y-26600597D01*
G37*
G36*
X109106061Y-26600597D02*
G01*
X109282934Y-26618017D01*
X109306775Y-26622759D01*
X109470998Y-26672575D01*
X109493456Y-26681878D01*
X109644798Y-26762772D01*
X109665010Y-26776277D01*
X109797666Y-26885145D01*
X109814854Y-26902333D01*
X109923722Y-27034989D01*
X109937227Y-27055201D01*
X110018121Y-27206543D01*
X110027424Y-27229001D01*
X110077240Y-27393224D01*
X110081982Y-27417065D01*
X110099403Y-27593938D01*
X110100000Y-27606092D01*
X110100000Y-28993907D01*
X110099403Y-29006061D01*
X110081982Y-29182934D01*
X110077240Y-29206775D01*
X110027424Y-29370998D01*
X110018121Y-29393456D01*
X109937227Y-29544798D01*
X109923722Y-29565010D01*
X109814854Y-29697666D01*
X109797666Y-29714854D01*
X109665010Y-29823722D01*
X109644798Y-29837227D01*
X109493456Y-29918121D01*
X109470998Y-29927424D01*
X109306775Y-29977240D01*
X109282934Y-29981982D01*
X109106061Y-29999403D01*
X109093907Y-30000000D01*
X105506093Y-30000000D01*
X105493939Y-29999403D01*
X105317065Y-29981982D01*
X105293224Y-29977240D01*
X105129001Y-29927424D01*
X105106543Y-29918121D01*
X104955201Y-29837227D01*
X104934989Y-29823722D01*
X104802333Y-29714854D01*
X104785145Y-29697666D01*
X104676277Y-29565010D01*
X104662772Y-29544798D01*
X104581878Y-29393456D01*
X104572575Y-29370998D01*
X104522759Y-29206775D01*
X104518017Y-29182934D01*
X104500597Y-29006061D01*
X104500000Y-28993907D01*
X104500000Y-27606092D01*
X104500597Y-27593938D01*
X104518017Y-27417065D01*
X104522759Y-27393224D01*
X104572575Y-27229001D01*
X104581878Y-27206543D01*
X104662772Y-27055201D01*
X104676277Y-27034989D01*
X104785145Y-26902333D01*
X104802333Y-26885145D01*
X104934989Y-26776277D01*
X104955201Y-26762772D01*
X105106543Y-26681878D01*
X105129001Y-26672575D01*
X105293224Y-26622759D01*
X105317065Y-26618017D01*
X105493939Y-26600597D01*
X105506093Y-26600000D01*
X109093907Y-26600000D01*
X109106061Y-26600597D01*
G37*
G36*
X122306061Y-26600597D02*
G01*
X122482934Y-26618017D01*
X122506775Y-26622759D01*
X122670998Y-26672575D01*
X122693456Y-26681878D01*
X122844798Y-26762772D01*
X122865010Y-26776277D01*
X122997666Y-26885145D01*
X123014854Y-26902333D01*
X123123722Y-27034989D01*
X123137227Y-27055201D01*
X123218121Y-27206543D01*
X123227424Y-27229001D01*
X123277240Y-27393224D01*
X123281982Y-27417065D01*
X123299403Y-27593938D01*
X123300000Y-27606092D01*
X123300000Y-28993907D01*
X123299403Y-29006061D01*
X123281982Y-29182934D01*
X123277240Y-29206775D01*
X123227424Y-29370998D01*
X123218121Y-29393456D01*
X123137227Y-29544798D01*
X123123722Y-29565010D01*
X123014854Y-29697666D01*
X122997666Y-29714854D01*
X122865010Y-29823722D01*
X122844798Y-29837227D01*
X122693456Y-29918121D01*
X122670998Y-29927424D01*
X122506775Y-29977240D01*
X122482934Y-29981982D01*
X122306061Y-29999403D01*
X122293907Y-30000000D01*
X118706093Y-30000000D01*
X118693939Y-29999403D01*
X118517065Y-29981982D01*
X118493224Y-29977240D01*
X118329001Y-29927424D01*
X118306543Y-29918121D01*
X118155201Y-29837227D01*
X118134989Y-29823722D01*
X118002333Y-29714854D01*
X117985145Y-29697666D01*
X117876277Y-29565010D01*
X117862772Y-29544798D01*
X117781878Y-29393456D01*
X117772575Y-29370998D01*
X117722759Y-29206775D01*
X117718017Y-29182934D01*
X117700597Y-29006061D01*
X117700000Y-28993907D01*
X117700000Y-27606092D01*
X117700597Y-27593938D01*
X117718017Y-27417065D01*
X117722759Y-27393224D01*
X117772575Y-27229001D01*
X117781878Y-27206543D01*
X117862772Y-27055201D01*
X117876277Y-27034989D01*
X117985145Y-26902333D01*
X118002333Y-26885145D01*
X118134989Y-26776277D01*
X118155201Y-26762772D01*
X118306543Y-26681878D01*
X118329001Y-26672575D01*
X118493224Y-26622759D01*
X118517065Y-26618017D01*
X118693939Y-26600597D01*
X118706093Y-26600000D01*
X122293907Y-26600000D01*
X122306061Y-26600597D01*
G37*
G36*
X100506061Y-69000597D02*
G01*
X100682934Y-69018017D01*
X100706775Y-69022759D01*
X100870998Y-69072575D01*
X100893456Y-69081878D01*
X101044798Y-69162772D01*
X101065010Y-69176277D01*
X101197666Y-69285145D01*
X101214854Y-69302333D01*
X101323722Y-69434989D01*
X101337227Y-69455201D01*
X101418121Y-69606543D01*
X101427424Y-69629001D01*
X101477240Y-69793224D01*
X101481982Y-69817065D01*
X101499403Y-69993938D01*
X101500000Y-70006092D01*
X101500000Y-74493907D01*
X101499403Y-74506061D01*
X101481982Y-74682934D01*
X101477240Y-74706775D01*
X101427424Y-74870998D01*
X101418121Y-74893456D01*
X101337227Y-75044798D01*
X101323722Y-75065010D01*
X101214854Y-75197666D01*
X101197666Y-75214854D01*
X101065010Y-75323722D01*
X101044798Y-75337227D01*
X100893456Y-75418121D01*
X100870998Y-75427424D01*
X100706775Y-75477240D01*
X100682934Y-75481982D01*
X100506061Y-75499403D01*
X100493907Y-75500000D01*
X96756093Y-75500000D01*
X96743939Y-75499403D01*
X96567065Y-75481982D01*
X96543224Y-75477240D01*
X96379001Y-75427424D01*
X96356543Y-75418121D01*
X96205201Y-75337227D01*
X96184989Y-75323722D01*
X96052333Y-75214854D01*
X96035145Y-75197666D01*
X95926277Y-75065010D01*
X95912772Y-75044798D01*
X95831878Y-74893456D01*
X95822575Y-74870998D01*
X95772759Y-74706775D01*
X95768017Y-74682934D01*
X95750597Y-74506061D01*
X95750000Y-74493907D01*
X95750000Y-70006092D01*
X95750597Y-69993938D01*
X95768017Y-69817065D01*
X95772759Y-69793224D01*
X95822575Y-69629001D01*
X95831878Y-69606543D01*
X95912772Y-69455201D01*
X95926277Y-69434989D01*
X96035145Y-69302333D01*
X96052333Y-69285145D01*
X96184989Y-69176277D01*
X96205201Y-69162772D01*
X96356543Y-69081878D01*
X96379001Y-69072575D01*
X96543224Y-69022759D01*
X96567065Y-69018017D01*
X96743939Y-69000597D01*
X96756093Y-69000000D01*
X100493907Y-69000000D01*
X100506061Y-69000597D01*
G37*
M02*
